<?xml version="1.0" encoding="UTF-8" standalone="no"?>
<svg
   xmlns:dc="http://purl.org/dc/elements/1.1/"
   xmlns:cc="http://creativecommons.org/ns#"
   xmlns:rdf="http://www.w3.org/1999/02/22-rdf-syntax-ns#"
   xmlns:svg="http://www.w3.org/2000/svg"
   xmlns="http://www.w3.org/2000/svg"
   xmlns:sodipodi="http://sodipodi.sourceforge.net/DTD/sodipodi-0.dtd"
   xmlns:inkscape="http://www.inkscape.org/namespaces/inkscape"
   width="140.81252"
   height="23.442011"
   viewBox="0 0 140.81252 23.442011"
   id="svg2"
   version="1.1"
   inkscape:version="0.91 r13725"
   sodipodi:docname="logo_main.svg"
   style="fill:none">
  <metadata
     id="metadata51">
    <rdf:RDF>
      <cc:Work
         rdf:about="">
        <dc:format>image/svg+xml</dc:format>
        <dc:type
           rdf:resource="http://purl.org/dc/dcmitype/StillImage" />
        <dc:title></dc:title>
      </cc:Work>
    </rdf:RDF>
  </metadata>
  <defs
     id="defs49" />
  <sodipodi:namedview
     pagecolor="#ffffff"
     bordercolor="#666666"
     borderopacity="1"
     objecttolerance="10"
     gridtolerance="10"
     guidetolerance="10"
     inkscape:pageopacity="0"
     inkscape:pageshadow="2"
     inkscape:window-width="1680"
     inkscape:window-height="997"
     id="namedview47"
     showgrid="false"
     fit-margin-top="0"
     fit-margin-left="0"
     fit-margin-right="0"
     fit-margin-bottom="0"
     inkscape:zoom="1.9367089"
     inkscape:cx="-6.7096403"
     inkscape:cy="11.4417"
     inkscape:window-x="0"
     inkscape:window-y="0"
     inkscape:window-maximized="1"
     inkscape:current-layer="svg2" />
  <path
     d="m 7.41701,2.38378 c 0,0.665 -0.215,1.187 -0.645,1.568 -0.43,0.38203 -0.936,0.57203 -1.519,0.57203 -0.584,0 -1.091,-0.19 -1.52,-0.57203 -0.431,-0.381 -0.645,-0.903 -0.645,-1.568 0,-0.665 0.214,-1.187 0.645,-1.568 0.429,-0.381 0.936,-0.572 1.52,-0.572 0.583,0 1.089,0.191 1.519,0.572 0.43,0.381 0.645,0.903 0.645,1.568 z m -5.155,20.98603 c -0.228,0 -0.56401,-0.024 -1.01001,-0.073 -0.445,-0.048 -0.864,-0.138 -1.252,-0.268 l 0.486,-2.942 c 0.244,0.082 0.466,0.138 0.669,0.171 0.203,0.031 0.458,0.048 0.766,0.048 0.56701,0 0.96401,-0.17 1.19101,-0.51 0.227,-0.341 0.341,-0.836 0.341,-1.484 l 0,-12.232 3.623,0 0,12.329 c 0,1.686 -0.413,2.934 -1.24,3.746 -0.827,0.81 -2.018,1.215 -3.574,1.215 z"
     id="path4"
     inkscape:connector-curvature="0"
     style="clip-rule:evenodd;fill:#2f2440;fill-rule:evenodd" />
  <path
     d="m 20.42671,18.43361 c -0.617,0.178 -1.411,0.344 -2.384,0.498 -0.972,0.154 -1.993,0.231 -3.063,0.231 -1.087,0 -1.991,-0.146 -2.713,-0.437 -0.721,-0.292 -1.292,-0.702 -1.713,-1.229 -0.422,-0.526 -0.722,-1.155 -0.9,-1.884 -0.179,-0.729 -0.268,-1.532 -0.268,-2.408 l 0,-7.125 3.624,0 0,6.688 c 0,1.167 0.154,2.01 0.462,2.529 0.308,0.519 0.883,0.778 1.726,0.778 0.26,0 0.536,-0.013 0.827,-0.037 0.292,-0.024 0.551,-0.052 0.778,-0.084 l 0,-9.874 3.624,0 0,12.354 z"
     id="path6"
     inkscape:connector-curvature="0"
     style="clip-rule:evenodd;fill:#2f2440;fill-rule:evenodd" />
  <path
     d="m 23.00441,6.51811 c 0.615,-0.178 1.41,-0.344 2.383,-0.499 0.972,-0.154 1.993,-0.231 3.064,-0.231 1.086,0 1.99,0.142 2.711,0.425 0.722,0.284 1.293,0.686 1.714,1.204 0.422,0.519 0.722,1.135 0.9,1.849 0.179,0.713 0.268,1.507 0.268,2.382 l 0,7.223 -3.624,0 0,-6.784 c 0,-1.168 -0.154,-1.995 -0.462,-2.481 -0.308,-0.486 -0.884,-0.729 -1.726,-0.729 -0.26,0 -0.535,0.012 -0.827,0.036 -0.292,0.024 -0.551,0.053 -0.778,0.084 l 0,9.874 -3.623,0 0,-12.353 z"
     id="path8"
     inkscape:connector-curvature="0"
     style="clip-rule:evenodd;fill:#2f2440;fill-rule:evenodd" />
  <path
     d="m 39.55001,12.06201 c 0,2.027 0.818,3.04 2.456,3.04 0.373,0 0.721,-0.048 1.046,-0.145 0.323,-0.099 0.6,-0.211 0.826,-0.342 l 0,-5.787 c -0.178,-0.032 -0.389,-0.061 -0.632,-0.085 -0.243,-0.024 -0.527,-0.037 -0.851,-0.037 -0.957,0 -1.671,0.316 -2.14,0.949 -0.471,0.632 -0.705,1.434 -0.705,2.407 z m 7.952,5.204 c 0,2.092 -0.532,3.643 -1.594,4.656 -1.061,1.014 -2.703,1.52 -4.923,1.52 -0.779,0 -1.557,-0.069 -2.335,-0.206 -0.778,-0.138 -1.499,-0.32 -2.164,-0.548 l 0.632,-3.039 c 0.567,0.227 1.163,0.405 1.787,0.535 0.624,0.129 1.333,0.195 2.128,0.195 1.037,0 1.771,-0.228 2.201,-0.681 0.429,-0.454 0.644,-1.038 0.644,-1.751 l 0,-0.462 c -0.389,0.179 -0.789,0.312 -1.203,0.401 -0.414,0.09 -0.864,0.134 -1.35,0.134 -1.767,0 -3.121,-0.523 -4.061,-1.568 -0.941,-1.046 -1.411,-2.509 -1.411,-4.39 0,-0.94 0.147,-1.795 0.439,-2.565 0.29,-0.77 0.717,-1.432 1.276,-1.982 0.559,-0.552 1.244,-0.977 2.054,-1.277 0.812,-0.3 1.727,-0.45 2.749,-0.45 0.437,0 0.887,0.021 1.35,0.061 0.461,0.041 0.919,0.093 1.373,0.158 0.455,0.065 0.888,0.142 1.301,0.231 0.414,0.089 0.782,0.182 1.107,0.28 l 0,10.748 z"
     id="path10"
     inkscape:connector-curvature="0"
     style="clip-rule:evenodd;fill:#2f2440;fill-rule:evenodd" />
  <path
     d="m 57.83671,11.18651 c -0.017,-0.308 -0.069,-0.607 -0.159,-0.899 -0.089,-0.292 -0.227,-0.552 -0.413,-0.779 -0.186,-0.227 -0.422,-0.413 -0.705,-0.559 -0.284,-0.146 -0.637,-0.219 -1.058,-0.219 -0.405,0 -0.753,0.069 -1.045,0.207 -0.292,0.137 -0.536,0.32 -0.73,0.547 -0.195,0.228 -0.345,0.491 -0.45,0.791 -0.106,0.3 -0.183,0.603 -0.232,0.911 l 4.792,0 z m -8.512,1.386 c 0,-1.135 0.174,-2.127 0.524,-2.978 0.348,-0.852 0.805,-1.56 1.373,-2.129 0.567,-0.567 1.22,-0.997 1.957,-1.288 0.739,-0.292 1.496,-0.438 2.274,-0.438 1.816,0 3.251,0.556 4.304,1.666 1.054,1.111 1.581,2.744 1.581,4.9 0,0.211 -0.008,0.442 -0.024,0.693 -0.016,0.251 -0.033,0.474 -0.049,0.668 l -8.22,0 c 0.082,0.747 0.43,1.338 1.046,1.776 0.617,0.437 1.443,0.656 2.481,0.656 0.664,0 1.317,-0.06 1.957,-0.182 0.641,-0.122 1.164,-0.272 1.569,-0.449 l 0.487,2.941 c -0.195,0.097 -0.455,0.195 -0.779,0.292 -0.324,0.097 -0.685,0.182 -1.082,0.256 -0.397,0.073 -0.823,0.133 -1.276,0.182 -0.454,0.048 -0.908,0.073 -1.362,0.073 -1.151,0 -2.153,-0.171 -3.004,-0.511 -0.851,-0.34 -1.556,-0.806 -2.115,-1.398 -0.559,-0.592 -0.973,-1.293 -1.24,-2.104 -0.268,-0.81 -0.402,-1.686 -0.402,-2.626 z"
     id="path12"
     inkscape:connector-curvature="0"
     style="clip-rule:evenodd;fill:#2f2440;fill-rule:evenodd" />
  <path
     d="m 68.33931,2.89461 3.624,-0.584 0,3.769 4.352,0 0,3.016 -4.352,0 0,4.498 c 0,0.763 0.133,1.371 0.4,1.824 0.268,0.454 0.807,0.681 1.617,0.681 0.389,0 0.791,-0.037 1.205,-0.109 0.412,-0.073 0.789,-0.174 1.13,-0.305 l 0.51,2.821 c -0.437,0.18 -0.923,0.333 -1.459,0.462 -0.535,0.13 -1.191,0.196 -1.969,0.196 -0.989,0 -1.808,-0.134 -2.456,-0.402 -0.648,-0.267 -1.167,-0.64 -1.557,-1.118 -0.389,-0.478 -0.66,-1.058 -0.815,-1.739 -0.154,-0.681 -0.23,-1.435 -0.23,-2.262 l 0,-10.748 z"
     id="path14"
     inkscape:connector-curvature="0"
     style="clip-rule:evenodd;fill:#2f2440;fill-rule:evenodd" />
  <mask
     id="mask0"
     mask-type="alpha"
     maskUnits="userSpaceOnUse"
     x="100"
     y="6"
     width="10"
     height="19">
    <path
       d="m 100.566,6.00018 8.73,0 0,18.87052 -8.73,0 0,-18.87052 z"
       id="path17"
       inkscape:connector-curvature="0"
       style="clip-rule:evenodd;fill:#ffffff;fill-rule:evenodd" />
  </mask>
  <g
     mask="url(#mask0)"
     id="g19"
     transform="translate(-8.00049,-5.99969)">
    <path
       d="m 106.111,5.99969 c 0.681,0 1.304,0.069 1.872,0.207 0.567,0.139 1.005,0.272 1.313,0.402 l -0.706,2.893 c -0.324,-0.14599 -0.676,-0.25499 -1.057,-0.329 -0.381,-0.071 -0.734,-0.108 -1.058,-0.108 -0.437,0 -0.806,0.06 -1.106,0.182 -0.3,0.122 -0.536,0.288 -0.706,0.499 -0.17,0.21 -0.292,0.46201 -0.364,0.75401 -0.073,0.292 -0.11,0.607 -0.11,0.947 l 0,0.633 4.475,0 0,3.016 -4.475,0 0,9.775 -3.623,0 0,-13.472 c 0,-1.653 0.466,-2.96601 1.398,-3.93901 0.932,-0.973 2.314,-1.46 4.147,-1.46 z"
       id="path21"
       inkscape:connector-curvature="0"
       style="clip-rule:evenodd;fill:#2f2440;fill-rule:evenodd" />
  </g>
  <path
     d="m 102.02851,2.89461 3.624,-0.584 0,3.769 4.352,0 0,3.016 -4.352,0 0,4.498 c 0,0.763 0.133,1.371 0.401,1.824 0.267,0.454 0.807,0.681 1.617,0.681 0.389,0 0.791,-0.037 1.204,-0.109 0.413,-0.073 0.79,-0.174 1.13,-0.305 l 0.511,2.821 c -0.438,0.18 -0.924,0.333 -1.459,0.462 -0.535,0.13 -1.191,0.196 -1.97,0.196 -0.988,0 -1.808,-0.134 -2.456,-0.402 -0.648,-0.267 -1.167,-0.64 -1.556,-1.118 -0.389,-0.478 -0.661,-1.058 -0.815,-1.739 -0.154,-0.681 -0.231,-1.435 -0.231,-2.262 l 0,-10.748 z"
     id="path23"
     inkscape:connector-curvature="0"
     style="clip-rule:evenodd;fill:#2f2440;fill-rule:evenodd" />
  <mask
     id="mask1"
     mask-type="alpha"
     maskUnits="userSpaceOnUse"
     x="120"
     y="6"
     width="6"
     height="20">
    <path
       d="m 120.052,6.00018 5.617,0 0,19.11382 -5.617,0 0,-19.11382 z"
       id="path26"
       inkscape:connector-curvature="0"
       style="clip-rule:evenodd;fill:#ffffff;fill-rule:evenodd" />
  </mask>
  <g
     mask="url(#mask1)"
     id="g28"
     transform="translate(-8.00049,-5.99969)">
    <path
       d="m 125.159,25.114 c -1.054,-0.017 -1.909,-0.13 -2.565,-0.34 -0.657,-0.211 -1.176,-0.507 -1.557,-0.888 -0.381,-0.381 -0.641,-0.843 -0.778,-1.386 -0.138,-0.543 -0.207,-1.156 -0.207,-1.836 l 0,-14.08 3.624,-0.584 0,13.934 c 0,0.325 0.025,0.617 0.073,0.876 0.048,0.259 0.141,0.479 0.279,0.657 0.138,0.178 0.336,0.324 0.596,0.437 0.259,0.114 0.608,0.186 1.045,0.219 l -0.51,2.991 z"
       id="path30"
       inkscape:connector-curvature="0"
       style="clip-rule:evenodd;fill:#2f2440;fill-rule:evenodd" />
  </g>
  <path
     d="m 126.95851,11.18651 c -0.017,-0.308 -0.069,-0.607 -0.158,-0.899 -0.089,-0.292 -0.228,-0.552 -0.414,-0.779 -0.187,-0.227 -0.421,-0.413 -0.705,-0.559 -0.285,-0.146 -0.637,-0.219 -1.058,-0.219 -0.406,0 -0.754,0.069 -1.046,0.207 -0.291,0.137 -0.534,0.32 -0.729,0.547 -0.195,0.228 -0.345,0.491 -0.45,0.791 -0.105,0.3 -0.182,0.603 -0.231,0.911 l 4.791,0 z m -8.512,1.386 c 0,-1.135 0.175,-2.127 0.523,-2.978 0.348,-0.852 0.806,-1.56 1.374,-2.129 0.567,-0.567 1.219,-0.997 1.958,-1.288 0.738,-0.292 1.496,-0.438 2.273,-0.438 1.816,0 3.251,0.556 4.305,1.666 1.054,1.111 1.58,2.744 1.58,4.9 0,0.211 -0.008,0.442 -0.023,0.693 -0.018,0.251 -0.034,0.474 -0.049,0.668 l -8.22,0 c 0.081,0.747 0.43,1.338 1.046,1.776 0.615,0.437 1.442,0.656 2.48,0.656 0.664,0 1.318,-0.06 1.957,-0.182 0.641,-0.122 1.163,-0.272 1.569,-0.449 l 0.487,2.941 c -0.195,0.097 -0.454,0.195 -0.779,0.292 -0.324,0.097 -0.685,0.182 -1.081,0.256 -0.398,0.073 -0.824,0.133 -1.278,0.182 -0.454,0.048 -0.907,0.073 -1.361,0.073 -1.151,0 -2.152,-0.171 -3.004,-0.511 -0.85,-0.34 -1.556,-0.806 -2.115,-1.398 -0.559,-0.592 -0.973,-1.293 -1.241,-2.104 -0.267,-0.81 -0.401,-1.686 -0.401,-2.626 z"
     id="path32"
     inkscape:connector-curvature="0"
     style="clip-rule:evenodd;fill:#2f2440;fill-rule:evenodd" />
  <mask
     id="mask2"
     mask-type="alpha"
     maskUnits="userSpaceOnUse"
     x="140"
     y="11"
     width="9"
     height="14">
    <path
       d="m 140.496,11.8123 8.317,0 0,13.059 -8.317,0 0,-13.059 z"
       id="path35"
       inkscape:connector-curvature="0"
       style="clip-rule:evenodd;fill:#ffffff;fill-rule:evenodd" />
  </mask>
  <g
     mask="url(#mask2)"
     id="g37"
     transform="translate(-8.00049,-5.99969)">
    <path
       d="m 148.205,15.2893 c -0.324,-0.08 -0.705,-0.166 -1.143,-0.255 -0.438,-0.089 -0.908,-0.134 -1.411,-0.134 -0.226,0 -0.497,0.021 -0.814,0.061 -0.316,0.041 -0.555,0.086 -0.717,0.134 l 0,9.776 -3.624,0 0,-12.111 c 0.648,-0.227 1.415,-0.441 2.299,-0.644 0.884,-0.203 1.868,-0.304 2.955,-0.304 0.193,0 0.429,0.012 0.704,0.037 0.276,0.023 0.551,0.056 0.827,0.097 0.276,0.04 0.551,0.089 0.827,0.146 0.276,0.056 0.511,0.126 0.705,0.206 l -0.608,2.991 z"
       id="path39"
       inkscape:connector-curvature="0"
       style="clip-rule:evenodd;fill:#2f2440;fill-rule:evenodd" />
  </g>
  <path
     d="m 87.38741,4.42091 c 2.316,0 2.32,-3.60004 0,-3.60004 -2.316,0 -2.32,3.60004 0,3.60004 z"
     id="path41"
     inkscape:connector-curvature="0"
     style="clip-rule:evenodd;fill:#5800d8;fill-rule:evenodd" />
  <path
     d="m 78.57251,8.54931 c -0.035,4.42 -0.056,11.049 5.867,11.062 5.338,0.012 5.782,-7.367 5.602,-11.245 -0.089,-1.922 -3.09,-1.933 -3,0 0.097,2.083 0.34,8.005 -2.602,8.245 -3.553,0.29 -2.885,-5.839 -2.867,-8.062 0.015,-1.931 -2.985,-1.933 -3,0 z"
     id="path43"
     inkscape:connector-curvature="0"
     style="clip-rule:evenodd;fill:#5800d8;fill-rule:evenodd" />
  <path
     d="m 81.25701,4.42091 c 2.316,0 2.32,-3.60004 0,-3.60004 -2.316,0 -2.32,3.60004 0,3.60004 z"
     id="path45"
     inkscape:connector-curvature="0"
     style="clip-rule:evenodd;fill:#5800d8;fill-rule:evenodd" />
</svg>
