<?xml version="1.0" encoding="utf-8"?>
<!-- Generator: Adobe Illustrator 16.0.4, SVG Export Plug-In . SVG Version: 6.00 Build 0)  -->
<!DOCTYPE svg PUBLIC "-//W3C//DTD SVG 1.1//EN" "http://www.w3.org/Graphics/SVG/1.1/DTD/svg11.dtd" [
	<!ENTITY st0 "clip-path:url(#SVGID_2_);fill:#FFFFFF;">
]>
<svg version="1.1" id="Ebene_1" xmlns="http://www.w3.org/2000/svg" xmlns:xlink="http://www.w3.org/1999/xlink" x="0px" y="0px"
	 width="200px" height="52.7861px" viewBox="0 0 200 52.7861" style="enable-background:new 0 0 200 52.7861;" xml:space="preserve"
	>
<g>
	<defs>
		<rect id="SVGID_1_" width="200" height="52.7861"/>
	</defs>
	<clipPath id="SVGID_2_">
		<use xlink:href="#SVGID_1_"  style="overflow:visible;"/>
	</clipPath>
	<path style="&st0;" d="M178.1836,17.0254c0-5.8223-3.502-7.5049-10.5977-7.5049c-7.2783,0-10.917,1.5459-10.917,7.5049v7.9609
		c0,5.4795,3.0078,7.5166,11.4629,7.46c5.7852-0.0449,9.5166-0.8916,9.6104-0.9043v-3.5996c0,0,0.0117-0.5381-0.6328-0.4521
		c-3.1924,0.7207-5.9238,0.8809-9.4863,0.8545c-1.415-0.0127-2.7676-0.1875-3.1836-0.3252
		c-1.1738-0.4287-1.416-1.5098-1.4023-3.4629v-1.2041c0,0,0-0.5371,0.5371-0.5371h14.0723c0,0,0.5371-0.0107,0.5371-0.5371V17.0254z
		 M177.6562,24.5215h-12.9141c0,0-0.0469,1.7549,0.2998,1.8887c0.2334,0.168,1.4404,0.2979,2.6514,0.3086
		c3.4316,0.0264,6.002-0.2061,9.0391-0.8926c0,0,0.3984-0.0508,0.5078-0.0508c0.6191,0,1.1836,0.2295,1.5898,0.6455
		c0.5908,0.6016,0.623,1.3438,0.6172,1.5566v5.0684c0,0-6.3164,1.0674-11.3037,1.1055l-2.3994-0.0586
		c-5.3301-0.2559-10.7812-1.5361-10.7812-9.1064v-7.9609c0-8.0947,6.0664-9.2109,12.623-9.2109
		c6.084,0,12.3037,1.0938,12.3037,9.2109v5.2529C179.8896,23.8965,178.5195,24.5215,177.6562,24.5215 M170.085,16.8047v1.2373
		H164.79l-0.001-1.2373c0-1.3506,0-1.5244,2.6377-1.5244c0.0039,0,0.0078,0,0.0127,0c0.002,0,0.0039,0,0.0078,0
		C170.085,15.2803,170.085,15.4541,170.085,16.8047 M171.8047,19.2197V19.21v-2.4053c0-2.4111-0.7793-3.2305-4.3574-3.2305
		c-0.0039,0-0.0078,0-0.0098,0c-0.0039,0-0.0068,0-0.0107,0c-3.5781,0-4.3584,0.8193-4.3584,3.2305V19.21v0.0098l0.002-0.001
		c0.0078,0.5264,0.541,0.5293,0.541,0.5293h7.6514c0,0,0.5332-0.0029,0.54-0.5293L171.8047,19.2197 M113.7598,21.8701v3.3379
		c0,1.5234-0.0068,1.5234-3.0703,1.5234c-3.1621,0-3.1621,0-3.1621-1.5693v-8.3652c0-1.5225,0.0059-1.5225,3.0703-1.5225
		c3.1631,0,3.1611,0,3.1611,1.5693L113.7598,21.8701z M115.4648,25.208v-8.3643c0-2.5488-0.8633-3.2754-4.8672-3.2754
		c-4.0029,0-4.7754,0.7266-4.7754,3.2285v8.3652c0,2.5469,0.8633,3.2754,4.8672,3.2754
		C114.6914,28.4375,115.4648,27.709,115.4648,25.208 M121.833,24.8955c0,6.5039-4.2754,7.5508-11.2803,7.5508
		c-6.7324,0-11.1001-0.3643-11.1001-8.2793V2.8369c0-0.5361,0.5352-0.5908,0.5352-0.5908l5.2993-0.5371
		c0.5352-0.0537,0.5352,0.4834,0.5352,0.4834v9.4707c0.6152-1.5039,3.002-2.1426,7.3672-2.1426c5.7783,0,8.6436,2.001,8.6436,7.915
		V24.8955z M123.5391,24.8955v-7.46c0-8.624-5.9062-9.6211-10.3496-9.6211c-2.0449,0-4.0537,0.1084-5.6621,0.6289v-6.251
		c0-1.0781-0.8105-2.1924-2.166-2.1924c-0.0801,0-0.1602,0.0029-0.2461,0.0127l-5.2993,0.5371
		c-1.0029,0.1006-2.0684,0.9365-2.0684,2.2871V24.167c0,9.9844,6.8022,9.9844,12.8042,9.9844
		C116.8359,34.1514,123.5391,33.4365,123.5391,24.8955 M66.417,10.1426c0-0.5371-0.5371-0.5371-0.5371-0.5371h-5.2939
		c-0.5371,0-0.5371,0.5371-0.5371,0.5371v14.6416c0,2.502-0.7729,3.2305-4.7759,3.2305s-4.8672-0.7285-4.8672-3.2764V10.1426
		c0-0.5371-0.5371-0.5371-0.5371-0.5371h-5.2939c-0.5381,0-0.5381,0.5371-0.5381,0.5371v14.3691
		c0,6.5049,4.2764,7.5508,11.2812,7.5508c6.7319,0,11.0991-0.3643,11.0991-8.2793V10.1426z M55.3179,33.7686
		c-6.2822,0-12.9858-0.7148-12.9858-9.2568V10.1426c0-1.1035,0.8389-2.2432,2.2427-2.2432h5.293
		c1.103,0,2.2441,0.8389,2.2441,2.2432v14.5957c0,1.5703-0.002,1.5703,3.1611,1.5703c3.064,0,3.0698,0,3.0698-1.5244V10.1426
		c0-1.1035,0.8389-2.2432,2.2441-2.2432h5.293c1.103,0,2.2427,0.8389,2.2427,2.2432v13.6406
		C68.1226,33.7686,61.3198,33.7686,55.3179,33.7686 M12.5317,14.4531v9.9248c0,3.1387,0.2729,4.0488,3.958,4.0488
		c0.9092,0,1.728-0.1367,2.0459-0.1826c0.3193-0.0449,0.3193,0.2861,0.3193,0.2861v3.5811
		c-1.1372,0.1357-2.502,0.2266-3.6851,0.2266c-4.5942,0-9.0063-0.7275-9.0063-6.8672V14.4531c0-0.5371-0.5366-0.5371-0.5366-0.5371
		H2.2427c-0.5371,0-0.5371-0.5381-0.5371-0.5381v-2.9736c0-0.5371,0.5371-0.5371,0.5371-0.5371H5.627
		c0.5366,0,0.5366-0.5371,0.5366-0.5371V2.8369c0-0.5361,0.5342-0.5918,0.5342-0.5918L11.998,1.709
		c0.5337-0.0537,0.5337,0.4834,0.5337,0.4834v7.1377c0,0.5371,0.5371,0.5371,0.5371,0.5371h5.249
		c0.5371,0,0.5371,0.5371,0.5371,0.5371v2.9736c0,0.5381-0.5371,0.5381-0.5371,0.5381h-5.249
		C12.5317,13.916,12.5317,14.4531,12.5317,14.4531 M14.2378,24.3779v-8.7568h4.0801c1.1021,0,2.2432-0.8389,2.2432-2.2432v-2.9736
		c0-1.1016-0.8394-2.2422-2.2432-2.2422h-4.0801V2.1924c0-1.0781-0.811-2.1934-2.167-2.1934c-0.0781,0-5.5449,0.5488-5.5449,0.5488
		C5.5229,0.6504,4.458,1.4873,4.458,2.8369v5.3252H2.2427C1.1406,8.1621,0,9.001,0,10.4043v2.9736
		c0,1.1035,0.8389,2.2432,2.2427,2.2432H4.458v9.8496c0,8.5732,7.5068,8.5879,10.7119,8.5732
		c1.8291-0.0078,5.3911-0.4189,5.3911-0.4189v-4.8887c0-1.2539-0.8555-2.2002-1.9883-2.2002c0,0-1.3867,0.1846-2.083,0.1846
		c-1.7109,0-1.9629-0.1543-2.0698-0.3047C14.229,26.1494,14.2378,24.8301,14.2378,24.3779 M150.4414,17.0605
		c0-6.5039-4.2754-7.5508-11.2812-7.5508c-6.7324,0-11.0996,0.3633-11.0996,8.2783v13.6416c0,0.5381,0.5371,0.5381,0.5371,0.5381
		h5.2939c0.5381,0,0.5381-0.5381,0.5381-0.5381V16.7871c0-2.502,0.7734-3.2285,4.7754-3.2285c4.0039,0,4.8672,0.7266,4.8672,3.2744
		v14.5967c0,0.5381,0.5371,0.5381,0.5371,0.5381h5.293c0.5391,0,0.5391-0.5381,0.5391-0.5381V17.0605z M149.9043,33.6729h-5.2949
		c-1.1016,0-2.2422-0.8398-2.2422-2.2432V16.833c0-1.5684,0-1.5684-3.1621-1.5684c-3.0635,0-3.0703,0-3.0703,1.5225v14.6426
		c0,1.1025-0.8389,2.2432-2.2432,2.2432h-5.2939c-1.1016,0-2.2422-0.8398-2.2422-2.2432V17.7881
		c0-9.9844,6.8027-9.9844,12.8047-9.9844c6.2832,0,12.9863,0.7158,12.9863,9.2568v14.3691
		C152.1465,32.5322,151.3066,33.6729,149.9043,33.6729 M198.2939,13.8789c0,0.5371-0.5371,0.5371-0.5371,0.5371h-1.2002
		c-3.457,0-5.7773,1.3652-5.7773,4.2314v12.6992c0,0.5381-0.5371,0.5381-0.5371,0.5381h-5.293
		c-0.5371,0-0.5371-0.5381-0.5371-0.5381V10.4043c0-0.5371,0.5371-0.5371,0.5371-0.5371h4.9756
		c0.5371,0,0.5371,0.5371,0.5371,0.5371l-0.001,3.0244c0.2832-1.79,2.9902-3.9248,6.0049-3.8955h1.4492
		c0.3789,0,0.3789,0.3789,0.3789,0.3789V13.8789z M200,13.8789V9.9131c0-1.0244-0.7803-2.085-2.085-2.085l-1.5127-0.001
		c-1.6367,0-3.2637,0.5205-4.5898,1.3584c-0.373-0.5908-1.0234-1.0234-1.8877-1.0234h-4.9756c-1.1025,0-2.2441,0.8389-2.2441,2.2422
		v20.9424c0,1.1025,0.8398,2.2422,2.2441,2.2422h5.293c1.1025,0,2.2441-0.8389,2.2441-2.2422V18.6475
		c0-0.625,0-2.5254,4.0713-2.5254h1.1992C198.8594,16.1221,200,15.2832,200,13.8789 M38.7998,9.9121c0,0,0-0.3789-0.3789-0.3789
		h-1.4492c-3.0146-0.0293-5.7227,2.1055-6.0049,3.8955l0.001-3.0244c0,0,0-0.5371-0.5381-0.5371h-4.9751c0,0-0.5366,0-0.5366,0.5371
		v20.9424c0,0,0,0.5381,0.5366,0.5381h5.2935c0,0,0.5376,0,0.5376-0.5381V18.6475c0-2.8662,2.3203-4.2314,5.7773-4.2314h1.1997
		c0,0,0.5371,0,0.5371-0.5371V9.9121z M38.2627,16.1221H37.063c-4.0713,0-4.0713,1.9004-4.0713,2.5254v12.6992
		c0,1.4033-1.1411,2.2422-2.2427,2.2422h-5.2944c-1.4038,0-2.2427-1.1396-2.2427-2.2422V10.4043
		c0-1.4033,1.1411-2.2422,2.2427-2.2422h4.9751c0.8652,0,1.5161,0.4326,1.8882,1.0234c1.3262-0.8379,2.9541-1.3584,4.5908-1.3584
		l1.5122,0.001c1.3047,0,2.085,1.0605,2.085,2.085v3.9658C40.5059,15.2832,39.3647,16.1221,38.2627,16.1221 M94.1328,22.2783
		c0,0.5264-0.5381,0.5371-0.5381,0.5371H79.5229c-0.5381,0-0.5381,0.5371-0.5381,0.5371v1.2041
		c-0.0142,1.9531,0.229,3.0342,1.4028,3.4629c0.416,0.1377,1.7681,0.3125,3.1831,0.3252c3.563,0.0273,6.2939-0.1338,9.4858-0.8545
		c0.645-0.0859,0.6343,0.4521,0.6343,0.4521v3.5996c-0.0942,0.0127-3.8262,0.8594-9.6113,0.9043
		c-8.4546,0.0566-11.4629-1.9805-11.4629-7.46v-7.9609c0-5.959,3.6392-7.5049,10.917-7.5049c7.0962,0,10.5991,1.6826,10.5991,7.5049
		V22.2783z M95.8379,22.2783v-5.2529c0-8.1162-6.2202-9.2109-12.3042-9.2109c-6.5557,0-12.623,1.1162-12.623,9.2109v7.9609
		c0,7.5703,5.4512,8.8506,10.7822,9.1064l2.3989,0.0586c4.9868-0.0381,11.3042-1.1055,11.3042-1.1055v-5.0684
		c0.0049-0.2129-0.0273-0.9551-0.6172-1.5566c-0.4072-0.416-0.9722-0.6455-1.5898-0.6455c-0.1104,0-0.5083,0.0508-0.5083,0.0508
		c-3.0371,0.6865-5.6079,0.9189-9.04,0.8926c-1.2109-0.0107-2.417-0.1406-2.6509-0.3086c-0.3462-0.1338-0.2988-1.8887-0.2988-1.8887
		H93.604C94.4678,24.5215,95.8379,23.8965,95.8379,22.2783 M83.395,15.2803L83.395,15.2803c-0.0034,0-0.0063,0-0.0083,0
		c-0.0039,0-0.0078,0-0.0117,0c-2.6382,0-2.6382,0.1738-2.6382,1.5244l0.001,1.2373h5.2949v-1.2373
		C86.0327,15.4541,86.0327,15.2803,83.395,15.2803 M87.751,19.2188c-0.0073,0.5273-0.54,0.5293-0.54,0.5293h-7.6523
		c0,0-0.5327-0.002-0.54-0.5293l-0.002,0.002V19.21v-2.4053c0-2.4111,0.7803-3.2305,4.3584-3.2305c0.0039,0,0.0068,0,0.0098,0
		s0.0068,0,0.0103,0c3.5776,0,4.3579,0.8193,4.3579,3.2305V19.21v0.0107L87.751,19.2188"/>
	<path style="&st0;" d="M198.2607,52.6611v-4.4834c0-1.0732-0.3994-1.6836-2.0967-1.6836c-0.9619,0-1.8369,0.1992-1.9746,0.8604
		h-0.0498v-0.7354h-1.709v6.042h1.7461v-4.1826c0-0.6123,0.1377-0.875,1.1621-0.875c0.9248,0,1.1748,0.1504,1.1748,0.8125v4.2451
		H198.2607z M188.0723,52.7861c2.2461,0,3.0703-0.4746,3.0703-2.1592v-1.9736c0-1.6855-0.8242-2.1592-3.0703-2.1592
		c-2.248,0-3.0723,0.4736-3.0723,2.1592v1.9736C185,52.3115,185.8242,52.7861,188.0723,52.7861 M188.0723,51.6758
		c-1.1123,0-1.3252-0.0986-1.3252-1.0605v-1.8496c0-1.0752,0.1885-1.1621,1.3252-1.1621s1.3242,0.0869,1.3242,1.1621v1.8496
		C189.3965,51.5771,189.1836,51.6758,188.0723,51.6758 M183.6133,46.6191h-1.748v6.042h1.748V46.6191z M183.6133,44.2461h-1.748
		v1.4717h1.748V44.2461z M181.041,52.7236v-1.0723c-0.1758,0.0244-0.4004,0.0625-0.6504,0.0625c-1.0107,0-1.0859-0.25-1.0859-1.1123
		v-2.873h1.7363v-1.1094h-1.7363v-2.123l-1.7461,0.749v1.374h-1.2246v1.1094h1.2246v3.1729c0,1.6855,1.209,1.8848,2.4707,1.8848
		C180.3535,52.7861,180.7285,52.7607,181.041,52.7236 M173.8613,51.1631c0,0.4141-0.2617,0.5127-0.9746,0.5127h-0.3496
		c-0.7002,0-0.9502-0.0498-0.9502-0.7246c0-0.7256,0.1006-0.8252,0.9131-0.8252h1.3613V51.1631z M175.6074,52.6611v-4.0205
		c0-1.3232-0.2363-2.1465-2.6826-2.1465c-2.1738,0-2.8604,0.4863-2.8604,1.709h1.748c0-0.499,0.1494-0.5996,1.0244-0.5996
		c0.7871,0,1.0244,0.1504,1.0244,0.8125v0.7012h-1.8115c-1.7598,0-2.209,0.4854-2.209,1.7969c0,1.6094,0.7109,1.8721,2.2959,1.8721
		c0.9004,0,1.6758-0.124,1.7871-0.6982h0.0254v0.5732H175.6074z M169.4902,52.7236v-1.0723
		c-0.1758,0.0244-0.4004,0.0625-0.6504,0.0625c-1.0107,0-1.0859-0.25-1.0859-1.1123v-2.873h1.7363v-1.1094h-1.7363v-2.123
		l-1.7471,0.749v1.374h-1.2236v1.1094h1.2236v3.1729c0,1.6855,1.21,1.8848,2.4717,1.8848
		C168.8027,52.7861,169.1768,52.7607,169.4902,52.7236 M164.0586,52.6611v-4.4834c0-1.0732-0.4004-1.6836-2.0977-1.6836
		c-0.9619,0-1.8369,0.1992-1.9746,0.8604h-0.0488v-0.7354h-1.7109v6.042h1.748v-4.1826c0-0.6123,0.1367-0.875,1.1611-0.875
		c0.9248,0,1.1748,0.1504,1.1748,0.8125v4.2451H164.0586z M155.1934,49.0791h-2.4121v-0.5869c0-0.7764,0.2871-0.8887,1.2246-0.8887
		c0.9746,0,1.1875,0.2256,1.1875,0.8887V49.0791z M156.9395,50.0518v-1.498c0-1.5977-0.9609-2.0596-2.9082-2.0596
		c-1.998,0-2.998,0.4238-2.998,2.0596v2.1865c0,1.6846,1.0615,2.0459,3.1475,2.0459c1.9102,0,2.6963-0.4365,2.6963-1.9346h-1.7227
		c0,0.6875-0.1992,0.8242-1.0859,0.8242c-1.0625,0-1.2871-0.1738-1.2871-0.9238v-0.7002H156.9395z M149.7471,52.6611v-4.4834
		c0-1.0732-0.3994-1.6836-2.0967-1.6836c-1.1494,0-1.7744,0.2363-1.9873,0.873c-0.2119-0.5615-0.7734-0.873-1.9717-0.873
		c-0.9629,0-1.7246,0.1992-1.8613,0.8604h-0.0254v-0.7354h-1.7217v6.042h1.7471v-4.2568c0-0.6133,0.0742-0.8008,1.1484-0.8008
		c0.8633,0,1.0625,0.0752,1.0625,0.7373v4.3203h1.7471v-4.2578c0-0.6123,0.0879-0.7998,1.1494-0.7998
		c0.8623,0,1.0625,0.0752,1.0625,0.7373v4.3203H149.7471z M138.6328,52.6611v-6.042h-1.7471v4.2568
		c0,0.6133-0.1123,0.7998-1.125,0.7998c-0.7861,0-1.0732-0.0742-1.0732-0.7363v-4.3203h-1.748v4.4824
		c0,1.0732,0.3242,1.6846,2.0225,1.6846c0.9619,0,1.7744-0.1992,1.9121-0.8604h0.0244v0.7354H138.6328z M132.1895,47.8662v-1.3721
		H131.54c-0.9346,0-1.584,0.7354-1.584,1.3467h-0.0635v-1.2217h-1.6602v6.042h1.7461v-3.6328
		c0.002-0.7871,0.6387-1.1621,1.5859-1.1621H132.1895z M127.5068,52.7236v-1.0723c-0.1748,0.0244-0.3994,0.0625-0.6494,0.0625
		c-1.0117,0-1.0859-0.25-1.0859-1.1123v-2.873h1.7354v-1.1094h-1.7354v-2.123l-1.748,0.749v1.374h-1.2236v1.1094h1.2236v3.1729
		c0,1.6855,1.2109,1.8848,2.4717,1.8848C126.8203,52.7861,127.1934,52.7607,127.5068,52.7236 M122.6738,50.501
		c0-1.0732-0.7607-1.4346-2.3721-1.4346h-0.7119c-0.7754,0-0.9121-0.2002-0.9121-0.7637c0-0.6621,0.125-0.6992,1-0.6992
		c0.8867,0.001,1.0234,0.0508,1.0234,0.6992h1.7227c0-1.2715-0.5488-1.8086-2.7344-1.8086c-2.0723,0-2.7588,0.4619-2.7588,1.5469
		v0.6133c0,1.0605,0.6494,1.4717,2.2344,1.4717h0.6494c0.7871,0,1.1123,0.0879,1.1123,0.7383c0,0.6865-0.1748,0.8115-1.2119,0.8115
		c-1.0498,0-1.125-0.2002-1.125-0.7988h-1.7461c0,1.5225,0.8232,1.9092,2.8711,1.9092c2.248,0,2.959-0.5361,2.959-1.5977V50.501z
		 M115.8428,52.6611v-4.4834c0-1.0732-0.3994-1.6836-2.0957-1.6836c-0.9639,0-1.8369,0.1992-1.9756,0.8604h-0.0498v-0.7354h-1.709
		v6.042h1.7471v-4.1826c0-0.6123,0.1367-0.875,1.1621-0.875c0.9248,0,1.1738,0.1504,1.1738,0.8125v4.2451H115.8428z
		 M108.4629,46.6191h-1.7471v6.042h1.7471V46.6191z M108.4629,44.2461h-1.7471v1.4717h1.7471V44.2461z M102.2939,52.6611v-4.4834
		c0-1.0732-0.3994-1.6836-2.0962-1.6836c-0.9629,0-1.8369,0.1992-1.9751,0.8604h-0.0498v-0.7354h-1.709v6.042h1.7471v-4.1826
		c0-0.6123,0.1367-0.875,1.1621-0.875c0.9238,0,1.1738,0.1504,1.1738,0.8125v4.2451H102.2939z M94.9141,46.6191H93.167v6.042h1.7471
		V46.6191z M94.9141,44.2461H93.167v1.4717h1.7471V44.2461z M87.1611,49.0791H84.749v-0.5869c0-0.7764,0.2871-0.8887,1.2251-0.8887
		c0.9736,0,1.187,0.2256,1.187,0.8887V49.0791z M88.9067,50.0518v-1.498c0-1.5977-0.96-2.0596-2.9077-2.0596
		c-1.999,0-2.9971,0.4238-2.9971,2.0596v2.1865c0,1.6846,1.061,2.0459,3.147,2.0459c1.9102,0,2.6958-0.4365,2.6958-1.9346H87.123
		c0,0.6875-0.2002,0.8242-1.0869,0.8242c-1.062,0-1.2871-0.1738-1.2871-0.9238v-0.7002H88.9067z M82.189,50.8516h-1.7222
		c0,0.7002-0.0747,0.8242-1.0239,0.8242c-1.062,0-1.2119-0.1738-1.2119-1.0244v-2.2109c0-0.7617,0.2368-0.8369,1.2119-0.8369
		c0.9238,0.001,1.0239,0.125,1.0239,0.8242h1.7222c0-1.46-0.7231-1.9336-2.646-1.9336c-2.1108,0-3.0591,0.374-3.0591,2.0967v2.2236
		c0,1.9209,1.4971,1.9717,2.9712,1.9717C81.5898,52.7861,82.189,52.2246,82.189,50.8516 M75.1958,52.6611v-4.4834
		c0-1.0732-0.3989-1.6836-2.0957-1.6836c-0.9634,0-1.8374,0.1992-1.9751,0.8604h-0.0503v-0.7354h-1.709v6.042h1.7471v-4.1826
		c0-0.6123,0.1372-0.875,1.1621-0.875c0.9238,0,1.1738,0.1504,1.1738,0.8125v4.2451H75.1958z M66.3311,49.0791h-2.4111v-0.5869
		c0-0.7764,0.2871-0.8887,1.2241-0.8887c0.9751,0,1.187,0.2256,1.187,0.8887V49.0791z M68.0781,50.0518v-1.498
		c0-1.5977-0.9604-2.0596-2.9092-2.0596c-1.998,0-2.9961,0.4238-2.9961,2.0596v2.1865c0,1.6846,1.061,2.0459,3.146,2.0459
		c1.9111,0,2.6973-0.4365,2.6973-1.9346h-1.7222c0,0.6875-0.2002,0.8242-1.0869,0.8242c-1.062,0-1.2871-0.1738-1.2871-0.9238
		v-0.7002H68.0781z M61.5098,52.6611V51.627h-0.25c-0.437,0-0.4751-0.2256-0.4751-0.4619v-7.2432h-1.7456v7.7422
		c0,0.6611,0.4106,0.9971,1.1978,0.9971H61.5098z M58.1128,52.6611V51.627h-0.249c-0.438,0-0.4751-0.2256-0.4751-0.4619v-7.2432
		h-1.7466v7.7422c0,0.6611,0.4116,0.9971,1.1978,0.9971H58.1128z M52.5078,49.0791h-2.4121v-0.5869
		c0-0.7764,0.2881-0.8887,1.2251-0.8887c0.9741,0,1.187,0.2256,1.187,0.8887V49.0791z M54.2549,50.0518v-1.498
		c0-1.5977-0.9609-2.0596-2.9092-2.0596c-1.998,0-2.9966,0.4238-2.9966,2.0596v2.1865c0,1.6846,1.0605,2.0459,3.147,2.0459
		c1.9097,0,2.6958-0.4365,2.6958-1.9346h-1.7222c0,0.6875-0.1997,0.8242-1.0869,0.8242c-1.062,0-1.2871-0.1738-1.2871-0.9238
		v-0.7002H54.2549z M47.5361,50.8516h-1.7212c0,0.7002-0.0752,0.8242-1.0249,0.8242c-1.062,0-1.2119-0.1738-1.2119-1.0244v-2.2109
		c0-0.7617,0.2368-0.8369,1.2119-0.8369c0.9248,0.001,1.0249,0.125,1.0249,0.8242h1.7212c0-1.46-0.7231-1.9336-2.646-1.9336
		c-2.1113,0-3.0591,0.374-3.0591,2.0967v2.2236c0,1.9209,1.4971,1.9717,2.9707,1.9717
		C46.937,52.7861,47.5361,52.2246,47.5361,50.8516 M39.8071,46.6191l-1.373,1.8223l-1.437-1.8223h-1.9102l2.335,2.9707l-2.46,3.0713
		h1.8359l1.5361-1.9219l1.5229,1.9219h1.9111l-2.4482-3.0967l2.3232-2.9453H39.8071z M33.0767,49.0791H30.665v-0.5869
		c0-0.7764,0.2881-0.8887,1.2251-0.8887c0.9746,0,1.1865,0.2256,1.1865,0.8887V49.0791z M34.8237,50.0518v-1.498
		c0-1.5977-0.9609-2.0596-2.9087-2.0596c-1.998,0-2.9961,0.4238-2.9961,2.0596v2.1865c0,1.6846,1.0601,2.0459,3.146,2.0459
		c1.9102,0,2.6958-0.4365,2.6958-1.9346H33.04c0,0.6875-0.2002,0.8242-1.0884,0.8242c-1.0615,0-1.2866-0.1738-1.2866-0.9238v-0.7002
		H34.8237z M23.1738,49.0791h-2.4111v-0.5869c0-0.7764,0.2871-0.8887,1.2241-0.8887c0.9751,0,1.187,0.2256,1.187,0.8887V49.0791z
		 M24.9209,50.0518v-1.498c0-1.5977-0.9609-2.0596-2.9092-2.0596c-1.998,0-2.9956,0.4238-2.9956,2.0596v2.1865
		c0,1.6846,1.0596,2.0459,3.146,2.0459c1.9106,0,2.6968-0.4365,2.6968-1.9346h-1.7222c0,0.6875-0.1997,0.8242-1.0869,0.8242
		c-1.062,0-1.2871-0.1738-1.2871-0.9238v-0.7002H24.9209z M17.728,52.6611v-6.042h-1.7461v4.2568
		c0,0.6133-0.1128,0.7998-1.125,0.7998c-0.7871,0-1.0752-0.0742-1.0752-0.7363v-4.3203h-1.7471v4.4824
		c0,1.0732,0.3252,1.6846,2.0225,1.6846c0.9619,0,1.7749-0.1992,1.9116-0.8604h0.0254v0.7354H17.728z M11.2847,47.8662v-1.3721
		h-0.6489c-0.936,0-1.585,0.7354-1.585,1.3467h-0.062l-0.002-1.2217H7.3281v6.042h1.7456v-3.6328
		c0.002-0.7871,0.6382-1.1621,1.5874-1.1621H11.2847z M6.6021,52.7236v-1.0723c-0.1753,0.0244-0.4004,0.0625-0.6489,0.0625
		c-1.0122,0-1.0874-0.25-1.0874-1.1123v-2.873h1.7363v-1.1094H4.8657v-2.123l-1.7466,0.749v1.374H1.896v1.1094h1.2231v3.1729
		c0,1.6855,1.2109,1.8848,2.4707,1.8848C5.915,52.7861,6.29,52.7607,6.6021,52.7236"/>
</g>
</svg>
