<svg xmlns="http://www.w3.org/2000/svg" width="393.32" height="393.299" viewBox="0 0 393.32 393.299"><defs><style>.a{fill:#45beed;}</style></defs><g transform="translate(24.536 21.612)"><path class="a" d="M293.9,158.7c.113.793.113,1.7.227,2.72s.113,2.153.227,3.286c.227,2.38.453,4.873.68,7.366-.34-1.926-.567-3.853-.793-6.119l-.34-3.4A21.871,21.871,0,0,0,293.9,158.7Z" transform="translate(-282.115 14.194)"/><path class="a" d="M293.8,170.5Z" transform="translate(-280.769 15.765)"/><path class="a" d="M305.2,152.519c0-1.36.113-2.833.113-4.419C305.2,149.46,305.2,151.046,305.2,152.519Z" transform="translate(-305.2 12.782)"/><g transform="translate(341.873 4.698) rotate(90)"><g transform="translate(0 0)"><path class="a" d="M296.4,158.7c0,.807.115,1.73.115,2.768s.115,2.191.231,3.344c.231,2.422.346,5.074.692,7.612-.346-1.961-.461-4.036-.692-6.343a34.927,34.927,0,0,1-.231-3.575C296.515,161.468,296.515,160.2,296.4,158.7Z" transform="translate(-290.403 14.885)"/><path class="a" d="M296.4,170.8Z" transform="translate(-289.365 16.739)"/><path class="a" d="M302.4,152.582c0-1.384.115-2.883.115-4.382C302.515,149.7,302.4,151.2,302.4,152.582Z" transform="translate(-302.4 13.275)"/><path class="a" d="M189.011,341.153l.807.115c1.5-.115,2.768-.231,3.69-.346s1.615-.231,2.191-.346a8.56,8.56,0,0,0,1.845-.346c.346-.115.692-.115,1.73-.346.923-.115,2.537-.346,5.305-.807,1.153-.115,2.883-.346,4.844-.692s4.267-.923,6.574-1.5c2.307-.461,4.5-1.269,6.343-1.73,1.845-.577,3.46-.923,4.382-1.269,0,0,.346-.115.807-.231a15.152,15.152,0,0,0,1.73-.577,12.479,12.479,0,0,0,2.307-.923c.461-.115.923-.231,1.615-.461.577-.231,1.384-.461,2.076-.807,1.5-.577,3.345-1.384,4.959-1.961,1.153-.461-.807.346-1.73.807,2.537-.923,4.959-2.076,7.381-3.114,1.384-.692,2.307-1.153,2.422-1.269s-.461.231-2.076.807a171.292,171.292,0,0,0,24.45-14.185c1.269-.923,2.653-1.845,4.036-2.883,1.269-1.038,2.653-2.076,4.036-3.114.692-.577,1.384-1.038,2.076-1.615l2.076-1.73c1.384-1.153,2.768-2.422,4.152-3.575a176.621,176.621,0,0,0,15.685-16.377,164.064,164.064,0,0,0,23.181-36.9,160.994,160.994,0,0,0,9.688-27.448c-.577,2.883-2.537,9.572-3.344,12.109.461-1.384.923-2.653,1.269-3.69.346-1.153.577-2.076.807-2.883.461-1.73.807-3,1.269-4.267.115-1.153.807-4.382,1.615-7.842.346-1.73.692-3.575.923-5.305s.577-3.229.577-4.267l.346-1.73.231-3c1.5-13.147,1.038-14.647,1.153-15.8,0-1.153.231-1.845-.346-13.609-.461-6.8-1.038-11.648-1.615-15.915q-.519-3.114-1.038-5.882c-.231-1.845-.807-3.575-1.153-5.42.231,1.038,1.038,3.921.231.577-.115-.231-.577-2.537-1.153-4.959-.692-2.422-1.384-4.959-1.615-5.651a10.716,10.716,0,0,0-.461-1.5c-.231-.577-.461-1.269-.692-1.961-.461-1.384-.923-2.883-1.384-4.152s-.807-2.422-1.038-2.883c-.231-.577-.115-.577.231.346-.346-.807-1.5-3.575-2.307-5.42a8.233,8.233,0,0,0-.807-1.73c-.115-.115.115.346.692,1.73-1.269-3.114-2.768-6-3.69-8.188l1.845,3.921c-.577-1.269-1.153-2.537-1.615-3.69-.577-1.153-1.153-2.191-1.615-3.229a60.035,60.035,0,0,0-3-5.536c-.923-1.73-1.845-3.229-2.768-4.844-.923-1.5-1.845-3-2.768-4.613l2.307,3.46c-.923-1.384-1.73-2.768-2.653-4.036-.461-.692-.807-1.269-1.153-1.845a19.565,19.565,0,0,0-1.153-1.615c-1.5-2.076-2.768-3.806-3.575-4.844l3.921,5.651a138.708,138.708,0,0,0-16.723-21.336L297.65,66.9A162.192,162.192,0,0,0,264.9,39.225a174.36,174.36,0,0,0-22.95-12.34c-1.73-.807-3.46-1.384-4.959-2.076-1.615-.577-3-1.269-4.267-1.73-2.653-.923-4.728-1.615-6-2.076l4.844,1.5-4.5-1.615c-1.5-.577-3-.923-4.5-1.384,1.038.346,4.267,1.73,5.19,2.076a162.39,162.39,0,0,0-27.794-6.343c-1.615-.231-3.229-.461-4.959-.692s-3.46-.346-5.19-.461-3.575-.346-5.42-.346-3.69-.115-5.536-.115A156.678,156.678,0,0,0,155.8,15.006c-3.921.346-7.727,1.269-11.533,1.845-1.845.461-3.806.807-5.651,1.269l-2.768.692a17.825,17.825,0,0,0-2.653.807,172.789,172.789,0,0,0-19.836,6.8A164.644,164.644,0,0,0,88.906,39.341c-6.343,4.152-1.038.923-.923.923-.923.577-1.73,1.153-2.422,1.5-.577.461-1.153.692-1.5,1.038a14.546,14.546,0,0,0-1.5,1.038c-.692.461-1.269.807-4.382,3.114-1.615,1.384.346-.231,1.384-.807-2.768,2.076-5.19,4.036-5.42,4.152,3.345-2.653,1.73-1.73,3.114-3l-3.921,3.114C71.953,51.45,70.8,52.6,69.531,53.641l.461-.231c-.807.692-1.961,1.615-3.806,3.114-.923.807-1.961,1.73-3.229,3-.692.577-1.384,1.269-2.076,1.961-.692.807-1.5,1.615-2.307,2.422a165.109,165.109,0,0,0-29.409,42.21c.231-.231,1.845-3.345,3.46-6.458-1.038,1.961-2.653,5.074-3.46,6.92.923-1.845,0-.346-.807,1.384s-1.615,3.46-.923,2.076c-.692,1.384-1.384,2.768-2.076,4.267-.577,1.5-1.269,3.114-1.845,4.613-.346.807-.577,1.615-.923,2.422-.231.807-.577,1.615-.807,2.422-.577,1.615-1.153,3.229-1.615,4.959-.461,1.615-.923,3.345-1.384,4.959s-.923,3.229-1.269,4.728c-.692,3.114-1.5,6.112-1.961,8.765-.115.231-.692,1.73-1.615,3.806l-.692,1.73c-.231.577-.461,1.269-.692,1.961-.461,1.269-.923,2.768-1.384,4.152l-.692,2.076a13.94,13.94,0,0,0-.577,2.076c-.346,1.269-.807,2.537-1.038,3.575-.346,1.038-.577,1.961-.807,2.537s-.346.923-.346.923c-.115,3.46-.115,6.92-.115,7.958v-4.613c0-1.153,0-2.307.115-3.575a26.529,26.529,0,0,1,.231-3.229l.231-.577c.692-8.3-.115-1.961.923-10.034a32.65,32.65,0,0,0-.692,4.152c-.231,2.653-.577,6.112-.807,9.457.231-3,.461-6,.577-8.534a57.1,57.1,0,0,1,.807-5.766c.115-1.384.231-2.076.231-2.307v-.692c0-.461.231-1.269.461-3,.807-4.728,2.307-10.956,3.691-16.261v.115a86.96,86.96,0,0,1,2.653-8.65c.923-2.653,1.73-4.959,2.653-7.266,1.845-4.613,3.806-9.111,6.458-14.647l-.692,1.153c.461-.923,1.038-2.191,1.73-3.575a44.46,44.46,0,0,1,2.422-4.5c.923-1.615,1.845-3.229,2.883-4.959.923-1.73,2.076-3.344,3.114-5.074-1.153,1.845-2.191,3.575.461-.346l1.73-2.768c.577-.807,1.153-1.73,1.73-2.422,1.153-1.615,2.191-3.114,3.229-4.5s2.076-2.653,3.114-3.921c.461-.692,1.038-1.269,1.5-1.961.577-.577,1.038-1.269,1.615-1.845,1.384-1.5,2.768-3.114,4.267-4.613,1.384-1.384,3-3.114,4.728-4.959C58.806,56.409,61,54.333,63.3,52.142c1.269-1.038,2.537-2.191,3.806-3.345.692-.577,1.384-1.153,1.961-1.73.692-.577,1.384-1.153,2.191-1.73,1.5-1.153,3-2.307,4.5-3.575,1.615-1.153,3.229-2.307,4.959-3.46a166.838,166.838,0,0,1,22.95-13.378,169.986,169.986,0,0,1,26.871-10.149,161.83,161.83,0,0,1,28.14-5.536A190.107,190.107,0,0,1,185.2,8.317,170.409,170.409,0,0,1,222.686,14.2l-1.153-.346c1.384.461,2.883.807,4.5,1.269.807.231,1.5.461,2.307.692s1.615.577,2.307.807c1.615.577,3.229,1.153,4.844,1.615,1.615.577,3.345,1.269,5.074,1.961,3.46,1.269,6.92,3,10.495,4.613,1.73.923,3.575,1.845,5.42,2.768l2.768,1.384c.923.461,1.845,1.038,2.653,1.5,3.69,1.961,7.266,4.382,10.956,6.689,1.73,1.269,3.575,2.537,5.42,3.806a22.513,22.513,0,0,1,2.653,1.961c.923.692,1.73,1.384,2.653,2.076,6.228,5.651,13.032,11.879,19.26,18.683a169.5,169.5,0,0,1,29.178,44.747c1.845,3.806,3.229,7.727,4.728,11.417,1.269,3.806,2.653,7.5,3.575,11.071.461,1.845,1.038,3.575,1.5,5.305.346,1.73.807,3.46,1.153,5.19.231.807.346,1.615.577,2.537.115.807.346,1.615.461,2.422.231,1.615.577,3.229.807,4.728a175.2,175.2,0,0,1,2.307,26.064c-.115-4.382-.231-2.883-.115.577-.115,6.112-.115,9.226-.346,10.841a7.241,7.241,0,0,1-.231,2.076c0,.231-.115.461-.231,2.191s-.577,4.844-1.269,10.956a182.588,182.588,0,0,1-8.419,32.522,197.2,197.2,0,0,1-9.457,21.22,181.019,181.019,0,0,1-13.378,21.22,185.477,185.477,0,0,1-16.146,18.914c-1.384,1.384-2.883,2.768-4.267,4.152-.692.692-1.384,1.384-2.076,1.961-.692.692-1.5,1.269-2.191,1.845-1.5,1.269-2.883,2.537-4.267,3.691-1.5,1.153-2.883,2.307-4.267,3.344-1.384,1.153-2.768,2.076-4.152,3.114-1.384.923-2.653,1.961-3.921,2.883-2.653,1.73-5.074,3.344-7.381,4.728s-4.5,2.537-6.343,3.69c-1.961,1.038-3.575,1.845-4.959,2.653-.807.346-1.5.807-2.307,1.153l-2.422,1.038c-1.615.692-3.229,1.5-4.959,2.191l-5.19,2.076c-.923.346-1.73.692-2.653,1.038s-1.73.577-2.653.923c-1.73.577-3.575,1.153-5.305,1.845-1.845.461-3.575,1.038-5.305,1.5-.923.231-1.73.461-2.653.692a25.954,25.954,0,0,1-2.537.577c-1.73.346-3.345.807-4.959,1.153l1.269-.231a187.1,187.1,0,0,1-20.759,3.229,171.925,171.925,0,0,1-33.56-.115,169.875,169.875,0,0,1-33.33-6.92c-2.422-.807-4.613-1.615-6.8-2.307-2.076-.807-4.036-1.615-5.766-2.307-.923-.346-1.73-.692-2.537-1.038s-1.5-.692-2.191-1.038c-1.384-.577-2.537-1.153-3.46-1.615l2.076.923c-1.615-.807-3-1.384-4.267-1.961-1.153-.577-2.191-1.153-3.114-1.615-1.73-.923-3.114-1.5-4.267-2.191s-2.307-1.269-3.69-2.076q-1.038-.519-2.422-1.384c-.923-.577-1.961-1.153-3.114-1.961.692.346-1.615-1.269-4.382-3.229-2.768-2.076-6.228-4.5-8.073-6l.115.115c-1.384-1.153-3.229-2.537-5.305-4.267-1.038-.923-2.076-1.845-3.229-2.768-1.153-1.038-2.307-1.961-3.46-3.114-2.307-2.191-4.728-4.5-6.92-6.92-1.153-1.153-2.191-2.307-3.344-3.46-1.038-1.153-1.961-2.307-3-3.46l.231.461c-.807-.923-1.615-1.961-2.537-3.114s-1.845-2.307-2.768-3.575c-1.961-2.537-3.921-5.305-5.882-8.073-1.038-1.384-1.845-2.768-2.653-4.036-.807-1.384-1.73-2.653-2.422-3.806-1.5-2.422-2.653-4.613-3.575-6.112a180.8,180.8,0,0,1-11.994-26.41,165.465,165.465,0,0,1-7.727-32.176c-.346-2.307-.692-4.613-1.038-6.8l-.692-6.92c0-.692-.115-1.384-.115-2.076,0,0,.923-5.651,2.076-7.612.577-1.038,1.269-1.153,1.845.692a19.882,19.882,0,0,1,.807,4.382c.115,1.038.231,2.191.346,3.575.231,1.384.346,2.883.577,4.613l.115-.461c.115,1.845.231,3.575.461,5.42.461,3.229.692,5.536.923,7.035s.346,2.076.346,1.845l-.346-2.191-.231-2.191L14.4,196.3c.807,6.458.346,1.961.115-.577.346,2.653.692,5.305,1.038,7.5.115.692,0,.461-.115-.115a8.963,8.963,0,0,1-.231-1.845c.115,1.73.577,3.806.923,6,.231,1.038.346,2.191.577,3.344s.461,2.191.692,3.229a34.989,34.989,0,0,0,.923,3.575c.115.231.115.577,1.269,4.382a163.977,163.977,0,0,0,71.965,95.491c.807.461-.115-.115-1.153-.807a161.249,161.249,0,0,0,31.369,15.454c3,.923,3.806,1.153,4.728,1.384-.231-.115.577.231,2.076.692s3.806,1.153,6.574,1.961a44.888,44.888,0,0,0,4.613,1.153c1.615.346,3.344.807,5.19,1.153,3.69.577,7.612,1.5,11.533,1.845,3.921.577,8.073.807,11.763,1.153,1.845.115,3.806.115,5.536.231,1.73,0,3.46.115,4.959.115,3.114-.115,5.651-.115,7.612-.231C187.857,341.269,188.9,341.153,189.011,341.153Z" transform="matrix(-0.174, 0.985, -0.985, -0.174, 376.37, 25.979)"/></g></g></g></svg>