<svg xmlns="http://www.w3.org/2000/svg" viewBox="0 0 158 38.25">
  <title>Bochum</title>
  <path d="M1,36.51H29.35V34.34H1ZM5.89,18.4l9.29,4.27,9.29-4.27V.93L15.18,5.2,5.89.93Zm9.29,7.21L3.44,20.21V4.61L1,3.48V22l14.18,6.51L29.35,22V3.49L26.91,4.61v15.6ZM94.8,18.37l.75,3.24a15.17,15.17,0,0,1-5,.79c-5.81,0-9.8-4-9.8-9s3.92-9.11,9.8-9.11a15.12,15.12,0,0,1,5.12.81l-.86,3.3A13.69,13.69,0,0,0,91,7.77c-4.31,0-6.38,2.36-6.38,5.59s2.07,5.52,6.38,5.52a12,12,0,0,0,3.76-.51M122.6,4.62v10c0,2.53,1.44,4.26,4,4.26s4-1.74,4-4.26V4.62h3.85V14.78c0,4-2.74,7.54-7.82,7.54s-7.82-3.49-7.82-7.54V4.62ZM142,11.48V22h-3.7V4.62H142l5.31,9.15,5.32-9.15h3.71V22h-3.71V11.48l-4.36,7.38h-1.93ZM54.36,12.89A4,4,0,0,1,57.14,17a4.82,4.82,0,0,1-4.63,5,3.38,3.38,0,0,1-.45,0h-11V4.62H51.22c3.31,0,5.36,1.83,5.36,4.51a3.73,3.73,0,0,1-2.21,3.76M50.05,7.83H45v3.81h5c1.7,0,2.39-.73,2.39-1.91S51.61,7.82,50,7.82m.64,7H45v4h5.7c1.59,0,2.33-.82,2.33-2s-.74-2-2.33-2M68.81,4.25a9.08,9.08,0,1,1-9.08,9.09,9.09,9.09,0,0,1,9.08-9.09m0,14.65a5.34,5.34,0,0,0,5.28-5.4v-.16a5.28,5.28,0,0,0-10.55-.46,3.53,3.53,0,0,0,0,.46,5.33,5.33,0,0,0,5.09,5.56h.19M99.57,4.62h3.85v6.9H111V4.62h3.89V22H111V15h-7.58v7H99.57Z" fill="#fff"/>
</svg>
