<?xml version="1.0" encoding="UTF-8"?> <svg xmlns="http://www.w3.org/2000/svg" viewBox="0 0 1200 317.74"><defs><style>.cls-1{fill:#3fa4ca;}</style></defs><g id="Ebene_2" data-name="Ebene 2"><g id="Ebene_1-2" data-name="Ebene 1"><path class="cls-1" d="M313.05,90.65l-17.83,61.59h36.51l-18-61.59ZM705.77,0H37.82A37.93,37.93,0,0,0,0,37.83V223.37a37.93,37.93,0,0,0,37.82,37.82H455.94V44.34h39.85v273.4l60.45-56.55H705.77a37.93,37.93,0,0,0,37.82-37.82V37.83A37.93,37.93,0,0,0,705.77,0ZM181.94,103.19H143.05q-.78-16.77-7.5-24.93T112.8,70.11Q99.26,70.11,91.43,81c-5.2,7.31-7.79,16.82-7.79,28.64v36.18q0,17.85,8.52,28.84c5.64,7.3,13.47,11,23.39,11,9.6,0,16.41-2.54,20.41-7.67s6.33-13.26,6.85-24.48H181.7l.24.73Q180.78,184.5,164,200.43t-48.48,16q-31.93,0-51.9-19.6t-20-50.95V109.93q0-31.23,19.2-50.86t49.93-19.69q32.61,0,49.89,16.42t19.48,46.66ZM350.4,216.41,340.6,183H286.35l-9.68,33.44H236.5L292,44.35h42.91l55.66,172.06Zm331-11q-17.67,12.84-46.87,12.83t-50.7-14.72q-21.36-14.72-20.77-42.35l.24-.73H602.2q0,14.9,8,21.3t24.33,6.37q12.41,0,18.51-5a16,16,0,0,0,6.08-13c0-6.09-2-10.77-6-14.08s-11.22-6.82-21.62-10.53q-32.61-10.28-48.32-22c-10.49-7.87-15.73-19.17-15.73-34q0-21.6,18.76-35t47.55-13.35c19,0,34.68,4.92,46.82,14.72s18.07,22.43,17.67,37.88l-.2.68H659.27c0-6.86-2.34-12.42-7-16.7S641.2,71.31,633,71.31q-12,0-18.91,5.33c-4.56,3.54-6.82,7.9-6.82,13.1s2.3,9.08,6.9,12.1,13.27,6.85,25.93,11.41q29.28,8.77,44.13,21.51t14.84,35.12Q699.08,192.58,681.42,205.37Zm312.74-132h15.41l3,8.79h9.34l-16-42.65h-8.14L981.89,82.18h9.34Zm7.68-23.08,5.36,16H996.54Zm83.86,32.45q7.48,0,12.08-4A15.12,15.12,0,0,0,1102.86,68h-8.79q-.28,3.9-2.3,5.76c-1.33,1.24-3.36,1.86-6.07,1.86-3,0-5.21-1.07-6.61-3.19S1077,66.9,1077,62.29V59.07q.06-6.62,2.24-9.77a7.45,7.45,0,0,1,6.57-3.15c2.7,0,4.7.62,6,1.86s2.09,3.24,2.3,6h8.79q-.7-7.14-5.22-11.1T1085.81,39a17.37,17.37,0,0,0-9.36,2.5,16.32,16.32,0,0,0-6.19,7.19,25.52,25.52,0,0,0-2.17,10.84v2.61q0,9.63,4.7,15.15T1085.7,82.76Zm34.71-18.86h17.13V82.18h8.79V39.53h-8.79V56.81h-17.13V39.53h-8.79V82.18h8.79Zm-82.72,2.67h7l8,15.61h9.43v-.41l-9.22-17.43a12.91,12.91,0,0,0,5.72-4.64,13.11,13.11,0,0,0,1.89-7.28q0-6.15-4.1-9.52t-11.66-3.37h-15.84V82.18h8.78Zm0-19.92h7.06c2.36,0,4.12.58,5.26,1.73a6.44,6.44,0,0,1,1.71,4.74,6,6,0,0,1-1.81,4.65,7.27,7.27,0,0,1-5.13,1.68h-7.09ZM899.52,75.12h-19.8V63.7h16.87V56.81H879.72V46.65h19.74V39.53H870.93V82.18h28.59Zm28.3-.57a8.19,8.19,0,0,1-4.89,1.27q-8.43,0-8.43-7.06h-8.82A12.69,12.69,0,0,0,907.8,76,14.23,14.23,0,0,0,914,81a21.76,21.76,0,0,0,9,1.8q7.1,0,11.28-3.15a10.25,10.25,0,0,0,4.19-8.68A11.13,11.13,0,0,0,935,62.61c-2.28-2.22-5.93-4.09-10.92-5.59a23.41,23.41,0,0,1-6.17-2.64,4.08,4.08,0,0,1-2.09-3.48,4.3,4.3,0,0,1,1.78-3.59,8.09,8.09,0,0,1,5-1.36,7.63,7.63,0,0,1,5.19,1.62,5.81,5.81,0,0,1,1.84,4.56h8.79a12.25,12.25,0,0,0-2-6.86,13,13,0,0,0-5.55-4.67A19.21,19.21,0,0,0,922.73,39a21.16,21.16,0,0,0-8.19,1.52A12.72,12.72,0,0,0,909,44.7a10.32,10.32,0,0,0-2,6.17q0,6.65,7.26,10.57a44.92,44.92,0,0,0,7.24,2.92,22.83,22.83,0,0,1,6.32,2.81A4.51,4.51,0,0,1,929.58,71,4.16,4.16,0,0,1,927.82,74.55Zm-89.2,59.33h16.87v-7.09H838.62v-11h19v-7.12H829.83V151.3h8.79ZM986.73,151.3V115.78H999.8v-7.12H965.06v7.12H978V151.3Zm74.89-18.48h16.87v-6.88h-16.87V115.78h19.74v-7.12h-28.52V151.3h28.58v-7.06h-19.8Zm-19.57,18.48V108.66h-8.78v17.28h-17.14V108.66h-8.78V151.3h8.78V133h17.14V151.3Zm0,26.49h-8.79v42.64h27.45v-7.06h-18.66Zm-55,0H952.33v7.11h12.88v35.53H974V184.9h13.06Zm15.07,0-15.87,42.64h9.34l2.93-8.79h15.41l2.95,8.79h9.35l-16-42.64Zm-1.23,26.74,5.3-16,5.36,16Zm97.46-26.74-15.87,42.64h9.34l2.93-8.79h15.4l3,8.79h9.35l-16-42.64Zm-1.23,26.74,5.3-16,5.36,16Zm83.07,8.84V202h16.87v-6.88H1180.2V184.9h19.74v-7.11h-28.53v42.64H1200v-7.06Zm-42.45-25.71a7.78,7.78,0,0,1,6.82-3.37,8.26,8.26,0,0,1,5.52,1.7,8.54,8.54,0,0,1,2.6,5.36h8.55q-.79-6.91-5.07-10.53t-11.86-3.62a17.87,17.87,0,0,0-9.5,2.48,15.87,15.87,0,0,0-6.21,7.14,26.17,26.17,0,0,0-2.16,11.06v2.9a24.69,24.69,0,0,0,2.33,10.8,16.15,16.15,0,0,0,6.44,7,19.08,19.08,0,0,0,9.72,2.42,28.18,28.18,0,0,0,9.6-1.57,15.16,15.16,0,0,0,6.71-4.41V198h-16.78v6.48h8v7.35c-1.4,1.41-3.76,2.11-7.06,2.11a8.69,8.69,0,0,1-7.46-3.43q-2.55-3.42-2.55-10.13v-2.73Q1135.41,191,1137.75,187.66Zm-202,32.77h8.79V177.79h-8.79Zm-63.81,0h8.78V177.79h-8.78ZM897.61,142a25.78,25.78,0,0,0,2.22-11V129a25.57,25.57,0,0,0-2.27-11,16.85,16.85,0,0,0-6.41-7.35,18.75,18.75,0,0,0-18.95,0,16.87,16.87,0,0,0-6.42,7.35,25.61,25.61,0,0,0-2.27,11.08v2.11a24.9,24.9,0,0,0,2.32,10.88,16.89,16.89,0,0,0,6.44,7.28,18.8,18.8,0,0,0,19,0A16.8,16.8,0,0,0,897.61,142Zm-6.68-10.9q0,6.66-2.41,10.12a7.72,7.72,0,0,1-6.79,3.48,7.81,7.81,0,0,1-6.91-3.61q-2.4-3.6-2.4-10.13v-2.08q0-6.65,2.43-10.09a8.48,8.48,0,0,1,13.67,0q2.41,3.5,2.41,10.19ZM859.54,59.7a13.11,13.11,0,0,0,1.89-7.28q0-6.15-4.1-9.52t-11.66-3.37H829.83V82.18h8.79V66.57h7l8,15.61H863v-.41l-9.22-17.43A12.91,12.91,0,0,0,859.54,59.7Zm-8.71-1.93a7.27,7.27,0,0,1-5.13,1.68h-7.08V46.65h7q3.55,0,5.26,1.73a6.44,6.44,0,0,1,1.72,4.74A6,6,0,0,1,850.83,57.77ZM901.7,187.66a7.78,7.78,0,0,1,6.82-3.37A8.28,8.28,0,0,1,914,186a8.54,8.54,0,0,1,2.6,5.36h8.55q-.8-6.91-5.07-10.53t-11.86-3.62a17.93,17.93,0,0,0-9.51,2.48,15.91,15.91,0,0,0-6.2,7.14,26.17,26.17,0,0,0-2.16,11.06v2.9a24.69,24.69,0,0,0,2.33,10.8,16.15,16.15,0,0,0,6.44,7,19.08,19.08,0,0,0,9.72,2.42,28.18,28.18,0,0,0,9.6-1.57,15.16,15.16,0,0,0,6.71-4.41V198H908.41v6.48h8v7.35c-1.4,1.41-3.76,2.11-7.06,2.11a8.69,8.69,0,0,1-7.46-3.43q-2.55-3.42-2.55-10.13v-2.73Q899.36,191,901.7,187.66ZM976,75.12h-19.8V63.7H973.1V56.81H956.23V46.65H976V39.53H947.44V82.18H976ZM853,180.32A19.91,19.91,0,0,0,843,177.79H829.83v42.64H843a20.05,20.05,0,0,0,10-2.58,17.53,17.53,0,0,0,6.9-7.17,22.3,22.3,0,0,0,2.45-10.57v-2a22.19,22.19,0,0,0-2.49-10.61A17.65,17.65,0,0,0,853,180.32Zm.51,20.05q-.06,6.27-2.78,9.64t-7.88,3.36h-4.24V184.9H843c3.46,0,6.08,1.12,7.88,3.36s2.69,5.52,2.69,9.85Zm88.77-49.48-9.22-17.42a12.93,12.93,0,0,0,5.72-4.64,13.14,13.14,0,0,0,1.89-7.28q0-6.15-4.1-9.52t-11.65-3.37H909.08V151.3h8.79V135.69h7l8,15.61h9.43Zm-12.21-24a7.23,7.23,0,0,1-5.13,1.68h-7.08V115.78h7.06c2.36,0,4.11.57,5.25,1.73a6.4,6.4,0,0,1,1.72,4.74A6,6,0,0,1,930.08,126.89Z"></path></g></g></svg> 