<?xml version="1.0" encoding="utf-8"?>
<!-- Generator: Adobe Illustrator 19.2.1, SVG Export Plug-In . SVG Version: 6.00 Build 0)  -->
<svg version="1.1" id="_x2026_typo_x5F_offen_x2026_"
	 xmlns="http://www.w3.org/2000/svg" xmlns:xlink="http://www.w3.org/1999/xlink" x="0px" y="0px" viewBox="0 0 414.3 139.1"
	 style="enable-background:new 0 0 414.3 139.1;" xml:space="preserve">
<style type="text/css">
	.st0{fill:#FFFFFF;}
	.st1{fill:#E4B9A0;}
	.st2{fill:#D3778F;}
	.st3{fill:#CC5761;}
	.st4{fill:#F7EAA5;}
	.st5{fill:#DFA968;}
	.st6{fill:#CA5144;}
	.st7{fill:#425588;}
	.st8{fill:#4A3466;}
	.st9{fill:#452D48;}
	.st10{fill:#303344;}
	.st11{fill:#4A5A63;}
	.st12{fill:#545153;}
	.st13{fill:#4C333B;}
	.st14{fill:#48AABC;}
	.st15{fill:#4D9F7F;}
	.st16{fill:#235272;}
	.st17{fill:#31385A;}
	.st18{fill:#39414D;}
	.st19{fill:#333639;}
</style>
<g>
	<path class="st0" d="M173.1,33.4L173.1,33.4c0-6,4.5-10.9,11-10.9c4,0,6.3,1.3,8.3,3.2l-2.9,3.4c-1.6-1.5-3.3-2.4-5.4-2.4
		c-3.5,0-6.1,2.9-6.1,6.6v0.1c0,3.6,2.5,6.6,6.1,6.6c2.4,0,3.9-1,5.5-2.5l2.9,3c-2.2,2.3-4.6,3.8-8.6,3.8
		C177.7,44.3,173.1,39.5,173.1,33.4z"/>
	<path class="st0" d="M197.1,33.4L197.1,33.4c0-6,4.7-10.9,11.2-10.9s11.2,4.8,11.2,10.8v0.1c0,6-4.7,10.9-11.2,10.9
		S197.1,39.4,197.1,33.4z M214.6,33.4L214.6,33.4c0-3.7-2.6-6.7-6.4-6.7c-3.7,0-6.3,2.9-6.3,6.6v0.1c0,3.6,2.6,6.6,6.4,6.6
		S214.6,37,214.6,33.4z"/>
	<path class="st0" d="M224.8,22.8h5l5.5,8.9l5.5-8.9h5v21.1h-4.6V30.2l-5.9,9h-0.1l-5.9-8.9V44h-4.5V22.8z"/>
	<path class="st0" d="M253.7,22.8h15.9v4.1h-11.3v4.3h9.9v4.1h-9.9v4.4h11.4v4.1h-16V22.8z"/>
	<path class="st0" d="M276.9,22.8h4.3l9.9,13v-13h4.6v21.1h-4.1l-10.2-13.4v13.4h-4.6V22.8H276.9z"/>
	<path class="st0" d="M303.6,22.8h4.6v21.1h-4.6V22.8z"/>
	<path class="st0" d="M316,34.9v-12h4.6v11.9c0,3.4,1.7,5.2,4.5,5.2s4.5-1.7,4.5-5.1V22.8h4.6v11.9c0,6.4-3.6,9.5-9.2,9.5
		C319.5,44.2,316,41.1,316,34.9z"/>
	<path class="st0" d="M340.3,40.8l2.7-3.3c1.9,1.6,3.9,2.6,6.3,2.6c1.9,0,3-0.8,3-2V38c0-1.2-0.7-1.8-4.2-2.7c-4.2-1.1-7-2.3-7-6.4
		v-0.1c0-3.8,3.1-6.3,7.4-6.3c3.1,0,5.7,1,7.8,2.7l-2.4,3.5c-1.9-1.3-3.7-2.1-5.5-2.1s-2.7,0.8-2.7,1.8v0.1c0,1.4,0.9,1.8,4.5,2.8
		c4.3,1.1,6.7,2.6,6.7,6.3v0.1c0,4.2-3.2,6.5-7.7,6.5C346.1,44.2,342.8,43.1,340.3,40.8z"/>
	<path class="st0" d="M173.6,72.3L173.6,72.3c0-5.6,4-10.7,10.1-10.7c3.3,0,5.5,1,7.5,2.7l-1,1.1c-1.6-1.4-3.5-2.5-6.6-2.5
		c-5,0-8.5,4.2-8.5,9.2v0.1c0,5.3,3.3,9.3,8.8,9.3c2.6,0,5-1.1,6.5-2.3v-5.9v-1.4h1.5v7.9c-1.8,1.6-4.7,3.1-8.1,3.1
		C177.5,82.8,173.6,78.1,173.6,72.3z"/>
	<path class="st0" d="M205,74.4L196.2,62h1.9l7.7,11l7.7-11h1.8l-8.8,12.4v8.1H205L205,74.4L205,74.4z"/>
	<path class="st0" d="M221.4,62h1.4l8.2,12.1l8.2-12.1h1.4v20.5h-1.5V64.7L231,76.5h-0.1l-8.1-11.8v17.8h-1.5L221.4,62L221.4,62z"/>
	<path class="st0" d="M251,62h1.4l14.2,17.9V62h1.5v20.5H267l-14.5-18.2v18.2H251V62z"/>
	<path class="st0" d="M284,61.8h1.5l9.6,20.7h-1.7l-2.6-5.7h-12.2l-2.6,5.7h-1.6L284,61.8z M290.1,75.4l-5.4-11.9l-5.4,11.9H290.1z"
		/>
	<path class="st0" d="M301.1,79.5l1-1.1c2.3,2.1,4.3,3,7.4,3s5.2-1.7,5.2-4.1v-0.1c0-2.2-1.1-3.4-5.8-4.4c-4.9-1-6.9-2.7-6.9-5.8
		v-0.1c0-3,2.8-5.4,6.6-5.4c3,0,5,0.8,7,2.5l-1,1.2c-1.9-1.7-3.9-2.3-6.1-2.3c-3,0-5,1.7-5,3.9v0.1c0,2.2,1.1,3.5,6,4.5
		c4.7,1,6.7,2.7,6.7,5.7v0.1c0,3.3-2.8,5.6-6.8,5.6C306.1,82.8,303.6,81.7,301.1,79.5z"/>
	<path class="st0" d="M324.5,62h1.5v20.5h-1.5V62z"/>
	<path class="st0" d="M335.3,74V62h1.5v11.8c0,4.8,2.6,7.6,6.9,7.6c4.2,0,6.8-2.5,6.8-7.5v-12h1.5v11.8c0,5.9-3.4,9-8.4,9
		C338.8,82.8,335.3,79.7,335.3,74z"/>
	<path class="st0" d="M361.4,62h1.4l8.2,12.1l8.2-12.1h1.4v20.5h-1.5V64.7L371,76.5h-0.1l-8.1-11.8v17.8h-1.5V62H361.4z"/>
	<path class="st0" d="M174.5,100.6h6.8c6.4,0,10.9,4.4,10.9,10.2v0.1c0,5.8-4.5,10.3-10.9,10.3h-6.8V100.6z M181.4,119.7
		c5.7,0,9.3-3.9,9.3-8.8v-0.1c0-4.9-3.6-8.9-9.3-8.9h-5.3v17.7h5.3V119.7z"/>
	<path class="st0" d="M200.4,100.6H215v1.4h-13.1v8.1h11.7v1.4h-11.8v8.2H215v1.4h-14.7v-20.5L200.4,100.6L200.4,100.6z"/>
	<path class="st0" d="M221.2,110.9L221.2,110.9c0-5.6,4-10.7,10.1-10.7c3.3,0,5.5,1,7.5,2.7l-1,1.1c-1.6-1.4-3.5-2.5-6.6-2.5
		c-5,0-8.5,4.2-8.5,9.2v0.1c0,5.3,3.3,9.3,8.8,9.3c2.6,0,5-1.1,6.5-2.3v-5.9v-1.4h1.5v7.9c-1.8,1.6-4.7,3.1-8.1,3.1
		C225.1,121.4,221.2,116.7,221.2,110.9z"/>
	<path class="st0" d="M246.9,110.9L246.9,110.9c0-5.6,4-10.7,10.1-10.7c3.3,0,5.5,1,7.5,2.7l-1,1.1c-1.6-1.4-3.5-2.5-6.6-2.5
		c-5,0-8.5,4.2-8.5,9.2v0.1c0,5.3,3.3,9.3,8.8,9.3c2.6,0,5-1.1,6.5-2.3v-5.9v-1.4h1.5v7.9c-1.8,1.6-4.7,3.1-8.1,3.1
		C250.8,121.4,246.9,116.7,246.9,110.9z"/>
	<path class="st0" d="M273.9,100.6h14.6v1.4h-13.1v8.1h11.8v1.4h-11.8v8.2h13.2v1.4h-14.7V100.6z"/>
	<path class="st0" d="M296,100.6h1.4l14.2,17.9v-17.9h1.5v20.5H312l-14.5-18.2v18.2H296V100.6z"/>
	<path class="st0" d="M322.2,100.6h6.8c6.4,0,10.9,4.4,10.9,10.2v0.1c0,5.8-4.5,10.3-10.9,10.3h-6.8V100.6z M329.1,119.7
		c5.7,0,9.3-3.9,9.3-8.8v-0.1c0-4.9-3.6-8.9-9.3-8.9h-5.3v17.7h5.3V119.7z"/>
	<path class="st0" d="M347,110.9L347,110.9c0-5.7,4.1-10.7,10.3-10.7c6.2,0,10.3,5,10.3,10.6c0,0,0,0,0,0.1
		c0,5.6-4.1,10.6-10.3,10.6C351.1,121.4,347,116.5,347,110.9z M366.1,110.9L366.1,110.9c0-5.1-3.7-9.3-8.8-9.3s-8.7,4.1-8.7,9.2v0.1
		c0,5.1,3.7,9.2,8.8,9.2C362.4,120.1,366.1,116,366.1,110.9z"/>
	<path class="st0" d="M375.7,100.6h8.6c2.5,0,4.5,0.8,5.8,2c1,1,1.6,2.3,1.6,3.8v0.1c0,3.4-2.6,5.4-6,5.9l6.8,8.8h-1.9l-6.5-8.5H384
		h-6.7v8.5h-1.5L375.7,100.6L375.7,100.6z M384.2,111.2c3.4,0,6-1.7,6-4.7v-0.1c0-2.8-2.2-4.5-5.9-4.5h-7v9.2h6.9V111.2z"/>
	<path class="st0" d="M399.8,100.6h14.5v1.4h-12.9v8.4H413v1.4h-11.6v9.3h-1.5v-20.5L399.8,100.6L399.8,100.6z"/>
	<path class="st1" d="M113,112.5c-0.7,0.8-1.3,1.6-2,2.4c-6,6.7-12.5,12.1-19.3,16.1c18.6-0.4,35.7-8.6,41.9-27.4
		c2.4-7.4,3.5-14.4,3.6-21.1c-3.5,6.6-8.1,13.5-14,20.5C120.1,106.6,116.7,109.8,113,112.5z"/>
	<path class="st2" d="M116.7,17.1c-4.4-1.6-8.9-2.9-13.4-3.8c7.3,6.9,13.4,16.3,17.7,26.7c9.4,10.8,16.2,25.5,16.1,42.5
		C153.2,52.1,144.8,27.2,116.7,17.1z"/>
	<path class="st3" d="M127.1,68.1c0.2,2.4,0.2,4.9-0.1,7.3c-0.4,6.5-1.8,12.8-4.3,18.8c-2,6.5-5.2,12.6-9.7,18.3
		c3.7-2.7,7.1-5.9,10.1-9.5c5.9-7,10.5-13.9,14-20.5c0.1-17.1-6.7-31.7-16.1-42.5C124.6,48.9,126.8,58.5,127.1,68.1z"/>
	<path class="st4" d="M71.1,128.5c-13.2,0-25.9-4.2-35.2-10.2c-4.7-2-9-4.5-12.7-7.6c-2.2-1.8-4.2-3.7-6.1-5.7
		c2.6,6.2,6.3,12.1,11.3,17.6c18.1,19.6,42,20.9,63.2,8.5C84.8,131.1,77.8,130.3,71.1,128.5z"/>
	<path class="st5" d="M111,114.9c0.7-0.8,1.4-1.6,2-2.4c-3.1,2.3-6.5,4.4-10,6.1c-10.1,7-21.2,9.8-31.9,9.9
		c6.7,1.8,13.7,2.7,20.5,2.5C98.5,127,105,121.6,111,114.9z"/>
	<path class="st6" d="M106.2,116.2c-1.1,0.8-2.1,1.6-3.2,2.4c3.5-1.7,6.8-3.7,10-6.1c4.5-5.6,7.7-11.8,9.7-18.3
		C119.4,102.4,114,110,106.2,116.2z"/>
	<path class="st7" d="M103.2,13.3c-6.3-6-13.3-10.2-20.7-11.7C54.9-4.3,39.2,7,27,26.1c8.9-4.7,19.6-8.4,30.7-9.9
		C71.7,10.7,87.4,9.9,103.2,13.3z"/>
	<path class="st8" d="M57.7,16.2c13.7-1.8,28.1-0.3,40.5,6.9c0.7,0.3,1.5,0.6,2.2,1c7.1,3.4,14.4,8.8,20.5,15.9
		c-4.3-10.4-10.4-19.8-17.7-26.7C87.4,9.9,71.7,10.7,57.7,16.2z"/>
	<path class="st9" d="M100.4,24.1c-0.7-0.3-1.5-0.7-2.2-1c11.7,6.8,21.7,18.8,27.5,37.8c0.7,2.4,1.2,4.8,1.4,7.2
		c-0.3-9.6-2.6-19.3-6.2-28.1C114.8,32.9,107.6,27.5,100.4,24.1z"/>
	<path class="st10" d="M122.7,94.2c2.4-6,3.8-12.3,4.3-18.8c-0.3,3.1-1.1,6.3-2.1,9.3C124.4,88,123.7,91.1,122.7,94.2z"/>
	<path class="st11" d="M56.5,123.3c-7.2-0.7-14.2-2.3-20.6-5c9.3,6,21.9,10.3,35.2,10.2c-4.7-1.2-9.2-2.9-13.5-4.9
		C57.2,123.4,56.9,123.4,56.5,123.3z"/>
	<path class="st12" d="M57.6,123.5c4.3,2,8.8,3.7,13.5,4.9c10.7,0,21.8-2.9,31.9-9.9C88.8,125.5,72.3,127.2,57.6,123.5z"/>
	<path class="st2" d="M57.6,123.5c-0.1-0.1-0.3-0.1-0.4-0.2c-0.2,0-0.5,0-0.7-0.1C56.9,123.4,57.2,123.4,57.6,123.5z"/>
	<path class="st4" d="M57.6,123.5c-0.1-0.1-0.3-0.1-0.4-0.2c-0.2,0-0.5,0-0.7-0.1C56.9,123.4,57.2,123.4,57.6,123.5z"/>
	<path class="st7" d="M57.6,123.5c-0.1-0.1-0.3-0.1-0.4-0.2c-0.2,0-0.5,0-0.7-0.1C56.9,123.4,57.2,123.4,57.6,123.5z"/>
	<path class="st13" d="M108.6,108.4c-12.8,11.3-32.7,16.4-51.4,14.9c0.1,0.1,0.3,0.1,0.4,0.2c14.7,3.6,31.2,2,45.4-4.9
		c1.1-0.7,2.1-1.5,3.2-2.4c7.8-6.2,13.2-13.8,16.5-22c1-3.1,1.7-6.3,2.1-9.5C121.9,93.4,116.3,101.7,108.6,108.4z"/>
	<path class="st14" d="M12.9,81.8c-2.3-14.6,0.3-30,6.7-42.7c2.4-4.7,4.8-9,7.4-13.1c-3.5,1.8-6.6,3.8-9.4,5.8
		c-26.2,19.1-20.4,52-0.5,73C14,97.4,12.7,89.6,12.9,81.8z"/>
	<path class="st1" d="M127,75.4c0.3-2.4,0.3-4.9,0.1-7.3C127.2,70.6,127.2,73,127,75.4z"/>
	<path class="st15" d="M35.9,118.2c-1.7-1.1-3.2-2.2-4.7-3.4c-10.5-8.6-16.3-20.5-18.3-33.1c-0.2,7.8,1.1,15.7,4.2,23.2
		c1.9,2,3.9,3.9,6.1,5.7C26.9,113.7,31.3,116.3,35.9,118.2z"/>
	<path class="st16" d="M12.9,81.8c0.3-10.7,3.5-21.4,9.2-31.1c2.1-4.9,5-9.7,8.5-14.3c7.5-9.5,16.8-16.1,27.1-20.2
		c-11.2,1.5-21.9,5.2-30.7,9.9c-2.6,4-5,8.4-7.4,13.1C13.2,51.8,10.6,67.2,12.9,81.8z"/>
	<path class="st17" d="M35.6,33.9c6.9-7.5,15.8-12.1,25.1-14.2c8.9-2.5,18.1-2.6,26.9,0c3.7,0.8,7.3,1.9,10.6,3.4
		c-12.4-7.2-26.8-8.8-40.5-6.9c-10.3,4.1-19.5,10.7-27.1,20.2c-3.6,4.5-6.4,9.3-8.5,14.3c1.4-2.4,2.9-4.7,4.6-6.9
		C29.4,40.1,32.4,36.8,35.6,33.9z"/>
	<path class="st10" d="M98.2,23.1c-3.3-1.4-6.9-2.6-10.6-3.4c4.7,1.4,9.2,3.7,13.5,6.8c17.5,13,26.8,36.2,23.8,58.2
		c1.1-3.1,1.8-6.2,2.1-9.3c0.2-2.4,0.2-4.9,0.1-7.3c-0.2-2.5-0.7-4.9-1.4-7.2C119.9,41.9,110,30,98.2,23.1z"/>
	<path class="st17" d="M35.6,33.9c7.5-6.8,16.1-11.7,25.1-14.2C51.4,21.9,42.6,26.4,35.6,33.9z"/>
	<path class="st18" d="M35.6,112.6c-18.1-15.2-22.9-40-13.4-62C16.5,60.3,13.3,71,13,81.7c2,12.6,7.8,24.5,18.3,33.1
		c1.4,1.2,3,2.3,4.7,3.4c6.4,2.7,13.4,4.4,20.6,5C48.8,121.2,41.6,117.7,35.6,112.6z"/>
	<path class="st17" d="M60.8,19.7c8.9-2,18.2-1.9,26.9,0C78.9,17.1,69.7,17.2,60.8,19.7z"/>
	<path class="st19" d="M101.1,26.6c-4.3-3.2-8.8-5.4-13.5-6.8c-8.6-1.9-18-2.1-26.9,0c-9,2.5-17.7,7.4-25.1,14.2
		c-3.2,2.9-6.2,6.2-8.9,9.8c-1.7,2.2-3.2,4.6-4.6,6.9c-9.4,22-4.7,46.8,13.4,62c6,5,13.2,8.6,20.9,10.6c0.2,0,0.5,0,0.7,0.1
		c18.7,1.5,38.6-3.6,51.4-14.9c7.7-6.7,13.3-15,16.3-23.7C127.9,62.8,118.7,39.6,101.1,26.6z"/>
	<path class="st0" d="M34.6,70.9v-0.2c0-21.1,16-38.5,38.9-38.5c14,0,22.4,4.7,29.4,11.5l-10.4,12c-5.7-5.2-11.6-8.4-19-8.4
		c-12.5,0-21.6,10.4-21.6,23.2v0.2c0,12.8,8.8,23.4,21.6,23.4c8.5,0,13.7-3.4,19.6-8.7l10.4,10.5c-7.7,8.2-16.2,13.3-30.5,13.3
		C50.9,109.2,34.6,92.3,34.6,70.9z"/>
</g>
</svg>
