<?xml version="1.0" encoding="UTF-8"?>
<svg width="100px" height="20px" viewBox="0 0 100 20" version="1.1" xmlns="http://www.w3.org/2000/svg" xmlns:xlink="http://www.w3.org/1999/xlink">
    <!-- Generator: Sketch 49 (51002) - http://www.bohemiancoding.com/sketch -->
    <title>vrmd-brand/logo/echo copy</title>
    <desc>Created with Sketch.</desc>
    <defs>
        <path d="M59.3,8.4 C58.2,8.4 57.8,9.6 57.8,10.7 C57.8,12 58.4,13 59.3,13 C60.2,13 60.8,12.1 60.8,10.7 C60.9,9.4 60.4,8.4 59.3,8.4 Z M62.8,2 L37.3,2 C36,2 35,3.1 35,4.4 L35,14.6 C35,15.9 36,17 37.3,17 L62.8,17 C64,17 65,15.9 65,14.6 L65,4.4 C65,3.1 64,2.1 62.8,2 Z M43.3,14 L38.1,14 L38.1,4.6 L43.2,4.6 L43.2,6.1 L39.7,6.1 L39.7,8.5 L43,8.5 L43,10 L39.7,10 L39.7,12.6 L43.3,12.6 L43.3,14 Z M47.3,12.7 C47.7,12.7 48.1,12.6 48.5,12.4 L48.6,12.4 L48.8,13.8 C48.2,14 47.6,14.1 47,14.1 C45,14.1 43.8,12.7 43.8,10.6 C43.7,9.6 44.1,8.7 44.8,8 C45.5,7.3 46.4,6.9 47.3,7 C47.8,7 48.3,7.1 48.8,7.3 L48.5,8.7 C48.1,8.5 47.7,8.4 47.3,8.4 C46.8,8.4 46.4,8.6 46,8.9 C45.6,9.3 45.4,9.9 45.4,10.5 C45.4,11.9 46.2,12.7 47.3,12.7 Z M55.4,14 L53.7,14 L53.7,10.1 C53.7,9.4 53.5,8.4 52.5,8.4 C51.9,8.4 51.4,8.8 51.3,9.3 C51.3,9.5 51.3,9.7 51.3,9.8 L51.3,14 L49.6,14 L49.6,4.1 L51.3,4.1 L51.3,8.1 C51.5,7.8 51.8,7.5 52.1,7.4 C52.4,7.1 52.8,7 53.2,7 C53.2,7 53.2,7 53.2,7 L53.3,7 C53.3,7 53.3,7 53.3,7 C54.4,7 55.5,7.8 55.5,10 L55.5,14 L55.4,14 Z M59.3,14.2 C58.4,14.2 57.6,13.9 57,13.3 C56.4,12.6 56.1,11.7 56.1,10.7 C56.1,8.5 57.4,7 59.3,7 L59.4,7 C61.3,7 62.5,8.4 62.5,10.5 C62.5,13 60.9,14.2 59.3,14.2 Z" id="path-1"></path>
    </defs>
    <g id="vrmd-brand/logo/echo-copy" stroke="none" stroke-width="1" fill="none" fill-rule="evenodd">
        <mask id="mask-2" fill="white">
            <use xlink:href="#path-1"></use>
        </mask>
        <use id="Mask" fill="#CD1719" fill-rule="nonzero" xlink:href="#path-1"></use>
    </g>
</svg>