<?xml version="1.0" encoding="UTF-8" standalone="no"?>
<!-- Created with Inkscape (http://www.inkscape.org/) -->

<svg
   width="1469"
   height="236"
   id="svg2"
   version="1.1"
   inkscape:version="1.1.1 (3bf5ae0d25, 2021-09-20)"
   sodipodi:docname="logo_nw.svg"
   xmlns:inkscape="http://www.inkscape.org/namespaces/inkscape"
   xmlns:sodipodi="http://sodipodi.sourceforge.net/DTD/sodipodi-0.dtd"
   xmlns="http://www.w3.org/2000/svg"
   xmlns:svg="http://www.w3.org/2000/svg"
   xmlns:rdf="http://www.w3.org/1999/02/22-rdf-syntax-ns#"
   xmlns:cc="http://creativecommons.org/ns#"
   xmlns:dc="http://purl.org/dc/elements/1.1/">
  <defs
     id="defs4" />
  <sodipodi:namedview
     id="base"
     pagecolor="#ffffff"
     bordercolor="#666666"
     borderopacity="1.0"
     inkscape:pageopacity="0.0"
     inkscape:pageshadow="2"
     inkscape:zoom="1"
     inkscape:cx="614.5"
     inkscape:cy="344.5"
     inkscape:document-units="px"
     inkscape:current-layer="layer1"
     showgrid="false"
     inkscape:window-width="3440"
     inkscape:window-height="1417"
     inkscape:window-x="-8"
     inkscape:window-y="-8"
     inkscape:window-maximized="1"
     inkscape:pagecheckerboard="0"
     width="1201px" />
  <metadata
     id="metadata7">
    <rdf:RDF>
      <cc:Work
         rdf:about="">
        <dc:format>image/svg+xml</dc:format>
        <dc:type
           rdf:resource="http://purl.org/dc/dcmitype/StillImage" />
      </cc:Work>
    </rdf:RDF>
  </metadata>
  <g
     inkscape:label="Ebene 1"
     inkscape:groupmode="layer"
     id="layer1"
     transform="translate(0,-492.36218)">
    <g
       id="g3092"
       transform="matrix(1.555754,0,0,1.5471614,-518.56568,458.12516)">
      <circle
         id="circle2986"
         r="75.119003"
         cy="99.119003"
         cx="410.29501"
         style="fill:#ffffff" />
      <circle
         id="circle2988"
         r="75.119003"
         cy="99.119003"
         cx="410.29501"
         style="fill:#ffffff" />
      <path
         id="path2990"
         d="m 340.201,99.389 c 0,-38.714 31.381,-70.097 70.096,-70.097 38.708,0 70.097,31.383 70.097,70.097 0,38.71 -31.389,70.099 -70.097,70.099 -38.715,0 -70.096,-31.389 -70.096,-70.099 z"
         stroke-miterlimit="3.8637"
         inkscape:connector-curvature="0"
         style="fill:#ffffff;stroke:#ffffff;stroke-width:0;stroke-miterlimit:3.8637" />
      <path
         id="path2992"
         d="m 470.359,136.019 c -12.354,20.215 -34.632,33.711 -60.063,33.711 -15.89,0 -30.544,-5.267 -42.321,-14.148 z m -130.4,-36.63 c 0,-38.848 31.489,-70.346 70.338,-70.346 19.592,0 37.316,8.018 50.073,20.948 l -6.519,1.913 -6.537,38.089 -6.099,-34.37 -13.943,4.093 -6.102,37.964 -6.54,-34.243 -16.122,4.735 -8.165,2.417 v 36.178 L 375.957,74.83 359.834,79.59 v 64.078 l 9.152,-2.699 V 99.995 l 16.131,36.216 13.947,-4.113 v -61.28 l 12.084,57.702 12.637,-3.721 6.971,-43.442 6.974,39.35 12.632,-3.721 12.725,-64.079 c 10.923,12.392 17.548,28.667 17.548,46.483 0,5.905 -0.725,11.64 -2.097,17.118 L 362.087,150.614 C 348.461,137.78 339.959,119.577 339.959,99.389 Z"
         clip-rule="evenodd"
         inkscape:connector-curvature="0"
         style="fill:#d20a11;fill-rule:evenodd" />
      <path
         id="path2994"
         d="m 470.359,136.019 c -12.354,20.215 -34.632,33.711 -60.063,33.711 -15.89,0 -30.544,-5.267 -42.321,-14.148 z m -130.4,-36.63 c 0,-38.848 31.489,-70.346 70.338,-70.346 19.592,0 37.316,8.018 50.073,20.948 l -6.519,1.913 -6.537,38.089 -6.099,-34.37 -13.943,4.093 -6.102,37.964 -6.54,-34.243 -16.122,4.735 -8.165,2.417 v 36.178 L 375.957,74.83 359.834,79.59 v 64.078 l 9.152,-2.699 V 99.995 l 16.131,36.216 13.947,-4.113 v -61.28 l 12.084,57.702 12.637,-3.721 6.971,-43.442 6.974,39.35 12.632,-3.721 12.725,-64.079 c 10.923,12.392 17.548,28.667 17.548,46.483 0,5.905 -0.725,11.64 -2.097,17.118 L 362.087,150.614 C 348.461,137.78 339.959,119.577 339.959,99.389 Z"
         stroke-miterlimit="3.8637"
         inkscape:connector-curvature="0"
         style="fill:none;stroke:#e42218;stroke-width:0;stroke-miterlimit:3.8637" />
      <path
         id="path2996"
         d="m 591.8432,155.62415 c 5.792,0 12.859,-1.695 14.837,-2.833 l 0.708,-0.419 v -12.719 l -1.417,1.416 c -1.693,1.688 -7.063,4.661 -11.302,4.661 -11.303,0 -14.84,-7.773 -14.84,-25.437 v -0.708 h 31.793 v -5.65 c 0,-19.079004 -3.954,-34.621004 -22.605,-34.621004 -19.076,0 -26.846,20.491 -26.846,39.563004 10e-4,25.438 10.593,36.747 29.672,36.747 z m -3.533,-67.406004 c 7.769,0 7.063,12.998004 7.063,18.649004 v 4.242 h -15.544 v -0.708 c 10e-4,-10.595004 0.709,-22.183004 8.481,-22.183004 z"
         clip-rule="evenodd"
         inkscape:connector-curvature="0"
         style="fill:#1d1d1b;fill-rule:evenodd" />
      <path
         id="path2998"
         d="m 700.6792,155.62415 c 5.791,0 12.858,-1.695 14.836,-2.833 l 0.704,-0.419 v -12.719 l -1.412,1.416 c -1.697,1.688 -7.063,4.661 -11.303,4.661 -11.306,0 -14.837,-7.773 -14.837,-25.437 v -0.708 h 31.795 v -5.65 c 0,-19.079004 -3.958,-34.621004 -22.609,-34.621004 -19.078,0 -26.85,20.491 -26.85,39.563004 10e-4,25.438 10.598,36.747 29.676,36.747 z m -3.534,-67.406004 c 7.772,0 7.063,12.998004 7.063,18.649004 v 4.242 h -15.541 v -0.708 c 10e-4,-10.595004 0.707,-22.183004 8.478,-22.183004 z"
         clip-rule="evenodd"
         inkscape:connector-curvature="0"
         style="fill:#1d1d1b;fill-rule:evenodd" />
      <path
         id="path3000"
         d="m 847.6322,155.62415 c 5.793,0 12.859,-1.695 14.837,-2.833 l 0.707,-0.419 v -12.719 l -1.411,1.416 c -1.698,1.688 -7.068,4.661 -11.306,4.661 -11.303,0 -14.837,-7.773 -14.837,-25.437 v -0.708 h 31.793 v -5.65 c 0,-19.079004 -3.958,-34.621004 -22.607,-34.621004 -19.078,0 -26.848,20.491 -26.848,39.563004 0,25.438 10.595,36.747 29.672,36.747 z m -3.533,-67.406004 c 7.771,0 7.065,12.998004 7.065,18.649004 v 4.242 h -15.543 v -0.708 c 10e-4,-10.595004 0.706,-22.183004 8.478,-22.183004 z"
         clip-rule="evenodd"
         inkscape:connector-curvature="0"
         style="fill:#1d1d1b;fill-rule:evenodd" />
      <path
         id="path3002"
         d="m 935.3942,155.62415 c 3.533,0 9.324,-1.136 11.303,-2.124 l 1.416,-0.709 v -9.885 l -2.125,1.409 c -1.55,0.987 -3.526,1.415 -4.944,1.415 -3.532,0 -7.768,-1.415 -7.768,-11.307 V 90.613146 h 14.837 v -9.184 h -14.837 v -17.663 h -7.775 l -7.769,17.663 h -7.624 v 9.184 h 6.207 v 45.224004 c 0,13.423 7.067,19.787 19.079,19.787 z"
         inkscape:connector-curvature="0"
         style="fill:#1d1d1b" />
      <path
         id="path3004"
         d="m 1251.6492,155.78515 c 5.791,0 12.853,-1.695 14.837,-2.827 l 0.706,-0.419 v -12.722 l -1.415,1.409 c -1.695,1.697 -7.06,4.665 -11.302,4.665 -11.311,0 -14.837,-7.77 -14.837,-25.439 v -0.7 h 31.795 v -5.657 c 0,-19.072004 -3.957,-34.616004 -22.609,-34.616004 -19.078,0 -26.845,20.488 -26.845,39.568004 0,25.433 10.594,36.738 29.67,36.738 z m -3.535,-67.408004 c 7.77,0 7.068,13.006004 7.068,18.656004 v 4.233 h -15.544 v -0.7 c 0,-10.599004 0.708,-22.189004 8.476,-22.189004 z"
         clip-rule="evenodd"
         inkscape:connector-curvature="0"
         style="fill:#1d1d1b;fill-rule:evenodd" />
      <polygon
         id="polygon3006"
         points="600.327,281.34 600.327,209.271 583.372,209.271 583.372,281.34 "
         clip-rule="evenodd"
         style="fill:#1d1d1b;fill-rule:evenodd"
         transform="translate(477.2362,-127.83985)" />
      <path
         id="path3008"
         d="m 1061.4502,68.406146 c 0,-4.084 3.312,-7.388 7.386,-7.388 4.084,0 7.386,3.304 7.386,7.388 0,4.082 -3.302,7.385 -7.386,7.385 -4.075,0 -7.386,-3.303 -7.386,-7.385 z"
         inkscape:connector-curvature="0"
         style="fill:#1a1712" />
      <path
         id="path3010"
         d="m 993.6302,99.379146 c 0,-5.938 2.116,-10.174 7.769,-10.174 5.09,0 8.478,1.978 8.478,9.893 v 10.596004 l -2.819,0.708 c -13.708,3.393 -28.263,7.067 -28.263,24.022 0,12.008 6.358,20.492 16.952,20.492 7.069,0 12.859,-3.112 15.545,-8.484 l 0.708,-1.408 c 0.14,1.27 0.848,3.674 1.13,4.521 0.426,0.989 1.129,2.539 1.977,3.956 h 15.966 c -0.849,-1.268 -2.54,-3.956 -3.525,-6.78 -0.99,-2.825 -1.418,-5.938 -1.418,-8.055 V 99.099146 c 0,-15.542 -9.186,-19.783 -21.897,-19.783 -14.843,0 -24.028,10.599 -24.028,22.608004 v 0.708 h 13.428 v -3.253004 z m 16.246,34.341004 c 0,6.354 -2.819,9.888 -7.061,9.888 -4.944,0 -7.916,-3.246 -7.77,-12.011 0.141,-7.487 5.082,-11.303 12.431,-13.419 l 2.399,-0.709 v 16.251 z"
         clip-rule="evenodd"
         inkscape:connector-curvature="0"
         style="fill:#1d1d1b;fill-rule:evenodd" />
      <path
         id="path3012"
         d="m 986.3702,68.406146 c 0,-4.084 3.309,-7.388 7.388,-7.388 4.079,0 7.385,3.304 7.385,7.388 0,4.082 -3.306,7.385 -7.385,7.385 -4.079,0 -7.388,-3.303 -7.388,-7.385 z"
         inkscape:connector-curvature="0"
         style="fill:#1a1712" />
      <path
         id="path3014"
         d="m 1008.0312,68.406146 c 0,-4.084 3.312,-7.388 7.387,-7.388 4.083,0 7.393,3.304 7.393,7.388 0,4.082 -3.31,7.385 -7.393,7.385 -4.076,0 -7.387,-3.303 -7.387,-7.385 z"
         inkscape:connector-curvature="0"
         style="fill:#1a1712" />
      <path
         id="path3016"
         d="m 986.5862,47.804146 c -1.557,-0.283 -12.012,-1.698 -20.494,3.953 -8.467,5.653 -14.127,13.418 -14.127,28.262 v 1.411 h -10.708 v 9.184 h 10.708 v 62.886004 h 16.96 V 90.614146 h 11.175 v -9.184 h -11.175 v -8.476 c 0,-9.895 2.54,-12.012 4.236,-13.421 2.545,-2.124 9.183,-3.255 14.417,0 l 1.126,0.7 v -12.009 z"
         inkscape:connector-curvature="0"
         style="fill:#1d1d1b" />
      <path
         id="path3018"
         d="m 1082.8192,153.37915 1.136,0.568 c 2.114,0.988 7.346,1.838 9.888,1.838 16.529,0 27.553,-11.729 27.553,-25.438 0,-9.895 -4.515,-15.264 -12.012,-20.488 l -4.943,-3.533 c -4.241,-2.967 -6.358,-5.65 -6.358,-9.892004 0,-4.242 4.241,-7.77 9.185,-7.77 4.241,0 7.916,2.117 10.462,4.235 l 0.849,0.708 v -12.72 l -1.417,-0.421 c -1.273,-0.287 -5.229,-0.988 -8.623,-0.988 -14.694,0 -25.289,9.607 -25.289,21.904004 0,9.884 4.382,16.534 10.595,21.193 l 5.65,4.243 c 4.522,3.386 6.786,5.931 6.786,10.595 0,4.662 -3.956,8.478 -10.313,8.478 -3.954,0 -8.904,-2.828 -12.298,-5.652 l -0.849,-0.707 v 13.847 z"
         inkscape:connector-curvature="0"
         style="fill:#1d1d1b" />
      <path
         id="path3020"
         d="m 1162.8302,93.607146 0.708,0.708 v -13.428 l -1.695,-0.421 c -1.409,-0.287 -4.665,-0.988 -8.898,-0.988 -18.089,0 -28.973,15.544 -28.973,38.859004 0,26.143 10.884,37.447 26.14,37.447 4.38,0 10.602,-1.411 12.011,-2.117 l 1.416,-0.71 v -13.426 l -1.416,1.415 c -2.117,2.116 -5.93,4.523 -9.178,4.523 -5.229,0 -10.603,-2.407 -10.603,-28.545 0,-24.026004 5.652,-27.561004 11.303,-27.561004 4.236,0.002 7.774,2.828 9.185,4.244 z"
         inkscape:connector-curvature="0"
         style="fill:#1d1d1b" />
      <path
         id="path3022"
         d="m 1168.2262,153.66815 h 16.96 v -52.285 c 0,-7.067004 4.236,-10.602004 7.774,-10.602004 7.063,0 7.764,4.949 7.764,12.719004 v 50.168 h 16.959 v -52.993 c 0,-15.546004 -5.797,-21.196004 -17.659,-21.196004 -6.36,0 -12.011,3.527 -14.137,7.77 l -0.701,1.416 v -38.865 h -16.96 z"
         inkscape:connector-curvature="0"
         style="fill:#1d1d1b" />
      <path
         id="path3024"
         d="m 870.4872,153.22115 1.134,0.563 c 2.119,0.987 7.348,1.841 9.891,1.841 16.528,0 27.553,-11.729 27.553,-25.438 0,-9.892 -4.523,-15.262 -12.012,-20.492 l -4.944,-3.535 c -4.242,-2.967 -6.359,-5.652 -6.359,-9.888004 0,-4.242 4.235,-7.775 9.185,-7.775 4.241,0 7.908,2.117 10.454,4.241 l 0.85,0.703 v -12.714 l -1.41,-0.426 c -1.277,-0.282 -5.231,-0.987 -8.623,-0.987 -14.693,0 -25.292,9.611 -25.292,21.901004 0,9.894 4.379,16.532 10.599,21.195 l 5.648,4.241 c 4.521,3.396 6.787,5.935 6.787,10.597 0,4.662 -3.962,8.481 -10.318,8.481 -3.958,0 -8.899,-2.824 -12.293,-5.656 l -0.849,-0.703 v 13.851 z"
         inkscape:connector-curvature="0"
         style="fill:#1d1d1b" />
      <polygon
         id="polygon3026"
         points="326.397,244.601 314.813,177.48 298.842,177.48 287.112,244.601 275.246,177.48 256.452,177.48 276.943,281.769 289.235,281.769 303.085,207.154 315.8,281.769 327.812,281.769 349.29,177.48 337.7,177.48 "
         style="fill:#1d1d1b"
         transform="translate(477.2362,-127.83985)" />
      <path
         id="path3028"
         d="m 634.4682,155.62415 c 7.063,0 12.434,-3.679 14.839,-8.483 l 0.7,-1.41 v 7.77 h 16.253 V 81.432146 h -16.953 v 52.993004 c 0,5.509 -3.254,9.184 -8.057,9.184 -6.782,0 -7.488,-5.65 -7.488,-12.711 V 81.432146 h -16.957 v 52.289004 c 0,15.539 7.064,21.903 17.663,21.903 z"
         inkscape:connector-curvature="0"
         style="fill:#1d1d1b" />
      <polygon
         id="polygon3030"
         points="80.094,177.48 69.492,177.48 69.492,243.185 44.622,177.48 26.394,177.48 26.394,281.34 36.994,281.34 36.994,205.034 65.398,281.34 80.094,281.34 "
         style="fill:#1d1d1b"
         transform="translate(477.2362,-127.83985)" />
      <polygon
         id="polygon3032"
         points="574.818,281.34 574.818,177.48 557.857,177.48 557.857,281.34 "
         style="fill:#1d1d1b"
         transform="translate(477.2362,-127.83985)" />
    </g>
  </g>
</svg>
