<?xml version="1.0" encoding="utf-8"?>
<!-- Generator: Adobe Illustrator 28.0.0, SVG Export Plug-In . SVG Version: 6.00 Build 0)  -->
<svg version="1.1" id="Ebene_1" xmlns="http://www.w3.org/2000/svg" xmlns:xlink="http://www.w3.org/1999/xlink" x="0px" y="0px"
	 viewBox="0 0 402.76 110" style="enable-background:new 0 0 402.76 110;" xml:space="preserve">
<style type="text/css">
	.st0{clip-path:url(#SVGID_00000057835540381449788880000008074736058260348070_);fill:#8EBAE5;}
	.st1{fill:#8EBAE5;}
	.st2{clip-path:url(#SVGID_00000175295153606131762920000001420212984399259823_);fill:#8EBAE5;}
	.st3{clip-path:url(#SVGID_00000090990758656910021040000013357917280670401423_);fill:#00549F;}
	.st4{clip-path:url(#SVGID_00000106114435951896453060000012448711844142525061_);fill:#8EBAE5;}
	.st5{fill:#00549F;}
	.st6{clip-path:url(#SVGID_00000106836628644145174780000005512772751161572749_);fill:#00549F;}
	.st7{clip-path:url(#SVGID_00000106836628644145174780000005512772751161572749_);fill:#006165;}
	.st8{clip-path:url(#SVGID_00000106836628644145174780000005512772751161572749_);fill:#FFFFFF;}
</style>
<g>
	<defs>
		<rect id="SVGID_1_" x="10.63" y="16.78" width="381.69" height="92.79"/>
	</defs>
	<clipPath id="SVGID_00000088133945203980195210000002292258285244940691_">
		<use xlink:href="#SVGID_1_"  style="overflow:visible;"/>
	</clipPath>
	<path style="clip-path:url(#SVGID_00000088133945203980195210000002292258285244940691_);fill:#8EBAE5;" d="M315.78,86.19h4.45
		v-9.32h2.38c1.79,0,2.56,1.05,2.62,2.78l0.12,4.23c0.03,0.86,0.12,1.7,0.56,2.31h4.82v-0.18c-0.83-0.43-0.96-1.64-0.99-3.95
		c-0.06-4.66-0.53-6.33-3.55-6.73v-0.06c2.5-0.52,3.67-2.5,3.67-5.43c0-3.77-2.22-5.68-5.87-5.68h-8.21V86.19z M320.23,67.42h2.1
		c2.01,0,3.09,1.02,3.09,3.06c0,2.38-1.2,3.3-3.33,3.3h-1.85V67.42z"/>
	<path style="clip-path:url(#SVGID_00000088133945203980195210000002292258285244940691_);fill:#8EBAE5;" d="M250.24,64.15v15.37
		c0,5.9,3.43,7.1,7.04,7.1c3.61,0,7.04-1.48,7.04-7.1V64.15h-4.45v15.37c0,2.19-0.52,3.83-2.59,3.83c-2.07,0-2.59-1.64-2.59-3.83
		V64.15H250.24z"/>
</g>
<polygon class="st1" points="265.41,64.15 265.41,86.19 269.48,86.19 269.48,70.76 269.55,70.76 274.98,86.19 280.04,86.19 
	280.04,64.15 275.97,64.15 275.97,79.25 275.91,79.25 270.53,64.15 "/>
<rect x="281.18" y="64.15" class="st1" width="4.45" height="22.04"/>
<polygon class="st1" points="285.93,64.15 291,86.19 296.71,86.19 301.77,64.15 297.17,64.15 293.9,80.45 293.81,80.45 
	290.69,64.15 "/>
<polygon class="st1" points="302.17,64.15 302.17,86.19 314.79,86.19 314.79,82.55 306.61,82.55 306.61,76.62 314.02,76.62 
	314.02,72.98 306.61,72.98 306.61,67.79 314.48,67.79 314.48,64.15 "/>
<g>
	<defs>
		<rect id="SVGID_00000159443342986677180010000015103619506393965469_" x="10.63" y="16.78" width="381.69" height="92.79"/>
	</defs>
	<clipPath id="SVGID_00000086667628131644627010000007085508746460624769_">
		<use xlink:href="#SVGID_00000159443342986677180010000015103619506393965469_"  style="overflow:visible;"/>
	</clipPath>
	<path style="clip-path:url(#SVGID_00000086667628131644627010000007085508746460624769_);fill:#8EBAE5;" d="M330.23,79.31v0.89
		c0,4.08,1.97,6.42,7.01,6.42c4.82,0,7.65-2.1,7.65-6.76c0-2.69-0.87-4.38-4.2-5.83l-3.43-1.48c-1.88-0.8-2.28-1.64-2.28-2.99
		c0-1.3,0.52-2.56,2.53-2.56c1.7,0,2.41,1.2,2.41,3.27h4.26v-0.62c0-4.23-2.87-5.93-6.82-5.93c-4.2,0-6.82,2.19-6.82,6.48
		c0,3.67,1.82,5.31,5.77,6.67c2.93,1.02,3.95,1.76,3.95,3.77c0,1.85-1.3,2.72-2.65,2.72c-2.35,0-2.93-1.33-2.93-3.39v-0.65H330.23z"
		/>
</g>
<rect x="345.47" y="64.15" class="st1" width="4.45" height="22.04"/>
<polygon class="st1" points="373,64.15 369.92,72.67 369.86,72.67 366.95,64.15 350.5,64.15 350.5,67.79 355.31,67.79 355.31,86.19 
	359.76,86.19 359.76,67.79 363.51,67.79 367.66,77.52 367.66,86.19 372.11,86.19 372.11,77.52 377.82,64.15 "/>
<g>
	<defs>
		<rect id="SVGID_00000065785675063936005190000009975231132198037169_" x="10.63" y="16.78" width="381.69" height="92.79"/>
	</defs>
	<clipPath id="SVGID_00000176040258194981313560000009442304941550099379_">
		<use xlink:href="#SVGID_00000065785675063936005190000009975231132198037169_"  style="overflow:visible;"/>
	</clipPath>
	<path style="clip-path:url(#SVGID_00000176040258194981313560000009442304941550099379_);fill:#00549F;" d="M211.2,62.15h-0.28
		h-7.08v-2.49V40.17v-0.16h7.07h0.01h5c3.28,0,6.1,2.12,7.02,4.93c0.85,2.6,0.12,5.43-1.8,7.45c0.26,0.69,0.51,1.24,0.74,1.86
		c0.54,1.23,1.02,2.47,1.56,3.68l1.75,4.22h-0.04h-7.42c0,0-0.06-0.18-0.12-0.25c-0.3-0.65-0.57-1.35-0.86-2l-1.8-4.26
		c-0.71-1.72-1.43-3.35-2.14-5.07c0.89-0.02,1.55,0.14,2.41-0.25c0.6-0.3,1.52-1.03,1.54-2.45c-0.02-0.7-0.22-1.23-0.68-1.78
		c-0.47-0.51-1.14-0.89-2.02-0.91c0,0-2.86,0-2.86,0V62.15z"/>
	<path style="clip-path:url(#SVGID_00000176040258194981313560000009442304941550099379_);fill:#00549F;" d="M288.13,40.01v22.14
		h-5.75h-1.62v-9.03h-0.69h-4.41h-0.06v9.03c-1.34,0-2.78-0.01-4.11,0h-3.25V45.13h-5.15v0.53v1.6v7.29v7.59h-0.06h-7.31v-9.18
		v-0.36v-7.48h-5.2v8.03v8.98h-7.59c-1.32-3.19-2.72-6.41-4.01-9.59c-0.15-0.67-0.3-1.34-0.49-1.99v11.58h-7.6
		c-1.51-3.5-2.96-6.94-4.46-10.49c-0.52-1.23-0.95-2.23-1.49-3.51l-0.07-0.17l-1.17-2.75l-1.68-3.92c-0.15-0.45-0.38-0.85-0.53-1.29
		h7.59c1.56,3.79,3.13,7.53,4.77,11.26l0.04,0.09c-0.06-0.43-0.19-0.98-0.27-1.4v-6.61c0.01-1.06,0-2.26,0-3.34h7.6
		c0.1,0.24,0.15,0.37,0.22,0.57c0.89,2.09,1.74,4.17,2.63,6.25l1.99,4.53c-0.04-0.48-0.15-0.94-0.21-1.4v-9.95h0.61h5.17h18.71h5.32
		v1.38V48h0.36h4.8v-7.99h3.84H288.13z"/>
</g>
<path class="st1" d="M309.5,53.8l2.14-9.95h0.06l2.14,9.95H309.5z M294.74,53.8l2.14-9.95h0.06l2.14,9.95H294.74z M314.43,40.01
	h-5.52l-4.62,17.45l-4.62-17.45h-5.52l-5.86,22.14h4.65l1.02-4.68h5.89l1.02,4.68h6.82l1.02-4.68h5.89l1.02,4.68h4.65L314.43,40.01z
	"/>
<g>
	<defs>
		<rect id="SVGID_00000054265410431226144350000002669765341374779827_" x="10.63" y="16.78" width="381.69" height="92.79"/>
	</defs>
	<clipPath id="SVGID_00000102535527481570773290000009617963158112547980_">
		<use xlink:href="#SVGID_00000054265410431226144350000002669765341374779827_"  style="overflow:visible;"/>
	</clipPath>
	<path style="clip-path:url(#SVGID_00000102535527481570773290000009617963158112547980_);fill:#8EBAE5;" d="M333.59,47.56
		c0-3.21-0.46-7.87-6.82-7.87c-6.67,0-7.5,4.75-7.5,11.45c0,6.7,0.83,11.45,7.5,11.45c5.83,0,7.01-4.1,7.01-8.86h-4.45
		c0,4.75-1.17,5.59-2.78,5.59c-1.91,0-2.84-1.2-2.84-7.87c0-6.23,0.52-8.49,2.78-8.49c2.01,0,2.65,1.39,2.65,4.6H333.59z"/>
</g>
<polygon class="st1" points="334.65,62.15 339.11,62.15 339.11,52.32 344.32,52.32 344.32,62.15 348.79,62.15 348.79,40.01 
	344.32,40.01 344.32,48.47 339.11,48.47 339.11,40.01 334.65,40.01 "/>
<polygon class="st1" points="349.76,40 349.76,62.15 362.44,62.15 362.44,58.49 354.22,58.49 354.22,52.53 361.67,52.53 
	361.67,48.87 354.22,48.87 354.22,43.66 362.13,43.66 362.13,40 "/>
<polygon class="st1" points="363.1,40.01 363.1,62.15 367.2,62.15 367.2,46.64 367.26,46.64 372.72,62.15 377.8,62.15 377.8,40.01 
	373.71,40.01 373.71,55.17 373.65,55.17 368.25,40.01 "/>
<rect x="188.82" y="39.98" class="st5" width="1.02" height="46.4"/>
<g>
	<defs>
		<rect id="SVGID_00000125582000757850763240000001062753063761415553_" x="10.63" y="16.78" width="381.69" height="92.79"/>
	</defs>
	<clipPath id="SVGID_00000103232907299009799500000005458793268366588862_">
		<use xlink:href="#SVGID_00000125582000757850763240000001062753063761415553_"  style="overflow:visible;"/>
	</clipPath>
	<path style="clip-path:url(#SVGID_00000103232907299009799500000005458793268366588862_);fill:#00549F;" d="M172.04,83v-0.21
		c0-0.13,0.01-0.26,0.04-0.39c0.02-0.13,0.06-0.25,0.12-0.35c0.06-0.1,0.13-0.19,0.22-0.25c0.09-0.07,0.21-0.1,0.35-0.1
		c0.14,0,0.26,0.03,0.35,0.09c0.09,0.06,0.16,0.14,0.22,0.26c0.05,0.11,0.09,0.25,0.11,0.41c0.02,0.16,0.03,0.35,0.04,0.56H172.04z
		 M174.83,83.84v-0.32c0-0.42-0.03-0.81-0.08-1.15c-0.05-0.35-0.16-0.64-0.31-0.88c-0.15-0.24-0.36-0.43-0.62-0.56
		c-0.26-0.13-0.6-0.2-1.01-0.2c-0.48,0-0.86,0.08-1.15,0.23c-0.29,0.16-0.51,0.37-0.66,0.63c-0.15,0.27-0.26,0.57-0.31,0.91
		c-0.05,0.34-0.08,0.7-0.08,1.06c0,0.34,0.01,0.69,0.05,1.04c0.03,0.35,0.11,0.67,0.25,0.95c0.14,0.28,0.35,0.51,0.63,0.69
		c0.29,0.18,0.68,0.27,1.2,0.27c0.68,0,1.17-0.17,1.48-0.52c0.31-0.34,0.48-0.84,0.51-1.48h-1.27c-0.04,0.35-0.12,0.61-0.23,0.78
		c-0.11,0.17-0.28,0.25-0.52,0.25c-0.13,0-0.24-0.03-0.33-0.11c-0.09-0.07-0.16-0.17-0.21-0.29c-0.05-0.12-0.09-0.26-0.12-0.41
		c-0.02-0.15-0.04-0.31-0.04-0.48v-0.44H174.83z M168.35,86.38h1.41v-5.5h-1.41V86.38z M168.35,80.2h1.41v-1.21h-1.41V80.2z
		 M165.95,80.87v0.61h-0.02c-0.14-0.29-0.31-0.48-0.52-0.59c-0.21-0.11-0.42-0.16-0.61-0.16c-0.38,0-0.69,0.08-0.92,0.26
		c-0.23,0.17-0.4,0.39-0.52,0.66c-0.12,0.27-0.2,0.57-0.24,0.91c-0.04,0.33-0.06,0.66-0.06,0.98c0,1,0.14,1.72,0.43,2.14
		c0.28,0.43,0.7,0.64,1.26,0.64c0.22,0,0.44-0.06,0.65-0.18c0.21-0.12,0.38-0.29,0.53-0.49h0.02v0.73c0,0.29-0.06,0.52-0.17,0.71
		c-0.12,0.19-0.32,0.28-0.6,0.28c-0.09,0-0.17-0.01-0.25-0.04c-0.08-0.03-0.15-0.06-0.22-0.11c-0.14-0.1-0.21-0.24-0.21-0.42h-1.35
		c0,0.47,0.16,0.83,0.49,1.09c0.32,0.25,0.79,0.38,1.39,0.38c0.82,0,1.41-0.18,1.76-0.53c0.35-0.35,0.53-0.9,0.53-1.63v-5.23H165.95
		z M164.5,82.86c0.02-0.26,0.05-0.46,0.11-0.61c0.05-0.15,0.13-0.26,0.23-0.33c0.1-0.07,0.22-0.1,0.38-0.1
		c0.28,0,0.47,0.14,0.58,0.42c0.11,0.28,0.16,0.75,0.16,1.42c0,0.23-0.01,0.44-0.04,0.64s-0.07,0.36-0.12,0.5s-0.14,0.24-0.24,0.32
		c-0.1,0.08-0.22,0.12-0.37,0.12c-0.15,0-0.27-0.04-0.36-0.12c-0.09-0.08-0.16-0.18-0.21-0.32c-0.05-0.13-0.09-0.28-0.1-0.45
		c-0.02-0.17-0.02-0.35-0.02-0.54C164.47,83.43,164.48,83.12,164.5,82.86 M159.45,82.85c0.01-0.24,0.05-0.44,0.1-0.61
		s0.13-0.3,0.23-0.4c0.1-0.1,0.24-0.14,0.41-0.14c0.29,0,0.48,0.15,0.59,0.45c0.11,0.3,0.16,0.79,0.16,1.48
		c0,0.69-0.05,1.18-0.16,1.48c-0.11,0.3-0.31,0.45-0.59,0.45c-0.18,0-0.32-0.05-0.41-0.14c-0.1-0.1-0.17-0.23-0.23-0.4
		s-0.08-0.38-0.1-0.61c-0.01-0.24-0.02-0.5-0.02-0.78S159.44,83.09,159.45,82.85 M158.12,84.89c0.07,0.36,0.18,0.67,0.35,0.91
		c0.16,0.24,0.38,0.43,0.66,0.55c0.28,0.12,0.63,0.18,1.05,0.17c0.4,0,0.74-0.06,1.02-0.19c0.28-0.13,0.5-0.31,0.67-0.55
		c0.17-0.24,0.29-0.54,0.37-0.9c0.07-0.36,0.11-0.78,0.11-1.25c0-0.48-0.04-0.9-0.1-1.26c-0.07-0.37-0.18-0.67-0.35-0.92
		s-0.39-0.43-0.67-0.55c-0.28-0.12-0.63-0.18-1.05-0.17c-0.4,0-0.74,0.06-1.02,0.19c-0.28,0.13-0.5,0.31-0.67,0.55
		c-0.17,0.24-0.29,0.54-0.37,0.9c-0.08,0.36-0.11,0.78-0.11,1.25C158.02,84.11,158.05,84.53,158.12,84.89 M155.74,86.38h1.41v-7.3
		h-1.41V86.38z M151.98,82.85c0.01-0.24,0.05-0.44,0.1-0.61c0.05-0.17,0.13-0.3,0.23-0.4s0.24-0.14,0.41-0.14
		c0.29,0,0.48,0.15,0.59,0.45c0.11,0.3,0.16,0.79,0.16,1.48c0,0.69-0.05,1.18-0.16,1.48c-0.11,0.3-0.31,0.45-0.59,0.45
		c-0.18,0-0.32-0.05-0.41-0.14s-0.17-0.23-0.23-0.4c-0.05-0.17-0.08-0.38-0.1-0.61c-0.01-0.24-0.02-0.5-0.02-0.78
		S151.97,83.09,151.98,82.85 M150.65,84.89c0.07,0.36,0.18,0.67,0.35,0.91c0.16,0.24,0.38,0.43,0.66,0.55
		c0.28,0.12,0.63,0.18,1.05,0.17c0.4,0,0.74-0.06,1.02-0.19c0.28-0.13,0.5-0.31,0.67-0.55c0.17-0.24,0.29-0.54,0.37-0.9
		c0.07-0.36,0.11-0.78,0.11-1.25c0-0.48-0.03-0.9-0.1-1.26c-0.07-0.37-0.18-0.67-0.35-0.92s-0.39-0.43-0.66-0.55
		c-0.28-0.12-0.63-0.18-1.05-0.17c-0.4,0-0.74,0.06-1.02,0.19c-0.28,0.13-0.5,0.31-0.67,0.55c-0.17,0.24-0.29,0.54-0.37,0.9
		c-0.07,0.36-0.11,0.78-0.11,1.25C150.55,84.11,150.58,84.53,150.65,84.89 M148.27,86.38h1.41v-5.5h-1.41V86.38z M148.27,80.2h1.41
		v-1.21h-1.41V80.2z M142.59,86.38h2.49c0.43,0,0.79-0.06,1.08-0.17c0.29-0.12,0.52-0.27,0.71-0.47c0.18-0.19,0.31-0.42,0.38-0.68
		c0.08-0.26,0.11-0.53,0.11-0.82c0-0.49-0.12-0.88-0.36-1.18c-0.24-0.29-0.56-0.47-0.97-0.52v-0.02c0.37-0.1,0.65-0.29,0.83-0.58
		c0.18-0.28,0.28-0.62,0.28-1.02c0-0.35-0.05-0.64-0.15-0.88c-0.1-0.24-0.24-0.43-0.43-0.57c-0.18-0.14-0.4-0.25-0.66-0.31
		c-0.26-0.06-0.53-0.09-0.83-0.09h-2.46V86.38z M144.07,80.16h0.53c0.37,0,0.64,0.07,0.81,0.22c0.17,0.14,0.26,0.39,0.26,0.74
		c0,0.35-0.09,0.6-0.28,0.74c-0.19,0.15-0.49,0.22-0.9,0.22h-0.42V80.16z M144.07,83.09h0.63c0.16,0,0.31,0.02,0.45,0.05
		c0.14,0.03,0.25,0.09,0.35,0.18c0.1,0.09,0.18,0.2,0.24,0.34c0.06,0.14,0.09,0.31,0.09,0.53c0,0.42-0.11,0.71-0.33,0.87
		c-0.22,0.16-0.5,0.24-0.86,0.24h-0.57V83.09z M136.69,86.38h1.41v-3.3c0-0.18,0.03-0.34,0.09-0.47c0.06-0.13,0.14-0.23,0.24-0.31
		c0.1-0.08,0.22-0.14,0.34-0.17c0.12-0.03,0.25-0.05,0.37-0.05c0.08,0,0.15,0,0.22,0c0.07,0,0.14,0.01,0.22,0.02v-1.35
		c-0.04-0.01-0.08-0.01-0.13-0.01c-0.04,0-0.09,0-0.13,0c-0.29,0-0.54,0.08-0.75,0.24c-0.21,0.16-0.38,0.37-0.52,0.64h-0.02v-0.74
		h-1.35V86.38z M133.08,83v-0.21c0-0.13,0.01-0.26,0.04-0.39c0.02-0.13,0.06-0.25,0.12-0.35c0.06-0.1,0.13-0.19,0.22-0.25
		c0.09-0.07,0.21-0.1,0.35-0.1c0.14,0,0.26,0.03,0.35,0.09c0.09,0.06,0.16,0.14,0.21,0.26c0.05,0.11,0.09,0.25,0.11,0.41
		c0.02,0.16,0.04,0.35,0.04,0.56H133.08z M135.87,83.84v-0.32c0-0.42-0.03-0.81-0.08-1.15c-0.05-0.35-0.16-0.64-0.31-0.88
		c-0.15-0.24-0.36-0.43-0.62-0.56c-0.26-0.13-0.6-0.2-1.01-0.2c-0.48,0-0.86,0.08-1.15,0.23c-0.29,0.16-0.51,0.37-0.66,0.63
		c-0.15,0.27-0.26,0.57-0.31,0.91c-0.05,0.34-0.08,0.7-0.08,1.06c0,0.34,0.01,0.69,0.05,1.04c0.03,0.35,0.12,0.67,0.25,0.95
		c0.14,0.28,0.35,0.51,0.63,0.69c0.29,0.18,0.68,0.27,1.2,0.27c0.68,0,1.17-0.17,1.48-0.52c0.31-0.34,0.49-0.84,0.51-1.48h-1.27
		c-0.04,0.35-0.11,0.61-0.22,0.78c-0.11,0.17-0.28,0.25-0.52,0.25c-0.13,0-0.24-0.03-0.33-0.11c-0.09-0.07-0.16-0.17-0.22-0.29
		c-0.05-0.12-0.09-0.26-0.12-0.41c-0.02-0.15-0.04-0.31-0.04-0.48v-0.44H135.87z M128.08,82.27c0.09-0.3,0.29-0.45,0.6-0.45
		c0.31,0,0.52,0.15,0.61,0.45c0.09,0.3,0.14,0.76,0.14,1.36c0,0.6-0.05,1.05-0.14,1.35c-0.09,0.3-0.29,0.46-0.61,0.46
		c-0.31,0-0.51-0.15-0.6-0.46c-0.09-0.3-0.14-0.75-0.14-1.35C127.94,83.02,127.98,82.57,128.08,82.27 M129.48,86.38h1.35v-7.3h-1.41
		v2.31h-0.02c-0.15-0.22-0.32-0.38-0.51-0.49c-0.19-0.11-0.41-0.16-0.68-0.16c-0.58,0-1,0.23-1.28,0.68
		c-0.27,0.45-0.41,1.19-0.41,2.21c0,1.02,0.14,1.76,0.41,2.21c0.27,0.45,0.7,0.68,1.28,0.68c0.29,0,0.53-0.06,0.72-0.17
		c0.19-0.11,0.37-0.3,0.53-0.56h0.02V86.38z M119.14,79.07v7.3h1.41v-1.61l0.5-0.65l1.18,2.26h1.56l-1.82-3.33l1.59-2.17H122
		l-1.42,2.06h-0.02v-3.86H119.14z M116.68,86.38h1.41v-5.5h-1.41V86.38z M116.68,80.2h1.41v-1.21h-1.41V80.2z M113.77,80.87h-0.72
		v0.96h0.72v3.15c0,0.28,0.02,0.51,0.05,0.69c0.03,0.18,0.1,0.33,0.19,0.44c0.09,0.11,0.22,0.19,0.39,0.24
		c0.17,0.05,0.39,0.07,0.67,0.07c0.16,0,0.32-0.01,0.47-0.02c0.15-0.01,0.3-0.03,0.46-0.04v-0.98c-0.05,0.01-0.1,0.01-0.15,0.01
		c-0.06,0-0.11,0-0.16,0c-0.21,0-0.34-0.05-0.4-0.14c-0.07-0.09-0.1-0.25-0.1-0.47v-2.98H116v-0.96h-0.82V79.3h-1.41V80.87z
		 M108.17,79.07v7.3h1.41v-1.61l0.5-0.65l1.18,2.26h1.56l-1.82-3.33l1.59-2.17h-1.56l-1.42,2.06h-0.02v-3.86H108.17z M105.76,84.71
		c0,0.16-0.03,0.29-0.08,0.39c-0.06,0.11-0.12,0.19-0.21,0.26c-0.09,0.07-0.18,0.12-0.28,0.15c-0.1,0.03-0.2,0.05-0.3,0.05
		c-0.19,0-0.33-0.07-0.41-0.22c-0.08-0.15-0.12-0.33-0.12-0.54c0-0.25,0.06-0.44,0.18-0.58s0.33-0.25,0.61-0.31
		c0.09-0.02,0.19-0.05,0.3-0.1c0.11-0.04,0.21-0.1,0.31-0.18V84.71z M104.45,82.56v-0.15c0-0.22,0.05-0.39,0.16-0.52
		c0.11-0.13,0.27-0.19,0.49-0.19c0.24,0,0.41,0.06,0.51,0.18c0.1,0.12,0.15,0.28,0.15,0.5c0,0.18-0.04,0.32-0.12,0.42
		c-0.08,0.09-0.23,0.17-0.44,0.22l-0.8,0.21c-0.25,0.07-0.45,0.15-0.63,0.24c-0.17,0.09-0.32,0.2-0.43,0.33
		c-0.11,0.13-0.2,0.29-0.25,0.48c-0.06,0.19-0.08,0.41-0.08,0.67c0,0.18,0.02,0.37,0.07,0.56c0.05,0.19,0.12,0.36,0.23,0.51
		c0.1,0.15,0.24,0.27,0.41,0.37c0.17,0.1,0.38,0.14,0.62,0.14c0.34,0,0.62-0.05,0.83-0.14c0.21-0.1,0.4-0.29,0.57-0.57h0.02
		c0.02,0.1,0.04,0.19,0.07,0.29c0.02,0.1,0.06,0.19,0.11,0.28h1.35c-0.07-0.16-0.11-0.32-0.14-0.46c-0.03-0.14-0.04-0.35-0.04-0.6
		v-2.9c0-0.25-0.03-0.47-0.08-0.68c-0.05-0.21-0.15-0.39-0.29-0.54c-0.14-0.15-0.35-0.27-0.61-0.35c-0.26-0.08-0.6-0.12-1.02-0.12
		c-0.27,0-0.52,0.03-0.75,0.09s-0.44,0.15-0.61,0.29c-0.17,0.13-0.31,0.31-0.41,0.53c-0.1,0.22-0.15,0.48-0.15,0.8v0.13H104.45z
		 M99.45,82.27c0.09-0.3,0.29-0.45,0.6-0.45c0.31,0,0.52,0.15,0.61,0.45c0.09,0.3,0.14,0.76,0.14,1.36c0,0.6-0.05,1.05-0.14,1.35
		c-0.09,0.3-0.3,0.46-0.61,0.46c-0.31,0-0.51-0.15-0.6-0.46c-0.09-0.3-0.14-0.75-0.14-1.35C99.31,83.02,99.35,82.57,99.45,82.27
		 M100.85,86.38h1.35v-7.3h-1.41v2.31h-0.02c-0.15-0.22-0.32-0.38-0.51-0.49c-0.19-0.11-0.41-0.16-0.68-0.16
		c-0.58,0-1.01,0.23-1.28,0.68c-0.27,0.45-0.41,1.19-0.41,2.21c0,1.02,0.14,1.76,0.41,2.21c0.27,0.45,0.7,0.68,1.28,0.68
		c0.29,0,0.53-0.06,0.72-0.17c0.19-0.11,0.37-0.3,0.53-0.56h0.02V86.38z M95.58,86.38h1.41v-5.5h-1.41V86.38z M95.58,80.2h1.41
		v-1.21h-1.41V80.2z M89.77,86.38h2.32c0.49,0,0.9-0.07,1.22-0.22c0.32-0.15,0.58-0.38,0.77-0.69c0.19-0.31,0.32-0.7,0.4-1.17
		c0.08-0.47,0.12-1.03,0.12-1.68c0-0.54-0.03-1.03-0.09-1.46c-0.06-0.44-0.18-0.81-0.35-1.12c-0.17-0.31-0.42-0.55-0.73-0.72
		c-0.31-0.17-0.73-0.25-1.24-0.25h-2.41V86.38z M91.24,80.16h0.62c0.28,0,0.5,0.05,0.67,0.16c0.17,0.11,0.29,0.26,0.38,0.47
		c0.08,0.21,0.14,0.47,0.17,0.78c0.03,0.31,0.04,0.67,0.04,1.09c0,0.5-0.01,0.91-0.05,1.25c-0.03,0.33-0.09,0.6-0.18,0.81
		c-0.09,0.2-0.22,0.35-0.38,0.44c-0.16,0.09-0.37,0.13-0.62,0.13h-0.65V80.16z"/>
	<path style="clip-path:url(#SVGID_00000103232907299009799500000005458793268366588862_);fill:#00549F;" d="M160.63,69.27h-0.72
		v0.96h0.72v3.15c0,0.28,0.02,0.51,0.05,0.7c0.04,0.18,0.1,0.33,0.19,0.44c0.09,0.11,0.22,0.19,0.39,0.24
		c0.17,0.05,0.4,0.07,0.67,0.07c0.16,0,0.32-0.01,0.47-0.02c0.15-0.01,0.3-0.03,0.46-0.04v-0.98c-0.05,0.01-0.1,0.01-0.15,0.01
		c-0.05,0-0.11,0-0.16,0c-0.21,0-0.34-0.05-0.4-0.14c-0.07-0.09-0.1-0.25-0.1-0.46v-2.98h0.82v-0.96h-0.82V67.7h-1.41V69.27z
		 M156.68,71.4v-0.21c0-0.13,0.01-0.26,0.04-0.39c0.03-0.13,0.06-0.25,0.12-0.35c0.05-0.11,0.13-0.19,0.22-0.26
		c0.09-0.07,0.21-0.1,0.35-0.1c0.14,0,0.26,0.03,0.35,0.09c0.09,0.06,0.16,0.14,0.21,0.26c0.05,0.11,0.09,0.25,0.11,0.41
		c0.02,0.16,0.03,0.35,0.04,0.56H156.68z M159.47,72.24v-0.32c0-0.42-0.03-0.81-0.08-1.15c-0.05-0.35-0.16-0.64-0.31-0.88
		c-0.15-0.24-0.36-0.43-0.62-0.56c-0.26-0.13-0.6-0.2-1.01-0.2c-0.48,0-0.86,0.08-1.15,0.24c-0.29,0.16-0.51,0.37-0.66,0.64
		c-0.15,0.27-0.26,0.57-0.31,0.91c-0.05,0.34-0.08,0.7-0.08,1.06c0,0.34,0.02,0.69,0.05,1.04c0.03,0.35,0.12,0.67,0.25,0.95
		c0.14,0.28,0.35,0.51,0.63,0.69c0.29,0.18,0.69,0.27,1.2,0.27c0.68,0,1.17-0.17,1.48-0.52c0.31-0.35,0.49-0.84,0.51-1.48h-1.27
		c-0.04,0.35-0.12,0.61-0.23,0.78c-0.11,0.17-0.28,0.26-0.52,0.26c-0.13,0-0.24-0.04-0.33-0.11c-0.09-0.07-0.16-0.17-0.21-0.29
		c-0.06-0.12-0.09-0.26-0.12-0.41c-0.02-0.15-0.04-0.31-0.04-0.48v-0.44H159.47z M152.99,74.78h1.41v-5.5h-1.41V74.78z M152.99,68.6
		h1.41v-1.21h-1.41V68.6z M149.33,70.67c0.09-0.3,0.29-0.46,0.61-0.46c0.31,0,0.51,0.15,0.6,0.46c0.09,0.3,0.14,0.75,0.14,1.36
		c0,0.6-0.05,1.05-0.14,1.36c-0.09,0.3-0.29,0.46-0.6,0.46c-0.31,0-0.52-0.15-0.61-0.46c-0.09-0.3-0.14-0.75-0.14-1.36
		C149.2,71.42,149.24,70.97,149.33,70.67 M147.78,74.78h1.35v-0.58h0.02c0.16,0.26,0.33,0.44,0.53,0.56
		c0.19,0.11,0.43,0.17,0.72,0.17c0.58,0,1.01-0.23,1.28-0.68c0.27-0.45,0.41-1.19,0.41-2.21c0-1.02-0.14-1.76-0.41-2.22
		c-0.27-0.45-0.7-0.68-1.28-0.68c-0.27,0-0.49,0.05-0.68,0.16c-0.19,0.11-0.36,0.27-0.51,0.49h-0.02v-2.31h-1.41V74.78z
		 M144.17,71.4v-0.21c0-0.13,0.01-0.26,0.04-0.39c0.02-0.13,0.06-0.25,0.12-0.35c0.06-0.11,0.13-0.19,0.22-0.26
		c0.09-0.07,0.21-0.1,0.35-0.1c0.14,0,0.26,0.03,0.35,0.09c0.09,0.06,0.16,0.14,0.21,0.26c0.05,0.11,0.09,0.25,0.11,0.41
		c0.02,0.16,0.03,0.35,0.04,0.56H144.17z M146.97,72.24v-0.32c0-0.42-0.03-0.81-0.08-1.15c-0.05-0.35-0.16-0.64-0.31-0.88
		c-0.15-0.24-0.36-0.43-0.62-0.56c-0.26-0.13-0.6-0.2-1.01-0.2c-0.48,0-0.86,0.08-1.15,0.24c-0.29,0.16-0.51,0.37-0.66,0.64
		c-0.15,0.27-0.26,0.57-0.31,0.91c-0.05,0.34-0.08,0.7-0.08,1.06c0,0.34,0.02,0.69,0.05,1.04c0.03,0.35,0.11,0.67,0.25,0.95
		c0.14,0.28,0.35,0.51,0.63,0.69c0.29,0.18,0.69,0.27,1.2,0.27c0.68,0,1.17-0.17,1.48-0.52c0.31-0.35,0.48-0.84,0.51-1.48h-1.27
		c-0.04,0.35-0.12,0.61-0.22,0.78c-0.11,0.17-0.28,0.26-0.52,0.26c-0.13,0-0.24-0.04-0.33-0.11c-0.09-0.07-0.16-0.17-0.22-0.29
		c-0.05-0.12-0.09-0.26-0.12-0.41c-0.03-0.15-0.04-0.31-0.04-0.48v-0.44H146.97z M140.55,69.27v0.61h-0.02
		c-0.14-0.29-0.31-0.48-0.52-0.59c-0.21-0.11-0.42-0.16-0.61-0.16c-0.38,0-0.69,0.09-0.92,0.26c-0.23,0.17-0.4,0.39-0.52,0.66
		c-0.12,0.27-0.2,0.57-0.24,0.9c-0.04,0.33-0.06,0.66-0.06,0.98c0,1,0.14,1.72,0.42,2.14c0.28,0.43,0.7,0.64,1.26,0.64
		c0.23,0,0.44-0.06,0.65-0.18c0.21-0.12,0.38-0.29,0.53-0.49h0.02v0.73c0,0.29-0.06,0.52-0.17,0.71c-0.12,0.19-0.32,0.28-0.6,0.28
		c-0.09,0-0.17-0.01-0.25-0.04c-0.08-0.03-0.15-0.06-0.22-0.11c-0.14-0.1-0.21-0.24-0.21-0.42h-1.35c0,0.47,0.16,0.83,0.49,1.09
		c0.32,0.26,0.79,0.38,1.39,0.38c0.82,0,1.41-0.18,1.76-0.53c0.35-0.35,0.53-0.89,0.53-1.63v-5.23H140.55z M139.1,71.26
		c0.02-0.26,0.05-0.46,0.11-0.61c0.06-0.15,0.13-0.26,0.23-0.33c0.1-0.07,0.22-0.1,0.38-0.1c0.28,0,0.47,0.14,0.58,0.42
		c0.1,0.28,0.16,0.75,0.16,1.42c0,0.23-0.01,0.44-0.04,0.64c-0.03,0.19-0.07,0.36-0.12,0.5c-0.06,0.14-0.14,0.24-0.24,0.32
		c-0.1,0.08-0.22,0.12-0.37,0.12c-0.15,0-0.27-0.04-0.36-0.12c-0.09-0.08-0.16-0.18-0.21-0.32c-0.05-0.13-0.09-0.28-0.1-0.46
		c-0.02-0.17-0.03-0.35-0.03-0.54C139.08,71.83,139.09,71.52,139.1,71.26 M132.96,72.98v0.19c0,0.27,0.03,0.51,0.09,0.72
		c0.06,0.22,0.17,0.4,0.32,0.55c0.15,0.15,0.36,0.27,0.62,0.35c0.26,0.08,0.59,0.12,0.99,0.12c0.29,0,0.57-0.04,0.82-0.11
		c0.25-0.07,0.47-0.18,0.65-0.32c0.18-0.14,0.32-0.32,0.43-0.54c0.1-0.22,0.15-0.47,0.15-0.76c0-0.42-0.09-0.74-0.28-0.99
		c-0.18-0.24-0.5-0.44-0.94-0.59l-0.85-0.29c-0.24-0.07-0.4-0.17-0.49-0.28c-0.09-0.11-0.13-0.23-0.13-0.37
		c0-0.2,0.07-0.35,0.2-0.44s0.29-0.15,0.46-0.15c0.23,0,0.39,0.07,0.49,0.2c0.09,0.13,0.14,0.34,0.14,0.63h1.27v-0.22
		c0-0.5-0.15-0.88-0.46-1.16c-0.31-0.27-0.78-0.41-1.42-0.41c-0.36,0-0.67,0.04-0.93,0.13c-0.26,0.09-0.46,0.21-0.63,0.36
		c-0.16,0.15-0.28,0.33-0.36,0.53c-0.07,0.2-0.11,0.41-0.11,0.64c0,0.39,0.1,0.71,0.3,0.96c0.2,0.25,0.49,0.44,0.88,0.58l0.99,0.36
		c0.14,0.05,0.25,0.13,0.36,0.22c0.1,0.09,0.15,0.23,0.15,0.4c0,0.22-0.07,0.38-0.19,0.49c-0.13,0.11-0.3,0.16-0.52,0.16
		c-0.24,0-0.42-0.07-0.55-0.22c-0.13-0.15-0.19-0.34-0.19-0.58v-0.18H132.96z M130.79,69.27v0.61h-0.02
		c-0.14-0.29-0.31-0.48-0.52-0.59c-0.21-0.11-0.42-0.16-0.61-0.16c-0.38,0-0.69,0.09-0.92,0.26c-0.23,0.17-0.4,0.39-0.52,0.66
		c-0.12,0.27-0.2,0.57-0.24,0.9c-0.04,0.33-0.06,0.66-0.06,0.98c0,1,0.14,1.72,0.42,2.14c0.28,0.43,0.7,0.64,1.26,0.64
		c0.23,0,0.44-0.06,0.65-0.18c0.21-0.12,0.38-0.29,0.53-0.49h0.02v0.73c0,0.29-0.06,0.52-0.17,0.71c-0.12,0.19-0.32,0.28-0.6,0.28
		c-0.09,0-0.17-0.01-0.25-0.04c-0.08-0.03-0.15-0.06-0.22-0.11c-0.14-0.1-0.21-0.24-0.21-0.42h-1.35c0,0.47,0.16,0.83,0.49,1.09
		c0.32,0.26,0.78,0.38,1.39,0.38c0.82,0,1.41-0.18,1.76-0.53c0.35-0.35,0.53-0.89,0.53-1.63v-5.23H130.79z M129.34,71.26
		c0.02-0.26,0.05-0.46,0.11-0.61c0.05-0.15,0.13-0.26,0.22-0.33c0.1-0.07,0.22-0.1,0.38-0.1c0.28,0,0.47,0.14,0.58,0.42
		c0.11,0.28,0.16,0.75,0.16,1.42c0,0.23-0.01,0.44-0.04,0.64c-0.02,0.19-0.07,0.36-0.12,0.5s-0.14,0.24-0.24,0.32
		c-0.1,0.08-0.22,0.12-0.37,0.12c-0.15,0-0.27-0.04-0.36-0.12c-0.09-0.08-0.16-0.18-0.21-0.32s-0.09-0.28-0.1-0.46
		s-0.03-0.35-0.03-0.54C129.31,71.83,129.32,71.52,129.34,71.26 M122.86,74.78h1.41v-3.65c0-0.61,0.25-0.91,0.75-0.91
		c0.21,0,0.36,0.06,0.46,0.17c0.1,0.11,0.14,0.31,0.14,0.6v3.79h1.41v-4.08c0-0.55-0.12-0.95-0.36-1.2
		c-0.24-0.24-0.59-0.37-1.04-0.37c-0.31,0-0.58,0.06-0.82,0.19c-0.24,0.13-0.43,0.33-0.58,0.6h-0.02v-0.64h-1.35V74.78z
		 M120.51,74.78h1.35v-5.5h-1.41v3.65c0,0.61-0.25,0.91-0.75,0.91c-0.21,0-0.37-0.06-0.46-0.17c-0.1-0.11-0.14-0.31-0.14-0.6v-3.8
		h-1.41v4.08c0,0.55,0.12,0.95,0.36,1.2c0.24,0.25,0.59,0.37,1.04,0.37c0.31,0,0.58-0.06,0.82-0.19c0.24-0.13,0.43-0.32,0.58-0.6
		h0.02V74.78z M112.52,74.78h1.41v-3.65c0-0.61,0.25-0.91,0.75-0.91c0.21,0,0.36,0.06,0.46,0.17c0.1,0.11,0.14,0.31,0.14,0.6v3.79
		h1.41v-4.08c0-0.55-0.12-0.95-0.36-1.2c-0.24-0.24-0.59-0.37-1.04-0.37c-0.62,0-1.07,0.24-1.34,0.71h-0.02v-2.36h-1.41V74.78z
		 M111.71,71.26c0-0.66-0.17-1.17-0.5-1.56c-0.33-0.38-0.82-0.57-1.48-0.57c-0.33,0-0.63,0.04-0.9,0.13
		c-0.27,0.09-0.51,0.24-0.71,0.47c-0.2,0.22-0.35,0.52-0.46,0.89c-0.11,0.37-0.16,0.84-0.16,1.41c0,0.55,0.04,1.01,0.13,1.39
		c0.09,0.37,0.22,0.67,0.39,0.89c0.17,0.22,0.39,0.38,0.65,0.48c0.26,0.1,0.57,0.14,0.93,0.14c0.75,0,1.29-0.19,1.61-0.58
		c0.32-0.39,0.49-0.94,0.49-1.67h-1.35c0,0.45-0.06,0.78-0.16,0.98c-0.11,0.2-0.28,0.31-0.52,0.31c-0.16,0-0.28-0.04-0.38-0.11
		c-0.1-0.07-0.18-0.19-0.23-0.34c-0.06-0.16-0.09-0.36-0.11-0.6c-0.02-0.24-0.03-0.53-0.03-0.88c0-0.31,0.01-0.59,0.03-0.83
		c0.02-0.24,0.06-0.43,0.11-0.59c0.05-0.15,0.13-0.27,0.24-0.35c0.1-0.08,0.25-0.12,0.42-0.12c0.13,0,0.24,0.03,0.32,0.1
		c0.09,0.06,0.15,0.15,0.19,0.26c0.04,0.11,0.08,0.22,0.09,0.36s0.03,0.26,0.03,0.39H111.71z M102.84,72.98v0.19
		c0,0.27,0.03,0.51,0.09,0.72c0.06,0.22,0.17,0.4,0.32,0.55c0.15,0.15,0.36,0.27,0.62,0.35c0.26,0.08,0.59,0.12,0.99,0.12
		c0.29,0,0.57-0.04,0.82-0.11c0.25-0.07,0.47-0.18,0.65-0.32c0.18-0.14,0.32-0.32,0.43-0.54c0.1-0.22,0.15-0.47,0.15-0.76
		c0-0.42-0.09-0.74-0.28-0.99c-0.18-0.24-0.5-0.44-0.94-0.59l-0.85-0.29c-0.24-0.07-0.4-0.17-0.49-0.28
		c-0.09-0.11-0.13-0.23-0.13-0.37c0-0.2,0.07-0.35,0.2-0.44c0.13-0.1,0.29-0.15,0.47-0.15c0.23,0,0.39,0.07,0.49,0.2
		c0.09,0.13,0.14,0.34,0.14,0.63h1.27v-0.22c0-0.5-0.15-0.88-0.46-1.16c-0.31-0.27-0.78-0.41-1.42-0.41c-0.36,0-0.67,0.04-0.93,0.13
		c-0.26,0.09-0.47,0.21-0.63,0.36c-0.16,0.15-0.28,0.33-0.36,0.53c-0.08,0.2-0.11,0.41-0.11,0.64c0,0.39,0.1,0.71,0.3,0.96
		c0.2,0.25,0.49,0.44,0.88,0.58l0.99,0.36c0.14,0.05,0.26,0.13,0.36,0.22c0.1,0.09,0.15,0.23,0.15,0.4c0,0.22-0.07,0.38-0.19,0.49
		c-0.13,0.11-0.3,0.16-0.52,0.16c-0.24,0-0.42-0.07-0.55-0.22c-0.13-0.15-0.19-0.34-0.19-0.58v-0.18H102.84z M99.47,74.78h1.41v-3.3
		c0-0.18,0.03-0.34,0.09-0.47c0.06-0.13,0.14-0.23,0.25-0.31c0.1-0.08,0.21-0.14,0.34-0.17c0.12-0.03,0.24-0.05,0.37-0.05
		c0.08,0,0.15,0,0.22,0c0.07,0,0.14,0.01,0.22,0.02v-1.35c-0.04-0.01-0.08-0.01-0.13-0.01c-0.04,0-0.09-0.01-0.13-0.01
		c-0.29,0-0.54,0.08-0.75,0.24c-0.2,0.16-0.38,0.37-0.52,0.64h-0.02v-0.74h-1.35V74.78z M95.74,71.25c0.01-0.24,0.05-0.44,0.1-0.61
		c0.05-0.17,0.13-0.3,0.22-0.4c0.1-0.09,0.24-0.14,0.42-0.14c0.29,0,0.48,0.15,0.59,0.45c0.11,0.3,0.16,0.79,0.16,1.48
		c0,0.69-0.06,1.18-0.16,1.48c-0.11,0.3-0.31,0.45-0.59,0.45c-0.18,0-0.31-0.05-0.42-0.14c-0.1-0.1-0.17-0.23-0.22-0.4
		c-0.05-0.17-0.08-0.38-0.1-0.61c-0.01-0.24-0.02-0.5-0.02-0.78C95.72,71.75,95.73,71.49,95.74,71.25 M94.41,73.29
		c0.07,0.36,0.18,0.67,0.35,0.91c0.16,0.25,0.39,0.43,0.67,0.55c0.28,0.12,0.63,0.18,1.05,0.17c0.4,0,0.74-0.06,1.02-0.19
		c0.28-0.13,0.5-0.31,0.67-0.55c0.17-0.24,0.29-0.54,0.37-0.91c0.08-0.36,0.11-0.78,0.11-1.25c0-0.48-0.03-0.9-0.1-1.26
		c-0.07-0.37-0.18-0.67-0.35-0.92c-0.16-0.25-0.39-0.43-0.67-0.55c-0.28-0.12-0.63-0.18-1.05-0.17c-0.4,0-0.74,0.06-1.02,0.19
		c-0.28,0.13-0.5,0.31-0.67,0.55c-0.17,0.24-0.29,0.54-0.37,0.9c-0.07,0.36-0.11,0.78-0.11,1.25
		C94.31,72.51,94.35,72.93,94.41,73.29 M89.69,74.78h1.47v-3.17h2.45V70.4h-2.45v-1.72h2.61v-1.21h-4.08V74.78z"/>
	<path style="clip-path:url(#SVGID_00000103232907299009799500000005458793268366588862_);fill:#00549F;" d="M125.97,59.07
		c0.09-0.3,0.29-0.46,0.6-0.46c0.31,0,0.52,0.15,0.61,0.46c0.09,0.3,0.14,0.76,0.14,1.35c0,0.6-0.05,1.05-0.14,1.36
		c-0.09,0.3-0.3,0.46-0.61,0.46c-0.31,0-0.51-0.15-0.6-0.46c-0.09-0.3-0.14-0.75-0.14-1.36C125.83,59.83,125.87,59.37,125.97,59.07
		 M127.37,63.18h1.35v-7.3h-1.41v2.31h-0.02c-0.15-0.22-0.32-0.38-0.51-0.49c-0.19-0.11-0.41-0.16-0.68-0.16
		c-0.58,0-1.01,0.23-1.28,0.68c-0.27,0.45-0.41,1.19-0.41,2.22c0,1.02,0.14,1.76,0.41,2.22c0.27,0.45,0.7,0.68,1.28,0.68
		c0.29,0,0.53-0.06,0.72-0.17c0.19-0.11,0.37-0.3,0.53-0.56h0.02V63.18z M119.37,63.18h1.41v-3.65c0-0.61,0.25-0.91,0.75-0.91
		c0.21,0,0.36,0.06,0.46,0.17c0.1,0.11,0.14,0.31,0.14,0.6v3.79h1.41V59.1c0-0.55-0.12-0.95-0.36-1.2
		c-0.24-0.24-0.59-0.37-1.04-0.37c-0.31,0-0.58,0.06-0.82,0.19c-0.24,0.13-0.43,0.33-0.58,0.6h-0.02v-0.65h-1.35V63.18z
		 M117.02,63.18h1.35v-5.5h-1.41v3.65c0,0.61-0.25,0.91-0.75,0.91c-0.21,0-0.37-0.06-0.46-0.17c-0.1-0.11-0.14-0.31-0.14-0.6v-3.8
		h-1.41v4.08c0,0.55,0.12,0.95,0.36,1.2c0.24,0.24,0.59,0.37,1.04,0.37c0.31,0,0.58-0.06,0.82-0.19c0.24-0.13,0.43-0.33,0.58-0.6
		h0.02V63.18z M107.94,60.82h2.89v-1.21h-2.89V60.82z M104.52,63.18h1.41v-3.3c0-0.18,0.03-0.34,0.09-0.47
		c0.06-0.13,0.14-0.23,0.25-0.31c0.1-0.08,0.22-0.13,0.34-0.17c0.12-0.03,0.24-0.05,0.37-0.05c0.08,0,0.15,0,0.22,0
		c0.07,0,0.14,0.01,0.22,0.02v-1.35c-0.04-0.01-0.08-0.01-0.13-0.01c-0.04,0-0.09-0.01-0.13-0.01c-0.29,0-0.54,0.08-0.75,0.24
		c-0.2,0.16-0.38,0.37-0.52,0.64h-0.02v-0.74h-1.35V63.18z M99.35,63.18h1.41v-3.65c0-0.61,0.25-0.91,0.75-0.91
		c0.21,0,0.37,0.06,0.46,0.17c0.1,0.11,0.14,0.31,0.14,0.6v3.79h1.41V59.1c0-0.55-0.12-0.95-0.36-1.2
		c-0.24-0.24-0.59-0.37-1.04-0.37c-0.62,0-1.07,0.24-1.34,0.71h-0.02v-2.36h-1.41V63.18z M95.74,59.8v-0.22
		c0-0.13,0.01-0.26,0.04-0.39c0.02-0.13,0.06-0.25,0.12-0.35c0.05-0.11,0.13-0.19,0.22-0.26c0.09-0.07,0.21-0.1,0.35-0.1
		c0.14,0,0.26,0.03,0.35,0.09c0.09,0.06,0.16,0.14,0.21,0.26c0.05,0.11,0.09,0.25,0.11,0.41c0.02,0.16,0.03,0.35,0.04,0.56H95.74z
		 M98.53,60.64v-0.32c0-0.42-0.03-0.81-0.08-1.15c-0.05-0.35-0.16-0.64-0.31-0.88c-0.15-0.24-0.36-0.43-0.62-0.56s-0.6-0.2-1.01-0.2
		c-0.48,0-0.86,0.08-1.15,0.24c-0.29,0.16-0.51,0.37-0.66,0.64c-0.15,0.27-0.26,0.57-0.31,0.91c-0.05,0.34-0.08,0.7-0.08,1.06
		c0,0.34,0.02,0.69,0.05,1.04c0.03,0.35,0.12,0.67,0.25,0.95c0.14,0.28,0.35,0.51,0.63,0.69c0.29,0.18,0.69,0.27,1.2,0.27
		c0.68,0,1.17-0.17,1.48-0.52c0.31-0.35,0.48-0.84,0.51-1.48h-1.27c-0.04,0.35-0.12,0.61-0.22,0.78c-0.11,0.17-0.28,0.26-0.52,0.26
		c-0.13,0-0.24-0.04-0.33-0.11c-0.09-0.07-0.16-0.17-0.21-0.29c-0.06-0.12-0.1-0.26-0.12-0.41c-0.02-0.15-0.04-0.31-0.04-0.48v-0.44
		H98.53z M93.78,63.18v-1.21h-2.61v-6.1h-1.47v7.3H93.78z"/>
	<path style="clip-path:url(#SVGID_00000103232907299009799500000005458793268366588862_);fill:#006165;" d="M33.7,58.94l-0.12,2.59
		c0.24,0.1,0.41,0.3,0.48,0.54l5.05,0.06c0.03-0.17,0.09-0.33,0.19-0.48l-4.12-3.43C34.82,58.63,34.3,58.91,33.7,58.94 M38.22,69.68
		l3.26,3.43c0.12-0.06,0.25-0.1,0.4-0.1c0.16,0,0.3,0.05,0.43,0.12l3.38-3.85c-0.29-0.31-0.46-0.71-0.52-1.14l-6.46,0.33
		C38.67,68.92,38.49,69.34,38.22,69.68 M47.7,69.87l0.32,3.37c0.49,0.02,0.93,0.21,1.28,0.5l5.86-5.7
		c-0.16-0.21-0.26-0.45-0.31-0.71l-5.46,0.49C49.38,68.84,48.65,69.66,47.7,69.87 M61.48,59.56l3.29,2.74
		c0.3-0.29,0.69-0.45,1.12-0.52l-0.38-6.06c-0.34-0.01-0.65-0.13-0.91-0.36l-3.07,2.21c0.16,0.29,0.28,0.6,0.28,0.96
		C61.82,58.91,61.68,59.26,61.48,59.56 M61.75,48.1l-2.71-2.5c-0.14,0.09-0.29,0.16-0.47,0.16l-1.03,4.19
		c0.33,0.14,0.6,0.41,0.76,0.74l3.06-0.94c-0.02-0.13-0.08-0.25-0.08-0.39C61.28,48.88,61.48,48.46,61.75,48.1 M46.95,48.49
		l-2.44-4.09c-0.12,0.05-0.26,0.07-0.4,0.08l-0.99,5.22c0.25,0.12,0.43,0.33,0.52,0.59l2.49-0.26
		C46.13,49.39,46.46,48.84,46.95,48.49 M41.37,54.02l0.81-2.49c-0.32-0.18-0.55-0.51-0.55-0.9c0-0.19,0.07-0.37,0.16-0.52
		l-1.64-1.44c-0.2,0.19-0.44,0.34-0.7,0.44l1.21,4.87c0.08-0.01,0.15-0.05,0.24-0.05C41.06,53.93,41.21,53.99,41.37,54.02
		 M38.81,56.33l-3.12,0.29c0.01,0.07,0.04,0.13,0.04,0.2c0,0.37-0.12,0.71-0.29,1.01l4.17,3.47c0.22-0.18,0.48-0.29,0.78-0.31
		l0.19-2.86C39.64,58,38.93,57.28,38.81,56.33 M41.02,58.19l-0.19,2.87c0.36,0.1,0.66,0.33,0.84,0.65l3.67-1.34
		c0-0.02-0.01-0.04-0.01-0.07c0-0.14,0.04-0.27,0.1-0.39l-2.98-2.37C42.08,57.92,41.58,58.15,41.02,58.19 M42.7,57.16l3.03,2.42
		c0.14-0.09,0.3-0.16,0.47-0.16c0.19,0,0.36,0.07,0.51,0.18l2.68-2.22c-0.2-0.3-0.34-0.64-0.36-1.02l-6.02-0.17
		C42.99,56.55,42.87,56.87,42.7,57.16 M48.9,66.53c0.19,0.25,0.32,0.54,0.39,0.86l5.5-0.49c0.03-0.58,0.34-1.07,0.8-1.37l-1.65-3.13
		c-0.08,0.02-0.15,0.05-0.23,0.05c-0.17,0-0.31-0.06-0.45-0.14L48.9,66.53z M57.98,59.18c-0.07-0.21-0.13-0.42-0.13-0.65
		c0-0.11,0.05-0.21,0.06-0.32l-4.76-1.3c-0.16,0.45-0.46,0.82-0.86,1.08l1.3,2.7c0.04-0.01,0.08-0.02,0.12-0.02
		c0.26,0,0.5,0.12,0.66,0.31L57.98,59.18z M55.68,52.12c-0.14-0.23-0.25-0.49-0.25-0.78c0,0,0-0.01,0-0.01l-5.45-0.79
		c-0.12,0.47-0.4,0.86-0.79,1.13l1.26,2.54c0.22-0.08,0.45-0.14,0.69-0.14c0.58,0,1.1,0.23,1.49,0.61L55.68,52.12z M46.75,51.5
		l-4.1,3.42c0.16,0.25,0.27,0.52,0.32,0.82l6.09,0.17c0.1-0.64,0.46-1.17,0.99-1.49l-1.24-2.52c-0.22,0.08-0.46,0.14-0.7,0.14
		C47.58,52.04,47.11,51.83,46.75,51.5 M50.72,58.27l-2.57,7.63c0.16,0.08,0.31,0.18,0.44,0.3l4.35-4.23
		c-0.08-0.13-0.13-0.27-0.13-0.43c0-0.28,0.14-0.53,0.35-0.69L51.9,58.2c-0.23,0.09-0.48,0.15-0.75,0.15
		C51,58.36,50.86,58.3,50.72,58.27 M42.66,51.67c-0.02,0-0.04-0.01-0.06-0.01l-0.81,2.49c0.22,0.1,0.43,0.23,0.6,0.4l4.08-3.41
		c-0.13-0.2-0.23-0.42-0.28-0.66l-2.52,0.27C43.62,51.26,43.2,51.67,42.66,51.67 M50.21,43.95l-5.02-0.36
		c-0.06,0.21-0.15,0.41-0.31,0.56l2.44,4.09c0.24-0.1,0.5-0.16,0.78-0.16c0.34,0,0.65,0.11,0.93,0.27l1.95-2.84
		C50.53,45.12,50.23,44.58,50.21,43.95 M56,50.19l-2.72-4.41c-0.29,0.14-0.6,0.24-0.94,0.24c-0.36,0-0.68-0.11-0.98-0.27l-1.95,2.84
		c0.41,0.36,0.67,0.88,0.67,1.47c0,0.02-0.01,0.03-0.01,0.04l5.45,0.79C55.62,50.61,55.78,50.37,56,50.19 M58.92,56.79l-1.61-4
		c-0.12,0.03-0.23,0.07-0.36,0.07c-0.38,0-0.72-0.15-0.99-0.38l-3.07,2.57c0.23,0.34,0.39,0.73,0.39,1.17
		c0,0.09-0.04,0.16-0.05,0.25l4.77,1.3C58.18,57.33,58.52,57,58.92,56.79 M60.35,56.64l2.12-5.39c-0.44-0.23-0.81-0.59-1.01-1.05
		l-3.04,0.93c0.01,0.08,0.04,0.14,0.04,0.22c0,0.55-0.3,1-0.74,1.27l1.62,4.02c0.16-0.04,0.31-0.1,0.49-0.1
		C60.02,56.54,60.18,56.6,60.35,56.64 M64.17,64.27c-0.03-0.14-0.08-0.26-0.08-0.41c0-0.45,0.17-0.85,0.41-1.19l-3.28-2.73
		c-0.36,0.35-0.85,0.57-1.39,0.57c-0.17,0-0.32-0.06-0.47-0.1l-1.93,5.02c0.32,0.18,0.59,0.44,0.75,0.78L64.17,64.27z M56.57,65.19
		c0.15,0,0.29,0.05,0.43,0.09l1.93-5.01c-0.31-0.16-0.55-0.4-0.74-0.69l-3.63,1.79c0.01,0.06,0.04,0.12,0.04,0.18
		c0,0.25-0.1,0.47-0.26,0.63l1.65,3.13C56.17,65.24,56.36,65.19,56.57,65.19 M46.58,61.08l0.63,4.6c0.01,0,0.01-0.01,0.02-0.01
		c0.17,0,0.32,0.06,0.48,0.1l2.56-7.61c-0.23-0.1-0.44-0.25-0.62-0.42l-2.65,2.19c0.05,0.11,0.08,0.23,0.08,0.36
		C47.09,60.65,46.88,60.94,46.58,61.08 M45.76,66.28c0.28-0.26,0.63-0.42,1.01-0.51l-0.63-4.61c-0.27-0.02-0.5-0.17-0.65-0.38
		l-3.68,1.34c0.02,0.09,0.05,0.17,0.05,0.26c0,0.23-0.07,0.44-0.17,0.64L45.76,66.28z M39.92,63.68l-2,3.06
		c0.38,0.32,0.62,0.75,0.71,1.26l6.49-0.33c0.03-0.38,0.16-0.72,0.37-1.03l-4.06-3.25c-0.25,0.24-0.59,0.4-0.97,0.4
		C40.27,63.79,40.09,63.75,39.92,63.68 M38.68,49.26c-0.27,0-0.53-0.06-0.77-0.16l-3.21,5.93c0.43,0.27,0.75,0.66,0.91,1.15l3.2-0.3
		c0.08-0.86,0.64-1.55,1.43-1.82l-1.21-4.87C38.9,49.21,38.8,49.26,38.68,49.26 M40.53,46.1c0.17,0.31,0.29,0.64,0.29,1.01
		c0,0.45-0.17,0.84-0.4,1.18l1.68,1.48c0.16-0.11,0.35-0.19,0.56-0.19c0,0,0.01,0,0.01,0l0.99-5.19c-0.15-0.05-0.29-0.13-0.4-0.24
		L40.53,46.1z M57.64,44.93l-3.27-0.52c-0.12,0.45-0.36,0.83-0.72,1.11l2.72,4.42c0.17-0.07,0.36-0.11,0.56-0.11
		c0.05,0,0.1,0.03,0.15,0.03l1.03-4.2C57.86,45.52,57.67,45.25,57.64,44.93 M64.77,53.17c0.03-0.02,0.07-0.02,0.11-0.04l-0.78-1.75
		c-0.21,0.07-0.43,0.14-0.67,0.14c-0.19,0-0.37-0.06-0.54-0.11l-2.12,5.4c0.19,0.11,0.37,0.23,0.52,0.39l3.04-2.19
		C63.98,54.37,64.15,53.57,64.77,53.17 M63.43,68.36c0.13,0,0.26,0.04,0.38,0.08l1.32-2.79c-0.37-0.23-0.69-0.54-0.86-0.94
		l-5.97,1.93c0.02,0.12,0.07,0.22,0.07,0.35c0,0.15-0.05,0.28-0.08,0.41l3.99,1.62C62.53,68.63,62.94,68.36,63.43,68.36
		 M58.84,72.64l3.32-2.29c-0.08-0.18-0.13-0.37-0.13-0.58c0-0.12,0.04-0.23,0.07-0.34l-3.95-1.6c-0.23,0.43-0.62,0.74-1.1,0.87
		l0.39,3.22C58,71.94,58.5,72.22,58.84,72.64 M49.61,74.07c0.17,0.22,0.29,0.46,0.37,0.73l5.39-0.83c0-0.03-0.02-0.06-0.02-0.09
		c0-0.97,0.71-1.74,1.64-1.91l-0.39-3.18c-0.01,0-0.02,0-0.02,0c-0.42,0-0.8-0.17-1.11-0.41L49.61,74.07z M42.79,73.88l3.17,0.75
		c0.26-0.69,0.87-1.18,1.61-1.32l-0.31-3.34c-0.01,0-0.01,0-0.02,0c-0.46,0-0.86-0.18-1.2-0.42l-3.4,3.88
		C42.72,73.56,42.78,73.71,42.79,73.88 M33.9,62.87l1.91,3.5c0.24-0.09,0.49-0.15,0.76-0.15c0.36,0,0.69,0.11,0.99,0.27l2-3.06
		c-0.25-0.22-0.4-0.52-0.45-0.86l-5.03-0.05C34.04,62.65,33.98,62.77,33.9,62.87 M33.13,61.49l0.12-2.59
		c-1.02-0.16-1.82-1.01-1.82-2.08c0-1.18,0.96-2.14,2.14-2.14c0.25,0,0.49,0.06,0.71,0.14l3.22-5.95c-0.58-0.38-0.98-1.01-0.98-1.75
		c0-1.18,0.96-2.14,2.14-2.14c0.65,0,1.21,0.3,1.6,0.75l2.71-1.93c-0.08-0.16-0.12-0.33-0.12-0.51c0-0.66,0.53-1.19,1.19-1.19
		c0.6,0,1.08,0.46,1.16,1.04l5.05,0.36c0.19-1,1.02-1.76,2.06-1.76c1.18,0,2.14,0.96,2.14,2.14c0,0.03-0.02,0.06-0.02,0.1l3.25,0.51
		c0.14-0.32,0.46-0.54,0.83-0.54c0.5,0,0.91,0.41,0.91,0.91c0,0.15-0.04,0.28-0.11,0.41l2.7,2.5c0.38-0.33,0.85-0.54,1.39-0.54
		c1.18,0,2.14,0.96,2.14,2.14c0,0.78-0.44,1.44-1.07,1.82l0.79,1.78c0.54-0.1,1.11,0.12,1.43,0.61c0.43,0.65,0.25,1.52-0.4,1.94
		c-0.11,0.07-0.23,0.1-0.35,0.14l0.38,6.08c1.13,0.06,2.03,0.98,2.03,2.12c0,1.18-0.96,2.14-2.14,2.14c-0.25,0-0.48-0.06-0.7-0.14
		l-1.32,2.78c0.36,0.25,0.62,0.65,0.62,1.13c0,0.77-0.63,1.4-1.4,1.4c-0.41,0-0.76-0.18-1.02-0.45L59.08,73
		c0.14,0.27,0.23,0.56,0.23,0.88c0,1.1-0.89,1.98-1.98,1.98c-0.9,0-1.64-0.62-1.88-1.45l-5.39,0.83c0,0.05,0.02,0.08,0.02,0.13
		c0,1.18-0.96,2.14-2.14,2.14c-1.18,0-2.14-0.96-2.14-2.14c0-0.11,0.05-0.2,0.06-0.31l-3.15-0.74c-0.15,0.32-0.47,0.55-0.85,0.55
		c-0.52,0-0.93-0.42-0.93-0.93c0-0.21,0.08-0.39,0.19-0.54L37.9,70c-0.37,0.3-0.82,0.5-1.33,0.5c-1.18,0-2.14-0.96-2.14-2.14
		c0-0.75,0.41-1.38,0.99-1.76l-1.9-3.49c-0.08,0.02-0.16,0.05-0.25,0.05c-0.47,0-0.85-0.38-0.85-0.85
		C32.42,61.89,32.73,61.56,33.13,61.49 M33.48,77.53c-0.38-0.35-0.72-0.73-1.11-1.12c0.66-0.18,0.89,0.28,1.22,0.53
		c6.71,5.11,14.5,6.61,23.06,4.29c8.36-2.27,13.75-6.96,15.74-14.11c0.38-1.38,0.57-3.16,0.75-4.58c0.08-0.62,0.57-1.38,1.53-1.34
		c2.68,0.13,5.23,0.29,7.77,0.44V46.62L53.78,30.07L25.13,46.62V79.7l28.66,16.54L82.44,79.7V65.09c-0.56,0.01-1.12,0.03-1.68,0.03
		c-1.3,0-1.72,0.43-1.9,1.44C77.27,75.6,69.64,82.7,59,84.65C48.92,86.5,40.36,83.99,33.48,77.53"/>
	<path style="clip-path:url(#SVGID_00000103232907299009799500000005458793268366588862_);fill:#FFFFFF;" d="M65.89,61.78
		c-0.43,0.07-0.82,0.24-1.12,0.52l-3.29-2.74c0.19-0.31,0.33-0.65,0.33-1.04c0-0.35-0.12-0.67-0.28-0.96l3.07-2.21
		c0.25,0.23,0.57,0.36,0.91,0.36L65.89,61.78z M64.87,53.13c-0.03,0.02-0.07,0.02-0.11,0.04c-0.61,0.4-0.79,1.2-0.45,1.84
		l-3.04,2.19c-0.15-0.16-0.33-0.29-0.52-0.39l2.12-5.4c0.18,0.05,0.35,0.11,0.54,0.11c0.24,0,0.45-0.06,0.67-0.13L64.87,53.13z
		 M62.46,51.25l-2.12,5.39c-0.17-0.04-0.33-0.1-0.51-0.1c-0.17,0-0.33,0.06-0.49,0.1l-1.62-4.02c0.43-0.27,0.74-0.72,0.74-1.27
		c0-0.08-0.03-0.14-0.04-0.22l3.04-0.93C61.65,50.66,62.02,51.02,62.46,51.25 M61.75,48.1c-0.27,0.36-0.46,0.79-0.46,1.27
		c0,0.14,0.05,0.26,0.08,0.39l-3.06,0.94c-0.16-0.33-0.42-0.59-0.76-0.74l1.03-4.2c0.18-0.01,0.33-0.07,0.47-0.16L61.75,48.1z
		 M58.13,45.66l-1.03,4.2c-0.05-0.01-0.1-0.03-0.15-0.03c-0.2,0-0.39,0.04-0.56,0.11l-2.72-4.42c0.35-0.28,0.6-0.66,0.72-1.11
		l3.27,0.52C57.67,45.25,57.86,45.52,58.13,45.66 M53.28,45.78L56,50.19c-0.22,0.18-0.39,0.42-0.48,0.7l-5.45-0.79
		c0-0.01,0.01-0.03,0.01-0.04c0-0.59-0.27-1.1-0.67-1.47l1.95-2.84c0.3,0.16,0.62,0.27,0.98,0.27C52.68,46.02,53,45.93,53.28,45.78
		 M50.98,45.5l-1.95,2.83c-0.28-0.15-0.59-0.27-0.94-0.27c-0.28,0-0.54,0.06-0.78,0.16l-2.44-4.08c0.16-0.15,0.25-0.35,0.31-0.56
		l5.02,0.36C50.23,44.58,50.53,45.12,50.98,45.5 M46.95,48.49c-0.48,0.36-0.81,0.9-0.83,1.54l-2.49,0.26
		c-0.09-0.26-0.28-0.47-0.52-0.59l0.99-5.23c0.14-0.01,0.27-0.03,0.4-0.08L46.95,48.49z M43.66,44.4l-0.99,5.19c0,0-0.01,0-0.01,0
		c-0.21,0-0.4,0.08-0.56,0.19l-1.68-1.48c0.23-0.34,0.4-0.73,0.4-1.18c0-0.38-0.12-0.71-0.29-1.01l2.73-1.94
		C43.38,44.27,43.51,44.35,43.66,44.4 M41.79,50.1c-0.09,0.16-0.16,0.33-0.16,0.53c0,0.39,0.23,0.72,0.55,0.9l-0.81,2.49
		c-0.16-0.04-0.31-0.1-0.47-0.1c-0.08,0-0.16,0.04-0.24,0.05l-1.21-4.87c0.26-0.1,0.5-0.25,0.7-0.44L41.79,50.1z M39.01,49.19
		l1.21,4.87c-0.79,0.27-1.35,0.96-1.43,1.82l-3.2,0.3c-0.16-0.49-0.48-0.88-0.91-1.15l3.21-5.93c0.24,0.09,0.5,0.16,0.77,0.16
		C38.8,49.26,38.9,49.21,39.01,49.19 M35.18,58.21l4.12,3.44c-0.09,0.14-0.15,0.3-0.19,0.47l-5.05-0.05
		c-0.07-0.25-0.25-0.45-0.48-0.54l0.12-2.59C34.3,58.91,34.82,58.63,35.18,58.21 M33.9,62.87c0.09-0.1,0.14-0.22,0.18-0.35
		l5.03,0.05c0.05,0.34,0.2,0.64,0.45,0.86l-2,3.06c-0.3-0.16-0.62-0.27-0.98-0.27c-0.27,0-0.52,0.06-0.76,0.15L33.9,62.87z
		 M35.73,56.82c0-0.07-0.03-0.13-0.04-0.2l3.12-0.29c0.12,0.94,0.83,1.67,1.77,1.81L40.38,61c-0.3,0.02-0.56,0.13-0.78,0.31
		l-4.17-3.47C35.6,57.53,35.73,57.2,35.73,56.82 M37.93,66.74l2-3.06c0.17,0.07,0.35,0.11,0.54,0.11c0.38,0,0.72-0.15,0.97-0.4
		l4.06,3.26c-0.2,0.3-0.34,0.64-0.37,1.03L38.64,68C38.55,67.49,38.3,67.06,37.93,66.74 M38.21,69.68c0.28-0.34,0.46-0.76,0.48-1.23
		l6.47-0.33c0.06,0.44,0.23,0.84,0.52,1.15l-3.38,3.85c-0.13-0.07-0.27-0.12-0.43-0.12c-0.15,0-0.28,0.04-0.4,0.1L38.21,69.68z
		 M42.63,73.43l3.4-3.88c0.35,0.25,0.75,0.42,1.21,0.42c0.01,0,0.01,0,0.02,0l0.31,3.34c-0.74,0.14-1.35,0.63-1.61,1.32l-3.16-0.74
		C42.78,73.71,42.72,73.56,42.63,73.43 M47.7,69.87c0.95-0.22,1.68-1.03,1.68-2.04l5.46-0.49c0.06,0.26,0.16,0.5,0.31,0.71
		l-5.86,5.7c-0.35-0.29-0.79-0.49-1.28-0.5L47.7,69.87z M49.61,74.07l5.86-5.7c0.31,0.25,0.68,0.41,1.11,0.41c0.01,0,0.01,0,0.02,0
		l0.39,3.18c-0.92,0.17-1.64,0.94-1.64,1.91c0,0.03,0.02,0.06,0.02,0.09l-5.39,0.83C49.9,74.53,49.78,74.28,49.61,74.07
		 M55.96,52.47c0.27,0.23,0.6,0.38,0.99,0.38c0.13,0,0.24-0.04,0.36-0.07l1.61,4C58.52,57,58.18,57.34,58,57.76l-4.76-1.3
		c0.01-0.08,0.05-0.16,0.05-0.25c0-0.44-0.17-0.83-0.39-1.17L55.96,52.47z M46.75,51.5c0.35,0.33,0.82,0.54,1.35,0.54
		c0.25,0,0.48-0.06,0.7-0.14l1.24,2.52c-0.53,0.32-0.89,0.85-0.99,1.49l-6.09-0.17c-0.05-0.3-0.16-0.58-0.32-0.82L46.75,51.5z
		 M41.8,54.14l0.81-2.49c0.02,0,0.04,0.01,0.06,0.01c0.53,0,0.96-0.41,1.02-0.93l2.52-0.27c0.05,0.24,0.15,0.47,0.28,0.67
		l-4.08,3.41C42.22,54.38,42.02,54.25,41.8,54.14 M41.66,61.7c-0.18-0.32-0.48-0.55-0.84-0.65l0.19-2.87
		c0.56-0.03,1.06-0.27,1.43-0.65l2.98,2.37c-0.06,0.12-0.1,0.25-0.1,0.39c0,0.03,0.01,0.05,0.01,0.07L41.66,61.7z M46.77,65.77
		c-0.38,0.09-0.74,0.25-1.01,0.51l-4.06-3.26c0.1-0.19,0.17-0.4,0.17-0.64c0-0.09-0.04-0.17-0.05-0.26l3.68-1.34
		c0.15,0.21,0.38,0.36,0.65,0.38L46.77,65.77z M46.71,59.6c-0.15-0.11-0.31-0.18-0.51-0.18c-0.18,0-0.33,0.07-0.47,0.16l-3.03-2.41
		c0.18-0.29,0.3-0.61,0.32-0.97l6.02,0.17c0.03,0.38,0.16,0.72,0.36,1.02L46.71,59.6z M47.72,65.78c-0.16-0.04-0.31-0.1-0.48-0.1
		c-0.01,0-0.01,0.01-0.02,0.01l-0.63-4.6c0.29-0.14,0.5-0.44,0.5-0.79c0-0.13-0.03-0.25-0.08-0.36l2.65-2.19
		c0.18,0.17,0.39,0.32,0.62,0.42L47.72,65.78z M48.59,66.2c-0.14-0.11-0.28-0.22-0.44-0.3l2.57-7.63c0.14,0.03,0.28,0.09,0.43,0.09
		c0.27,0,0.52-0.06,0.75-0.15l1.27,2.65c-0.21,0.16-0.35,0.41-0.35,0.69c0,0.16,0.05,0.3,0.13,0.43L48.59,66.2z M53.94,62.39
		l1.65,3.13c-0.45,0.31-0.76,0.79-0.8,1.37l-5.5,0.49c-0.07-0.32-0.2-0.61-0.39-0.86l4.36-4.23c0.13,0.08,0.28,0.14,0.45,0.14
		C53.79,62.43,53.87,62.41,53.94,62.39 M57.85,58.52c0,0.23,0.06,0.45,0.13,0.65l-3.61,1.78c-0.16-0.18-0.4-0.31-0.66-0.31
		c-0.04,0-0.08,0.02-0.12,0.03l-1.3-2.7c0.4-0.26,0.7-0.62,0.86-1.08l4.77,1.3C57.9,58.31,57.85,58.41,57.85,58.52 M55.43,51.35
		c0,0.29,0.1,0.55,0.24,0.78l-3.04,2.56c-0.39-0.37-0.91-0.61-1.49-0.61c-0.25,0-0.47,0.06-0.69,0.14l-1.26-2.54
		c0.39-0.27,0.67-0.66,0.79-1.13l5.45,0.79C55.44,51.34,55.43,51.34,55.43,51.35 M57.01,65.27c-0.14-0.04-0.28-0.09-0.43-0.09
		c-0.21,0-0.4,0.05-0.59,0.12l-1.65-3.13c0.16-0.16,0.26-0.38,0.26-0.63c0-0.06-0.02-0.12-0.04-0.18l3.63-1.79
		c0.19,0.29,0.43,0.53,0.74,0.69L57.01,65.27z M57.04,68.69c0.48-0.13,0.87-0.44,1.1-0.87l3.95,1.6c-0.03,0.11-0.07,0.22-0.07,0.34
		c0,0.21,0.05,0.4,0.14,0.58l-3.32,2.29c-0.34-0.42-0.84-0.7-1.41-0.73L57.04,68.69z M64.09,63.86c0,0.15,0.06,0.27,0.08,0.41
		l-5.99,1.95c-0.16-0.33-0.43-0.6-0.75-0.78l1.93-5.02c0.16,0.04,0.31,0.09,0.47,0.09c0.54,0,1.03-0.22,1.39-0.57l3.28,2.73
		C64.26,63.01,64.09,63.41,64.09,63.86 M62.27,69.01l-3.99-1.61c0.03-0.14,0.08-0.26,0.08-0.41c0-0.12-0.05-0.23-0.07-0.35
		l5.97-1.93c0.18,0.4,0.49,0.72,0.86,0.95l-1.32,2.78c-0.12-0.03-0.25-0.08-0.38-0.08C62.94,68.36,62.52,68.63,62.27,69.01
		 M68.38,63.86c0-1.14-0.9-2.06-2.03-2.12l-0.38-6.08c0.12-0.04,0.24-0.07,0.35-0.14c0.65-0.43,0.83-1.29,0.4-1.94
		c-0.32-0.49-0.89-0.71-1.43-0.61l-0.78-1.78c0.63-0.37,1.07-1.03,1.07-1.82c0-1.18-0.96-2.14-2.14-2.14
		c-0.54,0-1.01,0.22-1.39,0.54l-2.7-2.51c0.06-0.12,0.11-0.26,0.11-0.41c0-0.5-0.41-0.91-0.91-0.91c-0.37,0-0.69,0.22-0.83,0.54
		l-3.25-0.51c0-0.03,0.02-0.06,0.02-0.1c0-1.18-0.96-2.14-2.14-2.14c-1.05,0-1.88,0.77-2.06,1.76l-5.05-0.36
		c-0.08-0.58-0.56-1.04-1.16-1.04c-0.66,0-1.19,0.53-1.19,1.19c0,0.18,0.05,0.35,0.12,0.51l-2.71,1.93
		c-0.39-0.45-0.95-0.75-1.6-0.75c-1.18,0-2.14,0.96-2.14,2.14c0,0.75,0.4,1.37,0.98,1.75l-3.22,5.95c-0.22-0.08-0.46-0.14-0.71-0.14
		c-1.18,0-2.14,0.96-2.14,2.14c0,1.07,0.8,1.91,1.82,2.08l-0.12,2.59c-0.4,0.07-0.72,0.4-0.72,0.82c0,0.47,0.38,0.85,0.85,0.85
		c0.09,0,0.17-0.03,0.25-0.05l1.9,3.49c-0.58,0.38-0.99,1.01-0.99,1.76c0,1.18,0.96,2.14,2.14,2.14c0.51,0,0.96-0.21,1.33-0.5
		l3.23,3.4c-0.11,0.15-0.19,0.33-0.19,0.54c0,0.52,0.42,0.94,0.93,0.94c0.38,0,0.7-0.23,0.85-0.55l3.15,0.74
		c-0.02,0.1-0.06,0.2-0.06,0.31c0,1.18,0.96,2.14,2.14,2.14c1.18,0,2.14-0.96,2.14-2.14c0-0.05-0.02-0.09-0.03-0.13l5.39-0.83
		c0.24,0.83,0.97,1.45,1.88,1.45c1.1,0,1.98-0.89,1.98-1.98c0-0.32-0.09-0.61-0.23-0.88l3.32-2.28c0.26,0.28,0.61,0.45,1.02,0.45
		c0.77,0,1.4-0.63,1.4-1.4c0-0.47-0.25-0.88-0.61-1.13l1.32-2.78c0.22,0.08,0.45,0.14,0.7,0.14C67.42,66,68.38,65.04,68.38,63.86
		 M82.44,65.09v-3.45c-2.54-0.16-5.09-0.31-7.77-0.44c-0.96-0.05-1.45,0.71-1.53,1.34c-0.18,1.42-0.36,3.19-0.75,4.58
		c-1.99,7.15-7.37,11.84-15.74,14.12c-8.56,2.32-16.34,0.83-23.06-4.29c-0.33-0.25-0.56-0.7-1.22-0.53c0.38,0.39,0.73,0.76,1.1,1.11
		c6.88,6.46,15.43,8.97,25.52,7.12c10.64-1.95,18.27-9.05,19.87-18.08c0.18-1.02,0.6-1.44,1.9-1.44
		C81.32,65.12,81.88,65.1,82.44,65.09"/>
</g>
</svg>
