<?xml version="1.0" encoding="utf-8"?>
<!-- Generator: Adobe Illustrator 25.4.1, SVG Export Plug-In . SVG Version: 6.00 Build 0)  -->
<svg version="1.1" id="szbzLogo" xmlns="http://www.w3.org/2000/svg" xmlns:xlink="http://www.w3.org/1999/xlink" x="0px" y="0px"
	 viewBox="0 0 793.08 138.22" style="enable-background:new 0 0 793.08 138.22;" xml:space="preserve">
<style type="text/css">
	
		.st0{clip-path:url(#SVGID_00000105388908296213401080000011469689666266865572_);fill-rule:evenodd;clip-rule:evenodd;fill:#43AC3F;}
	
		.st1{clip-path:url(#SVGID_00000105388908296213401080000011469689666266865572_);fill:none;stroke:#FFFFFF;stroke-width:0.3;stroke-miterlimit:2.6131;}
	
		.st2{clip-path:url(#SVGID_00000105388908296213401080000011469689666266865572_);fill:none;stroke:#FFFFFF;stroke-width:1.5834;stroke-miterlimit:2.6131;}
	.st3{fill-rule:evenodd;clip-rule:evenodd;fill:#FFFFFF;stroke:#43AC3F;stroke-width:0.25;}
	.st4{fill:#FFFFFF;stroke:#43AC3F;stroke-width:0.25;stroke-miterlimit:2.6131;}
	.st5{fill-rule:evenodd;clip-rule:evenodd;fill:#FFFFFF;}
	.st6{fill:none;stroke:#43AC3F;stroke-width:0.3;stroke-miterlimit:2.6131;}
	.st7{fill-rule:evenodd;clip-rule:evenodd;fill:#FFFFFF;stroke:#43AC3F;stroke-width:0.25;stroke-miterlimit:2.6131;}
	.st8{fill-rule:evenodd;clip-rule:evenodd;fill:#43AC3F;}
	.st9{fill:#43AC3F;}
</style>
<g>
	<defs>
		<rect id="SVGID_1_" x="0.27" width="562.3" height="122.14"/>
	</defs>
	<clipPath id="SVGID_00000028283485761879646230000014507942365086983350_">
		<use xlink:href="#SVGID_1_"  style="overflow:visible;"/>
	</clipPath>
	
		<polyline style="clip-path:url(#SVGID_00000028283485761879646230000014507942365086983350_);fill-rule:evenodd;clip-rule:evenodd;fill:#43AC3F;" points="
		0,47.16 78.87,47.16 78.87,122.6 0,122.6 0,47.16 	"/>
	
		<polygon style="clip-path:url(#SVGID_00000028283485761879646230000014507942365086983350_);fill:none;stroke:#FFFFFF;stroke-width:0.3;stroke-miterlimit:2.6131;" points="
		0,47.16 78.87,47.16 78.87,122.6 0,122.6 0,47.16 	"/>
	
		<polyline style="clip-path:url(#SVGID_00000028283485761879646230000014507942365086983350_);fill-rule:evenodd;clip-rule:evenodd;fill:#43AC3F;" points="
		42.61,-0.56 121.48,-0.56 121.48,74.88 42.61,74.88 42.61,-0.56 	"/>
	
		<polygon style="clip-path:url(#SVGID_00000028283485761879646230000014507942365086983350_);fill:none;stroke:#FFFFFF;stroke-width:1.5834;stroke-miterlimit:2.6131;" points="
		42.61,-0.56 121.48,-0.56 121.48,74.88 42.61,74.88 42.61,-0.56 	"/>
</g>
<path class="st3" d="M86.3,24.81V6.96h-2.47c-0.41,1.56-0.82,2.8-2.72,2.8c-2.39,0-6.24-2.72-12.83-2.72
	c-15.63,0-18.18,11.18-18.18,16.2c0,3.79,0,10.86,14.06,17.6l5.51,2.63c5.34,2.55,9.21,4.53,9.21,10.04c0,1.07-0.41,9.21-10.28,9.21
	c-10.45,0-15.22-9.29-16.86-17.6h-2.39v20.33h2.39c0.33-1.32,0.74-2.81,2.47-2.81c2.55,0,6.24,2.81,14.06,2.81
	c15.13,0,20.4-9.97,20.4-17.2c0-8.97-6.26-13.73-9.05-15.13l-12.09-6.01c-6.9-3.46-8.47-5.27-8.47-9.7c0-5.35,4.53-7.82,8.8-7.82
	c9.7,0,14.64,9.45,16.12,15.22H86.3"/>
<path class="st4" d="M86.3,24.81V6.96h-2.47c-0.41,1.56-0.82,2.8-2.72,2.8c-2.39,0-6.24-2.72-12.83-2.72
	c-15.63,0-18.18,11.18-18.18,16.2c0,3.79,0,10.86,14.06,17.6l5.51,2.63c5.34,2.55,9.21,4.53,9.21,10.04c0,1.07-0.41,9.21-10.28,9.21
	c-10.45,0-15.22-9.29-16.86-17.6h-2.39v20.33h2.39c0.33-1.32,0.74-2.81,2.47-2.81c2.55,0,6.24,2.81,14.06,2.81
	c15.13,0,20.4-9.97,20.4-17.2c0-8.97-6.26-13.73-9.05-15.13l-12.09-6.01c-6.9-3.46-8.47-5.27-8.47-9.7c0-5.35,4.53-7.82,8.8-7.82
	c9.7,0,14.64,9.45,16.12,15.22H86.3L86.3,24.81z"/>
<path class="st3" d="M116.06,49.36h-1.71c-3.43,13.85-10.55,13.79-25.26,13.59l25-41.22v-1.05H79.53l-1.39,13.59h1.85
	c1.19-3.36,3.03-8.77,7.98-10.29c2.18-0.66,2.18-0.66,13.32-0.98L76.1,64.2v1.06h38.24L116.06,49.36"/>
<path class="st4" d="M116.06,49.36h-1.71c-3.43,13.85-10.55,13.79-25.26,13.59l25-41.22v-1.05H79.53l-1.39,13.59h1.85
	c1.19-3.36,3.03-8.77,7.98-10.29c2.18-0.66,2.18-0.66,13.32-0.98L76.1,64.2v1.06h38.24L116.06,49.36L116.06,49.36z"/>
<path class="st5" d="M20.95,83.87h2.47C28.76,84.12,36,85.35,36,97.12c0,5.01-1.07,12.33-10.11,12.33c-3.46,0-4.94-1.32-4.94-5.02
	V83.87L20.95,83.87z M20.95,62.99c0.08-1.89,0.16-4.03,4.36-4.03c6.66,0,8.47,4.86,8.47,10.61c0,8.38-1.81,11.84-12.83,11.84V62.99
	L20.95,62.99z M0.55,112.09h26.48c17.35-0.33,23.12-8.39,23.12-15.3c0-9.38-8.63-13.5-15.54-14.65v-0.17
	c3.46-1.07,12.75-3.21,12.75-12.33c0-12.83-16.78-13.16-21.38-13.16H0.55v2.06c3.79,0.25,7.24,0.41,7.24,5.84v39.8
	c0,5.02-2.63,5.35-7.24,5.84V112.09"/>
<path class="st6" d="M20.95,83.87h2.47C28.76,84.12,36,85.35,36,97.12c0,5.01-1.07,12.33-10.11,12.33c-3.46,0-4.94-1.32-4.94-5.02
	V83.87L20.95,83.87z M20.95,62.99c0.08-1.89,0.16-4.03,4.36-4.03c6.66,0,8.47,4.86,8.47,10.61c0,8.38-1.81,11.84-12.83,11.84V62.99
	L20.95,62.99z M0.55,112.09h26.48c17.35-0.33,23.12-8.39,23.12-15.3c0-9.38-8.63-13.5-15.54-14.65v-0.17
	c3.46-1.07,12.75-3.21,12.75-12.33c0-12.83-16.78-13.16-21.38-13.16H0.55v2.06c3.79,0.25,7.24,0.41,7.24,5.84v39.8
	c0,5.02-2.63,5.35-7.24,5.84V112.09L0.55,112.09z"/>
<path class="st7" d="M77.96,97.56h-1.71c-3.43,13.84-10.55,13.79-25.26,13.58l25-41.22v-1.05H41.43l-1.39,13.59h1.85
	c1.18-3.36,3.03-8.77,7.98-10.29c2.18-0.66,2.18-0.66,13.32-0.98L38,112.4v1.06h38.24L77.96,97.56"/>
<path class="st6" d="M77.96,97.56h-1.71c-3.43,13.84-10.55,13.79-25.26,13.58l25-41.22v-1.05H41.43l-1.39,13.59h1.85
	c1.18-3.36,3.03-8.77,7.98-10.29c2.18-0.66,2.18-0.66,13.32-0.98L38,112.4v1.06h38.24L77.96,97.56L77.96,97.56z"/>
<path class="st8" d="M46.82,74.08c2.35-0.03,4.73,0.03,7.13-0.17c2.53-0.2,5.09-0.67,7.58-0.92c-0.15,0.73-0.43,1.49-0.85,2.23
	c-0.45,0.77-0.89,1.51-1.57,2.3c-2.38-0.08-4.73-0.58-7.08-0.27c-2.89,0.38-5.92,1.84-8.69,2.45c0.24-0.89,0.5-1.83,0.98-2.73
	C44.83,76,45.66,75.07,46.82,74.08"/>
<path class="st6" d="M46.82,74.08c2.35-0.03,4.73,0.03,7.13-0.17c2.53-0.2,5.09-0.67,7.58-0.92c-0.15,0.73-0.43,1.49-0.85,2.23
	c-0.45,0.77-0.89,1.51-1.57,2.3c-2.38-0.08-4.73-0.58-7.08-0.27c-2.89,0.38-5.92,1.84-8.69,2.45c0.24-0.89,0.5-1.83,0.98-2.73
	C44.83,76,45.66,75.07,46.82,74.08L46.82,74.08z"/>
<path d="M142.36,51.5c5.06,2.26,10.53,3.31,15.94,3.31c9.92,0,17.72-6.28,17.72-15.37c0-19.6-26.4-15.44-26.4-26.51
	c0-4.58,3.28-7.69,7.73-7.69c6.98,0,11.9,5.71,13.2,12.62h2.32l-0.55-12.06c-6.22-2.4-9.78-3.1-13.82-3.1
	c-7.46,0-16.01,4.44-16.01,15.16c0,17.7,26.95,13.61,26.95,26.09c0,6.06-5.13,8.32-10.53,8.32c-8.82,0-14.43-8.11-14.78-15.3h-2.39
	L142.36,51.5"/>
<path d="M178,53.97h19.7v-2.12h-4.92V19c-3.49,0.28-7.05,0.42-10.54,0.42H178v2.12h4.93v30.32H178V53.97L178,53.97z M182.52,8.21
	c0,3.03,2.39,5.5,5.33,5.5c2.94,0,5.34-2.47,5.34-5.5c0-3.03-2.39-5.5-5.34-5.5C184.91,2.71,182.52,5.18,182.52,8.21"/>
<path d="M198.11,53.97h19.7v-2.12h-4.93V31.69c0-5.92,3.76-9.73,7.59-9.73c2.8,0,5.34,1.34,5.34,6.84v23.05h-4.93v2.12h19.7v-2.12
	h-4.93V30.21c0-7.83-4.86-11.63-11.77-11.63c-4.79,0-8.55,1.9-10.88,5.64h-0.14V19c-3.49,0.28-7.05,0.42-10.53,0.42h-4.24v2.12h4.93
	v30.32h-4.93V53.97"/>
<path d="M267.47,54.39c4.1-0.28,8.07-0.35,14.78-0.42v-2.12h-4.92V3.13c-3.49,0.28-7.05,0.42-10.53,0.42h-4.24v2.11h4.93v17.98
	h-0.14c-1.57-3.53-5.2-5.08-9.51-5.08c-10.06,0-15.32,8.6-15.32,18.12c0,9.8,4.38,18.12,14.78,18.12c3.69,0,7.59-0.78,10.06-4.94
	h0.14V54.39L267.47,54.39z M267.68,36.7c0,6.7-0.48,15.16-7.66,15.16c-5.27,0-7.11-4.94-7.11-15.16c0-8.39,0.34-15.16,7.11-15.16
	C267.2,21.54,267.68,30.98,267.68,36.7"/>
<path d="M316.71,34.93c0-10.44-6.98-16.36-15.87-16.36c-10.46,0-17.78,7.69-17.78,18.12c0,11.07,7.18,18.12,17.78,18.12
	c7.05,0,12.52-3.53,15.25-10.58l-1.85-0.85c-2.26,5.08-5.88,8.46-11.63,8.46c-7.8,0-8.89-7.62-8.89-13.89v-3.03H316.71L316.71,34.93
	z M293.72,32.82c0.21-4.51,0.34-12.13,6.7-12.13c4.65,0,5.61,4.87,5.61,8.88v3.24H293.72"/>
<path d="M318.07,53.97h19.7v-2.12h-4.92V3.13c-3.49,0.28-7.05,0.42-10.54,0.42h-4.24v2.11H323v46.18h-4.93V53.97"/>
<path d="M337.64,53.97h20.45v-2.12h-5.68V21.54h12.72v30.32h-4.93v2.12h19.7v-2.12h-4.93V19c-4.11,0.28-8.07,0.35-14.78,0.42h-7.8
	v-4.09c0-6.7,1.3-10.51,8.62-10.51c2.33,0,4.58,0.49,6.7,1.55c-1.37,0.92-2.39,2.54-2.39,4.3c0,2.82,1.71,4.72,4.51,4.72
	c4.04,0,4.86-2.61,4.86-5.01c0-6.06-9.78-7.69-14.29-7.69c-11.01,0-17.85,3.6-17.85,13.04v3.67h-4.93v2.12h4.93v30.32h-4.93V53.97"
	/>
<path d="M379.78,53.97h19.7v-2.12h-4.93V31.69c0-5.92,3.76-9.73,7.59-9.73c2.81,0,5.33,1.34,5.33,6.84v23.05h-4.93v2.12h19.7v-2.12
	h-4.93V30.21c0-7.83-4.86-11.63-11.77-11.63c-4.79,0-8.55,1.9-10.88,5.64h-0.14V19c-3.49,0.28-7.05,0.42-10.53,0.42h-4.24v2.12h4.92
	v30.32h-4.92V53.97"/>
<path d="M452.62,60.03c0,6.91-8.96,7.33-12.65,7.33c-5.33,0-10.12-1.9-10.12-6.63c0-6.35,4.79-6.56,10.67-6.56
	C444.41,54.18,452.62,54.18,452.62,60.03L452.62,60.03z M440.79,38.46c-4.58,0-4.58-5.85-4.58-8.88c0-3.03,0-8.88,4.58-8.88
	c4.58,0,4.58,5.85,4.58,8.88C445.37,32.61,445.37,38.46,440.79,38.46L440.79,38.46z M434.57,45.16c-2.67-0.07-5.88-0.63-5.88-3.53
	c0-1.55,1.09-2.4,3.56-3.53c2.53,1.83,5.27,2.47,8.35,2.47c6.5,0,13.41-3.31,13.41-10.93c0-2.12-0.55-4.16-1.51-6.06
	c0.82-0.85,1.57-1.62,2.12-1.62c0.48,0,0.89,0.35,0.89,1.13c0,1.62,0.07,3.95,3.35,3.95c1.71,0,3.22-1.06,3.22-3.1
	c0-3.1-2.46-5.36-5.13-5.36c-3.08,0-4.52,2.19-5.75,3.67c-2.6-2.61-6.43-3.67-9.99-3.67c-7.18,0-13.61,3.6-13.61,11.63
	c0,2.61,1.44,5.22,3.01,6.63c-3.42,1.34-6.02,4.44-6.02,8.32c0,4.51,2.73,7.76,7.04,8.18v0.14c-3.76,0.49-7.93,2.75-7.93,7.19
	c0,8.04,12.38,8.81,16.07,8.81c9.85,0,18.61-3.67,18.61-13.82c0-9.59-8.28-10.01-15.39-10.22L434.57,45.16"/>
<path d="M496.81,34.93c0-10.44-6.98-16.36-15.87-16.36c-10.47,0-17.78,7.69-17.78,18.12c0,11.07,7.18,18.12,17.78,18.12
	c7.05,0,12.52-3.53,15.25-10.58l-1.85-0.85c-2.26,5.08-5.88,8.46-11.63,8.46c-7.8,0-8.89-7.62-8.89-13.89v-3.03H496.81L496.81,34.93
	z M473.83,32.82c0.21-4.51,0.34-12.13,6.7-12.13c4.65,0,5.61,4.87,5.61,8.88v3.24H473.83"/>
<path d="M498.18,53.97h19.7v-2.12h-4.93V36.98c0-5.5,1.57-15.02,5.54-15.02c0.96,0,1.3,0.56,1.3,1.41c0,1.06-0.14,1.27-0.14,3.31
	c0,2.33,1.5,3.74,4.17,3.74c3.07,0,4.44-1.83,4.44-4.72c0-4.02-2.26-7.12-6.57-7.12c-3.83,0-7.25,2.54-8.62,6.13h-0.14V19
	c-3.49,0.28-7.05,0.42-10.53,0.42h-4.24v2.12h4.92v30.32h-4.92V53.97"/>
<path d="M546.68,19.84c0.96-11.14,10.6-14.17,17.99-14.17h6.7l-31.05,48.3h43.3v-17.2h-2.05c-1.3,11.56-9.99,15.09-18.2,15.09h-9.3
	l31.06-48.3h-40.5v16.29H546.68"/>
<path d="M619.53,34.93c0-10.44-6.98-16.36-15.87-16.36c-10.47,0-17.79,7.69-17.79,18.12c0,11.07,7.18,18.12,17.79,18.12
	c7.05,0,12.52-3.53,15.25-10.58l-1.85-0.85c-2.26,5.08-5.88,8.46-11.63,8.46c-7.8,0-8.89-7.62-8.89-13.89v-3.03H619.53L619.53,34.93
	z M596.55,32.82c0.21-4.51,0.34-12.13,6.7-12.13c4.65,0,5.61,4.87,5.61,8.88v3.24H596.55"/>
<path d="M620.9,53.97h19.7v-2.12h-4.92V19c-3.49,0.28-7.05,0.42-10.54,0.42h-4.24v2.12h4.93v30.32h-4.93V53.97L620.9,53.97z
	 M625.41,8.21c0,3.03,2.39,5.5,5.34,5.5c2.94,0,5.33-2.47,5.33-5.5c0-3.03-2.4-5.5-5.33-5.5C627.81,2.71,625.41,5.18,625.41,8.21"/>
<path d="M645.94,19.42h-4.92v2.12h4.92v24.04c0,8.6,4.58,9.24,8.76,9.24c4.1,0,7.59-0.71,10.54-3.88l-1.23-1.34
	c-1.03,0.99-2.46,2.26-4.72,2.26c-3.49,0-3.49-3.31-3.49-5.64V21.54h6.91v-2.12h-6.91V9.69h-9.85V19.42"/>
<path d="M702.44,19c-3.49,0.28-7.04,0.42-10.53,0.42h-4.24v2.12h4.93v18.62c0,7.54-3.22,11.28-7.59,11.28
	c-2.81,0-5.34-0.71-5.34-6.13V19c-3.49,0.28-7.05,0.42-10.53,0.42h-4.24v2.12h4.93v21.65c0,9.1,4.86,11.63,11.77,11.63
	c4.24,0,8.55-1.9,10.88-5.78h0.13v5.36c4.11-0.28,8.07-0.35,14.77-0.42v-2.12h-4.93V19"/>
<path d="M707.77,53.97h19.7v-2.12h-4.92V31.69c0-5.92,3.76-9.73,7.59-9.73c2.8,0,5.34,1.34,5.34,6.84v23.05h-4.93v2.12h19.7v-2.12
	h-4.93V30.21c0-7.83-4.86-11.63-11.77-11.63c-4.79,0-8.55,1.9-10.88,5.64h-0.14V19c-3.49,0.28-7.05,0.42-10.53,0.42h-4.24v2.12h4.93
	v30.32h-4.93V53.97"/>
<path d="M780.63,60.03c0,6.91-8.96,7.33-12.66,7.33c-5.34,0-10.12-1.9-10.12-6.63c0-6.35,4.79-6.56,10.67-6.56
	C772.42,54.18,780.63,54.18,780.63,60.03L780.63,60.03z M768.79,38.46c-4.58,0-4.58-5.85-4.58-8.88c0-3.03,0-8.88,4.58-8.88
	c4.58,0,4.58,5.85,4.58,8.88C773.37,32.61,773.37,38.46,768.79,38.46L768.79,38.46z M762.57,45.16c-2.67-0.07-5.88-0.63-5.88-3.53
	c0-1.55,1.09-2.4,3.55-3.53c2.53,1.83,5.27,2.47,8.35,2.47c6.5,0,13.41-3.31,13.41-10.93c0-2.12-0.55-4.16-1.5-6.06
	c0.82-0.85,1.57-1.62,2.12-1.62c0.48,0,0.89,0.35,0.89,1.13c0,1.62,0.07,3.95,3.35,3.95c1.71,0,3.22-1.06,3.22-3.1
	c0-3.1-2.46-5.36-5.13-5.36c-3.08,0-4.51,2.19-5.75,3.67c-2.6-2.61-6.43-3.67-9.99-3.67c-7.18,0-13.61,3.6-13.61,11.63
	c0,2.61,1.44,5.22,3.01,6.63c-3.42,1.34-6.02,4.44-6.02,8.32c0,4.51,2.74,7.76,7.05,8.18v0.14c-3.76,0.49-7.94,2.75-7.94,7.19
	c0,8.04,12.38,8.81,16.08,8.81c9.85,0,18.6-3.67,18.6-13.82c0-9.59-8.28-10.01-15.39-10.22L762.57,45.16"/>
<path class="st9" d="M160.27,92.51h5.68c8.84,0,11.75,3.77,11.75,12.6c0,10.45-4.46,13.9-13.06,13.9h-4.38V92.51L160.27,92.51z
	 M160.27,68.7h4.46c7.76,0,9.99,3.23,9.99,10.83c0,7.68-2.69,10.68-9.53,10.68h-4.92V68.7L160.27,68.7z M140.91,121.32h30.65
	c13.14,0,19.05-6.45,19.05-15.06c0-10.45-8.91-15.06-18.21-15.29v-0.15c7.84-0.54,14.75-4.46,14.75-13.14
	c0-9.3-7.61-11.29-17.21-11.29h-29.04v2.31h7.38v50.32h-7.38V121.32"/>
<path class="st9" d="M222.42,102.5c0,8.99,0,17.44-7.99,17.44c-7.99,0-7.99-8.45-7.99-17.44c0-8.99,0-17.44,7.99-17.44
	C222.42,85.06,222.42,93.51,222.42,102.5L222.42,102.5z M234.4,102.5c0-11.37-8.22-19.74-19.97-19.74
	c-11.75,0-19.97,8.37-19.97,19.74c0,12.06,8.07,19.74,19.97,19.74C226.18,122.24,234.4,113.87,234.4,102.5L234.4,102.5z
	 M201.29,73.08c0,2.77,2.31,5.07,5.07,5.07s5.07-2.3,5.07-5.07s-2.3-5.07-5.07-5.07S201.29,70.31,201.29,73.08L201.29,73.08z
	 M217.42,73.08c0,2.77,2.3,5.07,5.07,5.07c2.77,0,5.07-2.3,5.07-5.07s-2.3-5.07-5.07-5.07C219.73,68.01,217.42,70.31,217.42,73.08"
	/>
<path class="st9" d="M251.15,102.5c0-6.22,0.54-16.52,8.6-16.52c7.61,0,7.99,7.37,7.99,16.52c0,11.14-2.07,16.52-7.99,16.52
	C251.69,119.02,251.15,109.8,251.15,102.5L251.15,102.5z M240.32,121.32h11.06v-4.91h0.15c1.84,4.07,5.92,5.84,9.99,5.84
	c10.68,0,18.21-9.22,18.21-19.74c0-10.37-5.92-19.74-17.21-19.74c-4.84,0-8.84,1.84-10.99,5.76h-0.15V65.93
	c-3.92,0.31-7.91,0.46-11.83,0.46h-4.76v2.31h5.53V121.32"/>
<path class="st9" d="M281.88,121.32H304v-2.31h-5.53V65.93c-3.92,0.31-7.91,0.46-11.83,0.46h-4.76v2.31h5.53v50.32h-5.53V121.32"/>
<path class="st9" d="M304.47,121.32h22.13v-2.31h-5.53v-35.8c-3.92,0.31-7.91,0.46-11.83,0.46h-4.76v2.31H310v33.03h-5.53V121.32
	L304.47,121.32z M309.54,71.46c0,3.3,2.69,5.99,5.99,5.99c3.3,0,5.99-2.69,5.99-5.99c0-3.3-2.69-5.99-5.99-5.99
	C312.22,65.47,309.54,68.16,309.54,71.46"/>
<path class="st9" d="M327.05,121.32h22.12v-2.31h-5.53V97.04c0-6.45,4.23-10.6,8.53-10.6c3.15,0,5.99,1.46,5.99,7.45v25.12h-5.53
	v2.31h22.13v-2.31h-5.53V95.43c0-8.53-5.45-12.67-13.21-12.67c-5.38,0-9.6,2.07-12.22,6.15h-0.15v-5.69
	c-3.92,0.31-7.91,0.46-11.83,0.46h-4.76v2.31h5.53v33.03h-5.53V121.32"/>
<path class="st9" d="M408.87,127.93c0,7.53-10.06,7.99-14.21,7.99c-5.99,0-11.37-2.07-11.37-7.22c0-6.91,5.38-7.14,11.98-7.14
	C399.65,121.55,408.87,121.55,408.87,127.93L408.87,127.93z M395.58,104.42c-5.15,0-5.15-6.38-5.15-9.68c0-3.3,0-9.68,5.15-9.68
	c5.15,0,5.15,6.38,5.15,9.68C400.73,98.04,400.73,104.42,395.58,104.42L395.58,104.42z M388.59,111.72
	c-2.99-0.08-6.61-0.69-6.61-3.84c0-1.69,1.23-2.61,4-3.84c2.84,2,5.91,2.69,9.37,2.69c7.3,0,15.06-3.61,15.06-11.91
	c0-2.3-0.61-4.53-1.69-6.61c0.92-0.92,1.77-1.77,2.38-1.77c0.54,0,1,0.38,1,1.23c0,1.77,0.08,4.3,3.76,4.3
	c1.92,0,3.61-1.15,3.61-3.38c0-3.38-2.77-5.84-5.76-5.84c-3.46,0-5.07,2.38-6.46,3.99c-2.92-2.84-7.22-3.99-11.22-3.99
	c-8.07,0-15.29,3.92-15.29,12.67c0,2.84,1.62,5.69,3.38,7.22c-3.84,1.46-6.76,4.84-6.76,9.07c0,4.92,3.07,8.45,7.91,8.91v0.15
	c-4.23,0.54-8.91,3-8.91,7.84c0,8.76,13.9,9.6,18.05,9.6c11.06,0,20.9-4,20.9-15.06c0-10.45-9.3-10.91-17.29-11.14L388.59,111.72"/>
<path class="st9" d="M458.5,100.58c0-11.37-7.84-17.82-17.82-17.82c-11.75,0-19.98,8.37-19.98,19.74c0,12.06,8.07,19.74,19.98,19.74
	c7.91,0,14.06-3.84,17.13-11.52l-2.08-0.92c-2.53,5.53-6.61,9.22-13.06,9.22c-8.76,0-9.99-8.3-9.99-15.13v-3.3H458.5L458.5,100.58z
	 M432.68,98.27c0.23-4.92,0.39-13.21,7.53-13.21c5.22,0,6.3,5.3,6.3,9.68v3.53H432.68"/>
<path class="st9" d="M460.04,121.32h22.13v-2.31h-5.53v-16.21c0-5.99,1.77-16.36,6.22-16.36c1.07,0,1.46,0.61,1.46,1.54
	c0,1.15-0.15,1.38-0.15,3.61c0,2.54,1.69,4.07,4.69,4.07c3.45,0,4.99-2,4.99-5.15c0-4.38-2.54-7.76-7.38-7.76
	c-4.3,0-8.14,2.77-9.68,6.68h-0.15v-6.22c-3.92,0.31-7.91,0.46-11.83,0.46h-4.76v2.31h5.53v33.03h-5.53V121.32"/>
<path class="st9" d="M520.29,84.14C521.37,72,532.2,68.7,540.5,68.7h7.53l-34.88,52.62h48.63v-18.74h-2.31
	c-1.46,12.6-11.22,16.44-20.44,16.44h-10.45l34.88-52.62h-45.48v17.75H520.29"/>
<path class="st9" d="M602.11,100.58c0-11.37-7.83-17.82-17.82-17.82c-11.75,0-19.97,8.37-19.97,19.74
	c0,12.06,8.07,19.74,19.97,19.74c7.91,0,14.06-3.84,17.13-11.52l-2.07-0.92c-2.54,5.53-6.61,9.22-13.06,9.22
	c-8.76,0-9.99-8.3-9.99-15.13v-3.3H602.11L602.11,100.58z M576.3,98.27c0.23-4.92,0.38-13.21,7.53-13.21c5.23,0,6.3,5.3,6.3,9.68
	v3.53H576.3"/>
<path class="st9" d="M603.65,121.32h22.13v-2.31h-5.53v-35.8c-3.92,0.31-7.91,0.46-11.83,0.46h-4.76v2.31h5.53v33.03h-5.53V121.32
	L603.65,121.32z M608.72,71.46c0,3.3,2.69,5.99,5.99,5.99c3.3,0,5.99-2.69,5.99-5.99c0-3.3-2.69-5.99-5.99-5.99
	C611.41,65.47,608.72,68.16,608.72,71.46"/>
<path class="st9" d="M631.76,83.68h-5.53v2.31h5.53v26.2c0,9.37,5.15,10.06,9.83,10.06c4.61,0,8.53-0.77,11.83-4.22l-1.38-1.46
	c-1.15,1.07-2.76,2.46-5.3,2.46c-3.92,0-3.92-3.61-3.92-6.15V85.98h7.76v-2.31h-7.76v-10.6h-11.06V83.68"/>
<path class="st9" d="M695.22,83.22c-3.92,0.31-7.91,0.46-11.83,0.46h-4.76v2.31h5.53v20.28c0,8.22-3.61,12.29-8.53,12.29
	c-3.15,0-5.99-0.77-5.99-6.68V83.22c-3.92,0.31-7.91,0.46-11.83,0.46h-4.76v2.31h5.53v23.59c0,9.91,5.46,12.68,13.22,12.68
	c4.76,0,9.6-2.07,12.21-6.3h0.16v5.84c4.61-0.31,9.06-0.38,16.59-0.46v-2.31h-5.53V83.22"/>
<path class="st9" d="M701.41,121.29h21.33V119h-5.33V97.17c0-6.41,4.07-10.54,8.22-10.54c3.04,0,5.78,1.45,5.78,7.41V119h-5.33v2.29
	h21.33V119h-5.33V95.56c0-8.48-5.26-12.6-12.74-12.6c-5.18,0-9.26,2.06-11.78,6.11h-0.15v-5.65c-3.78,0.31-7.63,0.46-11.41,0.46
	h-4.59v2.29h5.33V119h-5.33V121.29"/>
<path class="st9" d="M782.52,127.3c0,7.73-10.02,8.2-14.16,8.2c-5.97,0-11.32-2.13-11.32-7.41c0-7.1,5.35-7.33,11.93-7.33
	C773.34,120.76,782.52,120.76,782.52,127.3L782.52,127.3z M769.29,103.17c-5.13,0-5.13-6.55-5.13-9.94c0-3.39,0-9.94,5.13-9.94
	c5.13,0,5.13,6.55,5.13,9.94C774.41,96.62,774.41,103.17,769.29,103.17L769.29,103.17z M762.32,110.66
	c-2.98-0.08-6.58-0.71-6.58-3.94c0-1.74,1.22-2.68,3.98-3.94c2.83,2.05,5.89,2.76,9.34,2.76c7.27,0,14.99-3.71,14.99-12.23
	c0-2.36-0.61-4.65-1.68-6.78c0.92-0.95,1.76-1.81,2.37-1.81c0.54,0,1,0.39,1,1.26c0,1.81,0.08,4.42,3.75,4.42
	c1.91,0,3.6-1.18,3.6-3.47c0-3.47-2.75-5.99-5.74-5.99c-3.44,0-5.05,2.45-6.43,4.1c-2.91-2.92-7.19-4.1-11.17-4.1
	c-8.03,0-15.22,4.02-15.22,13.01c0,2.92,1.61,5.84,3.37,7.41c-3.83,1.5-6.73,4.97-6.73,9.31c0,5.05,3.06,8.68,7.88,9.15v0.16
	c-4.21,0.55-8.87,3.07-8.87,8.04c0,8.99,13.85,9.86,17.98,9.86c11.02,0,20.81-4.1,20.81-15.46c0-10.72-9.26-11.2-17.22-11.43
	L762.32,110.66"/>
</svg>
