<?xml version="1.0" encoding="UTF-8"?>
<svg id="Ebene_1" data-name="Ebene 1" xmlns="http://www.w3.org/2000/svg" viewBox="0 0 1080 1080">
  <defs>
    <style>
      .cls-1 {
        fill: #629f44;
      }

      .cls-2 {
        fill: #00b3e3;
      }

      .cls-3 {
        fill: #ffdc35;
      }
    </style>
  </defs>
  <g id="Icon:_Bunt" data-name="Icon: Bunt">
    <path id="Erde" class="cls-1" d="M751.04,818.98c-54.82-51.93-128.61-84.05-209.99-84.05s-156.4,32.46-211.29,84.87l210.19,210.21,211.1-211.03Z"/>
    <polygon id="Zukunft" class="cls-2" points="681.11 540.04 726.67 585.61 858.2 585.61 792.44 651.35 855.91 714.8 1030 539.27 855.96 365.23 792.39 428.66 859.41 495.75 725.37 495.75 681.11 540.04"/>
    <g id="Regen">
      <path class="cls-2" d="M633.2,626.29c3.01,18.92-9.83,36.75-28.87,39.81-18.96,2.96-36.72-9.88-39.74-28.8-3.11-19.01,9.81-36.77,28.77-39.81,18.94-3.11,36.73,9.83,39.84,28.8"/>
      <path class="cls-2" d="M520.25,502.45c3.11,18.94-9.83,36.77-28.8,39.76-18.94,3.13-36.7-9.83-39.76-28.73-3.06-18.99,9.86-36.82,28.75-39.81,18.97-3.11,36.8,9.81,39.81,28.78"/>
      <path class="cls-2" d="M667.92,433c3.04,18.85-9.83,36.68-28.82,39.74-18.96,3.11-36.75-9.83-39.81-28.8-3.08-18.94,9.86-36.78,28.77-39.81,18.99-3.06,36.75,9.88,39.86,28.87"/>
      <path class="cls-2" d="M520.25,356.1c3.06,19.06-9.83,36.85-28.8,39.84-18.92,3.04-36.75-9.88-39.76-28.73-3.06-19.01,9.86-36.85,28.77-39.81,18.94-3.13,36.77,9.83,39.79,28.7"/>
    </g>
    <g id="Technik">
      <path class="cls-2" d="M407.57,540.09c0,89.08-33.8,178.17-101.67,246.27-1.73,1.73-3.21,3.21-4.94,4.69l-42.44-42.44c1.73-1.23,3.46-2.96,5.18-4.69,112.28-112.52,112.28-295.38,0-407.66-1.73-1.73-3.21-3.21-4.94-4.93l42.2-42.2c1.73,1.48,3.21,2.96,4.94,4.69,67.86,67.86,101.67,156.94,101.67,246.27Z"/>
      <path class="cls-2" d="M301.95,540.09c0,64.65-25.17,125.36-71.07,171.25-1.48,1.48-3.21,3.21-4.93,4.69l-42.45-42.44c1.73-1.48,3.46-2.96,5.18-4.69,34.3-34.3,53.3-80.2,53.3-128.81s-19-94.51-53.3-128.81c-1.73-1.73-3.46-3.46-5.18-4.69l42.45-42.44c1.73,1.48,3.21,2.96,4.93,4.69,22.95,22.95,40.71,49.6,52.81,78.47,11.85,29.12,18.26,60.46,18.26,92.78Z"/>
      <path class="cls-2" d="M156.11,636.33c-1.73,1.73-3.46,3.21-5.18,4.69l-42.44-42.44c1.73-1.48,3.45-2.96,5.18-4.69,29.61-29.61,29.61-77.98,0-107.59-1.73-1.73-3.46-3.21-5.18-4.69l42.44-42.44c1.73,1.48,3.21,2.96,4.93,4.69,53.06,53.05,53.06,139.42.25,192.48Z"/>
      <path class="cls-2" d="M81.34,571.43l-31.34-31.34,31.34-31.34c8.39,5.43,14.31,14.31,16.04,25.17,2.47,15.05-4.2,29.61-16.04,37.51Z"/>
    </g>
    <path id="Sonne" class="cls-3" d="M364.88,225.17c49.47,36.48,110.59,58.27,176.74,58.27s125.89-21.14,175.12-56.75l-176.69-176.69-175.17,175.17Z"/>
  </g>
</svg>