<svg width="33" height="33" viewBox="0 0 33 33" fill="none" xmlns="http://www.w3.org/2000/svg">
<circle cx="16.5" cy="16.5" r="16.5" fill="#EBEBEB"/>
<g clip-path="url(#clip0_3690_939)">
<path d="M17.4424 7.26758C15.5097 7.23292 13.8232 8.45639 13.126 10.4219C13.0449 10.6504 12.9426 10.8225 12.7725 10.915C12.6058 11.0056 12.4073 11.0011 12.1875 10.9688C11.7242 10.9004 11.2625 10.8433 10.8223 10.8896C8.8368 11.0988 7.37678 13.3083 7.85059 15.4092C7.91584 15.6985 7.94716 15.9318 7.8584 16.123C7.76768 16.3181 7.5715 16.4311 7.31836 16.5439C5.82548 17.2092 4.93902 18.9498 5.25098 20.6289C5.58997 22.4532 7.02908 23.7218 8.74707 23.7266C11.0662 23.7328 13.3852 23.7284 15.7051 23.7285C17.961 23.7285 20.214 23.7463 22.4668 23.7168C23.0242 23.7095 23.598 23.6292 24.125 23.458C26.6834 22.6267 28.2397 19.8112 27.6797 17.0391C27.1951 14.6407 25.2102 12.6761 22.6084 12.626C22.3617 12.6212 22.1527 12.576 22.0098 12.4258C21.8702 12.2789 21.8246 12.0642 21.8125 11.8086C21.6946 9.31909 19.7432 7.30896 17.4424 7.26758ZM29.1504 18.708L29.1475 18.7217C29.0567 19.1752 28.9882 19.6676 28.8604 20.1299C28.0519 23.0518 25.5409 25.1179 22.6826 25.1318C18.0272 25.1545 13.3713 25.1558 8.71582 25.1348C5.91707 25.122 3.72596 22.6722 3.85547 19.7354C3.93917 17.8386 4.81465 16.4078 6.36133 15.4697C6.39289 15.4506 6.41425 15.438 6.43262 15.4248C6.4499 15.4124 6.45844 15.4043 6.46289 15.3984C6.46643 15.3938 6.48014 15.3768 6.47266 15.3076C6.23936 13.1534 7.00715 11.4655 8.66602 10.2627C9.65062 9.5488 10.7649 9.30872 11.9414 9.47461C12.005 9.48354 12.0218 9.47466 12.0254 9.47266C12.0309 9.46942 12.0497 9.45486 12.0801 9.38867C13.1695 7.01336 15.4018 5.65648 17.874 5.87207C20.4871 6.10004 22.7088 8.33367 23.0938 11.0947C23.0996 11.1366 23.1049 11.1673 23.1113 11.1924C23.1175 11.2163 23.1229 11.2283 23.127 11.2344C23.128 11.2359 23.1366 11.2557 23.2119 11.2627C26.0367 11.5254 28.425 13.8142 29 16.7734C29.0581 17.0726 29.1006 17.3798 29.1484 17.6729L29.1504 17.6855V18.708Z" fill="#4CA641" stroke="#4CA641" stroke-width="0.3"/>
<path d="M19.9996 16.9791C20.0273 18.6096 18.7061 19.9643 17.054 19.9993C15.3974 20.0345 14.0174 18.6893 14.0002 17.0228C13.9833 15.3879 15.2991 14.04 16.9502 14.0008C18.6049 13.9616 19.9709 15.2957 19.9996 16.9791ZM18.7325 17.0036C18.736 16.0423 17.9689 15.2729 17.0061 15.2719C16.0403 15.271 15.2757 16.0327 15.2744 16.9969C15.2732 17.9623 16.0374 18.73 16.999 18.7294C17.9625 18.7288 18.7291 17.9656 18.7325 17.0036Z" fill="#4CA641"/>
<path d="M11.7734 20C10.5207 19.998 9.43993 19.1107 9.10336 17.808C8.77024 16.5186 9.2605 15.1576 10.3122 14.4521C11.3678 13.7441 12.7441 13.8763 13.6525 14.788C13.7871 14.9232 13.9111 15.1006 13.9718 15.2848C14.0582 15.547 13.9191 15.8273 13.6988 15.9607C13.4744 16.0965 13.223 16.0346 12.9904 15.8539C12.7292 15.651 12.4601 15.4211 12.1606 15.3223C11.4371 15.0834 10.668 15.4908 10.3292 16.2235C9.98821 16.9608 10.1796 17.8706 10.7821 18.3764C11.3813 18.8795 12.2196 18.8677 12.8032 18.3458C12.8872 18.2706 12.9606 18.1814 13.0451 18.1069C13.2872 17.8932 13.6284 17.9103 13.8381 18.1421C14.0476 18.3736 14.0545 18.732 13.8546 19.0012C13.4074 19.6034 12.5782 20.0013 11.7734 20Z" fill="#4CA641"/>
<path d="M22.6337 20.6761C22.8953 20.6761 23.1136 20.6678 23.3311 20.6779C23.7298 20.6965 23.9939 20.9556 23.9999 21.32C24.006 21.6898 23.7271 21.9867 23.3238 21.9921C22.4406 22.0039 21.5571 22.0011 20.6738 21.9929C20.3583 21.9899 20.1354 21.8233 20.0341 21.528C19.9363 21.243 20.0548 20.9777 20.3155 20.7651C20.8324 20.3437 21.3521 19.9243 21.844 19.4757C22.0308 19.3052 22.1687 19.0682 22.2803 18.8386C22.3325 18.7311 22.3183 18.528 22.2449 18.4438C22.1716 18.3599 21.9722 18.3192 21.8537 18.3514C21.6577 18.4045 21.4711 18.5153 21.3004 18.6303C20.9371 18.8749 20.5579 18.8577 20.3148 18.5638C20.0597 18.2554 20.1145 17.8685 20.4698 17.5839C20.986 17.1705 21.568 16.936 22.2469 17.0153C23.2211 17.129 23.8805 18.0751 23.6158 19.005C23.529 19.3098 23.3942 19.6089 23.2336 19.8837C23.0786 20.149 22.8622 20.3795 22.6337 20.6761Z" fill="#4CA641"/>
</g>
<defs>
<clipPath id="clip0_3690_939">
<rect width="27" height="21" fill="white" transform="translate(3 5)"/>
</clipPath>
</defs>
</svg>
