<?xml version="1.0" encoding="UTF-8"?>
<svg id="Layer_1" xmlns="http://www.w3.org/2000/svg" version="1.1" viewBox="0 0 33 33">
  <!-- Generator: Adobe Illustrator 29.6.1, SVG Export Plug-In . SVG Version: 2.1.1 Build 9)  -->
  <circle cx="16.5" cy="16.5" r="16.5" fill="#ebebeb"/>
  <path d="M26.561,15.196c-.05.19-.088.385-.152.569-.354,1.013-1.268,1.687-2.338,1.734-.108.005-.217.007-.325.007-5.491,0-10.982,0-16.474,0h-.272v-1.149h.264c5.51,0,11.021-.002,16.531.003.536,0,.995-.146,1.322-.587.326-.438.389-.928.178-1.429-.21-.499-.596-.796-1.14-.877-.793-.118-1.595.454-1.655,1.417h-1.168c.053-.272.078-.545.161-.798.367-1.122,1.48-1.874,2.611-1.782,1.261.102,2.219.971,2.421,2.195.005.029.023.057.035.085v.613Z" fill="#4ca641" stroke="#4ca641" stroke-miterlimit="10" stroke-width=".75"/>
  <path d="M19.492,21.515h1.135c.039.434.227.769.617.971.387.202.863.141,1.212-.154.329-.278.457-.739.324-1.163-.132-.42-.507-.726-.936-.761-.095-.008-.191-.007-.286-.007-2.834,0-5.669,0-8.503,0h-.238v-1.14c.056-.003.117-.008.177-.008,2.898,0,5.796-.003,8.694,0,1.229.002,2.184.872,2.286,2.069.09,1.06-.59,2.049-1.608,2.341-1.046.299-2.149-.177-2.633-1.141-.156-.311-.244-.639-.24-1.007Z" fill="#4ca641" stroke="#4ca641" stroke-miterlimit="10" stroke-width=".75"/>
  <path d="M10.5,13.712v-1.149h.229c2.382,0,4.764,0,7.146,0,.608,0,1.04-.325,1.167-.87.137-.586-.26-1.2-.848-1.313-.624-.12-1.216.288-1.307.9-.008.056-.019.111-.029.167h-1.135c.017-.721.297-1.303.846-1.748.722-.584,1.733-.655,2.524-.191.793.465,1.245,1.386,1.103,2.249-.161.981-.836,1.714-1.767,1.905-.173.035-.354.048-.531.048-2.401.003-4.802.002-7.203.002h-.195Z" fill="#4ca641" stroke="#4ca641" stroke-miterlimit="10" stroke-width=".75"/>
  <path d="M15.919,6h1.117v1.131h-1.117v-1.131Z" fill="#4ca641"/>
  <path d="M24.65,6.001h1.113v1.129h-1.113v-1.129Z" fill="#4ca641"/>
  <path d="M9.087,6.843h1.114v1.131h-1.114v-1.131Z" fill="#4ca641"/>
  <path d="M21.918,8.594h-1.125v-1.124h1.125v1.124Z" fill="#4ca641"/>
  <path d="M12.276,8.841h1.123v1.128h-1.123v-1.128Z" fill="#4ca641"/>
  <path d="M8.809,19.198v1.122h-1.12v-1.122h1.12Z" fill="#4ca641"/>
  <path d="M14.974,22.292v1.117h-1.129v-1.117h1.129Z" fill="#4ca641"/>
  <path d="M9.223,24.564v-1.123h1.121v1.123h-1.121Z" fill="#4ca641"/>
  <path d="M17.909,25.552h-1.123v-1.124h1.123v1.124Z" fill="#4ca641"/>
  <path d="M21.534,25.22h1.115v1.131h-1.115v-1.131Z" fill="#4ca641"/>
  <path d="M25.767,23.783h-1.119v-1.122h1.119v1.122Z" fill="#4ca641"/>
</svg>