<svg xmlns="http://www.w3.org/2000/svg" viewBox="0 0 440.29 114.98"><defs><style>.cls-1{fill:#4eaf47;}.cls-2{fill:#0778bc;}</style></defs><g id="Ebene_2" data-name="Ebene 2"><g id="Layer_1" data-name="Layer 1"><path class="cls-1" d="M125.74,68.83V56.14c0-6.51,3.81-10.67,10-10.67s10,4.16,10,10.67V68.83c0,6.51-3.81,10.66-10,10.66S125.74,75.34,125.74,68.83Zm18,0V56.14c0-5.44-3-8.81-8.05-8.81s-8.06,3.37-8.06,8.81V68.83c0,5.43,3,8.81,8.06,8.81S143.78,74.26,143.78,68.83Z"/><path class="cls-1" d="M171.94,56.25V68.79c0,6.46-4,10.7-9.55,10.7a9.25,9.25,0,0,1-8.23-4.8V90.11h-1.89v-44H154l.18,4.84a8.93,8.93,0,0,1,8.54-5.5C167.9,45.47,171.94,49.69,171.94,56.25Zm-1.93,0c0-5.62-3.23-9-7.72-9-4.16,0-8.13,3.46-8.13,9.83V69.23c0,4.78,3.37,8.46,7.86,8.46,4.7,0,8-3.35,8-8.9Z"/><path class="cls-1" d="M197.66,69.13c-.59,6.28-3.92,10.33-10.24,10.33-6,0-9.75-4.16-9.75-10.62V56.08c0-6.45,3.79-10.61,9.89-10.61s9.95,4.16,9.95,10.61v7.41H179.6v5.35c0,5.39,3,8.76,7.85,8.76,5.18,0,7.7-3.28,8.29-8.47Zm-18.06-13v5.61h16V56.08c0-5.38-3.05-8.75-8-8.75S179.6,50.7,179.6,56.08Z"/><path class="cls-1" d="M223.23,57.58V78.83h-1.92V57.75c0-7-2.33-10.46-6.7-10.46-5.07,0-8.75,4.58-8.75,11.51v20H204V46.13h1.73l.18,4.41v1.15c1.75-3.82,5-6.22,9.11-6.22C220.08,45.47,223.23,49.4,223.23,57.58Z"/><path class="cls-2" d="M228.26,66.79h6.45c.07,4.51,2.51,6.71,6.4,6.71,4.2,0,6.27-2.51,6.27-6,0-8.72-18.37-9.22-18.37-22.26,0-6.33,4.64-11.1,12-11.1s12,4.83,12.22,12.29h-6.46c-.12-4.2-2.31-6.2-5.7-6.2-3.57,0-5.64,2-5.64,5.14,0,8.59,18.43,8.59,18.43,22.19,0,6.52-4.58,12.1-12.79,12.1C233.33,79.64,228.32,74.82,228.26,66.79Z"/><path class="cls-2" d="M280.74,68.48c-.63,7-4.83,11-11.85,11S257.67,75,257.67,67.1V57.26C257.67,49.42,262.06,45,269,45c7.14,0,11.6,4.45,11.6,12.29V64.6H263.75v2.5c0,4.52,1.94,6.59,5.27,6.59,3.57,0,5.07-1.63,5.58-5.21Zm-17-11.28V60H274.6V57.2c0-4.52-2-6.52-5.52-6.52C265.76,50.68,263.75,52.68,263.75,57.2Z"/><path class="cls-2" d="M307.58,58.08V78.83H301.5V58.39c0-5.39-1.44-7.65-4.64-7.65-3.44,0-5.64,2.76-5.64,7.65V78.83h-6.08v-33h4.32l.63,3.7A9.06,9.06,0,0,1,298.3,45C304,45,307.58,49.05,307.58,58.08Z"/><path class="cls-2" d="M311.73,68.67h6c.06,3,1.88,5.33,5.7,5.33,3.2,0,5-1.57,5-4.14,0-6.64-16.24-4.39-16.24-15.67,0-5.64,4.2-9.22,10.66-9.22,7,0,10.72,4.39,11,10.53h-6c-.06-3.13-1.69-5-5-5-2.89,0-4.64,1.44-4.64,3.76,0,6.27,16.3,3.83,16.3,15.67,0,5.84-4.14,9.72-11,9.72C316.05,79.64,311.79,74.75,311.73,68.67Z"/><path class="cls-2" d="M361.52,68.48c-.63,7-4.83,11-11.85,11S338.44,75,338.44,67.1V57.26c0-7.84,4.39-12.29,11.35-12.29,7.15,0,11.6,4.45,11.6,12.29V64.6H344.53v2.5c0,4.52,1.94,6.59,5.26,6.59,3.58,0,5.08-1.63,5.58-5.21Zm-17-11.28V60h10.84V57.2c0-4.52-2-6.52-5.52-6.52C346.53,50.68,344.53,52.68,344.53,57.2Z"/><path class="cls-2" d="M386.55,72.81v6H365.67V34.94H372V72.81Z"/><path class="cls-2" d="M412.26,56.88V78.83h-5l-.43-3.14a8.06,8.06,0,0,1-7.34,4c-6.08,0-10.16-4-10.16-10.22,0-6.71,4.64-10.15,12-10.15h4.83V56.88c0-3.88-1.45-6.08-4.77-6.08-2.69,0-4.7,1.44-5,4.39h-6.09c.32-6.33,4.58-10.22,11.23-10.22C408.62,45,412.26,49.3,412.26,56.88Zm-6.08,7.46h-4.83c-3.7,0-5.83,1.76-5.83,5.08,0,3,1.94,4.83,5.26,4.83s5.4-2.13,5.4-5.58Z"/><path class="cls-2" d="M440.29,57.64v9.09c0,8.09-4.26,12.85-10.53,12.85a9.92,9.92,0,0,1-7.47-3.76l-.43,3h-4.39V33.43h5.95V47.6A9.08,9.08,0,0,1,429.76,45C436.15,45,440.29,49.67,440.29,57.64Zm-6.21,0c0-4.77-1.82-6.9-5.33-6.9-3.32,0-5.33,2.63-5.33,6.9v9.15c0,4.76,2.2,7,5.33,7,3.39,0,5.33-2.19,5.33-7.08Z"/><path class="cls-1" d="M67.7,70.75c-5.4,5.4-23.91,4.35-23.91,4.35s-1-18.51,4.35-23.91,23.91-4.35,23.91-4.35S73.1,65.35,67.7,70.75Z"/><rect class="cls-1" x="80.31" y="6.84" width="9.35" height="9.35" rx="2.19"/><rect class="cls-2" x="96.9" y="17.71" width="15.65" height="15.65" rx="3.16"/><rect class="cls-2" x="94.63" width="6.43" height="6.43" rx="1.55"/><rect class="cls-2" x="14.38" y="100.53" width="9.35" height="9.35" rx="2.31"/><rect class="cls-1" y="80.72" width="15.65" height="15.65" rx="3.79" transform="translate(15.65 177.08) rotate(180)"/><rect class="cls-1" x="1.72" y="108.55" width="6.43" height="6.43" rx="1.29" transform="translate(9.88 223.53) rotate(-180)"/><path class="cls-2" d="M83.92,81.77a7.32,7.32,0,1,1,7.32-7.32A7.32,7.32,0,0,1,83.92,81.77Zm0-8.71a1.39,1.39,0,1,0,1.39,1.39A1.39,1.39,0,0,0,83.92,73.06Z"/><path class="cls-1" d="M21.15,49.59A7.84,7.84,0,1,1,29,41.75,7.84,7.84,0,0,1,21.15,49.59Zm0-9.75a1.91,1.91,0,1,0,1.91,1.91A1.92,1.92,0,0,0,21.15,39.84Z"/><path class="cls-2" d="M57.94,93.28a32.21,32.21,0,1,1,32.21-32.2,31.58,31.58,0,0,1-.3,4.35,30.71,30.71,0,0,1-.59,3.18l0,.12c-.15.64-.34,1.31-.57,2-.06.2-.13.42-.21.65l-5.6-1.93c.05-.17.11-.34.16-.5.14-.44.26-.86.37-1.28h0l.09-.36a25.77,25.77,0,0,0,.51-2.7,26.73,26.73,0,0,0,.24-3.56A26.3,26.3,0,1,0,74,81.9a3,3,0,0,1,3.92.35h0a3,3,0,0,1-.38,4.42A32.12,32.12,0,0,1,57.94,93.28Z"/><path class="cls-1" d="M61.29,105.51A44.56,44.56,0,0,1,14.52,50.77c.23-1,.51-2,.84-3.05.19-.66.43-1.35.68-2l.24-.62,5.52,2.15-.22.57c-.19.53-.39,1.1-.56,1.67-.29.93-.53,1.81-.73,2.66a38.63,38.63,0,1,0,10.87-19,3,3,0,0,1-4.06.08h0a2.94,2.94,0,0,1-.09-4.3,44.56,44.56,0,1,1,34.28,76.57Z"/></g></g></svg>