<?xml version="1.0" encoding="UTF-8"?><svg id="uuid-0282615b-2e56-4c48-b41d-908a5a19c1bd" xmlns="http://www.w3.org/2000/svg" xmlns:xlink="http://www.w3.org/1999/xlink" viewBox="0 0 346.91386 211.3"><defs><radialGradient id="uuid-348798e6-4106-44f1-8e02-a306ab038164" cx="230.03634" cy="50.8238" fx="230.03634" fy="50.8238" r="31.56899" gradientTransform="translate(.41108 .99402)" gradientUnits="userSpaceOnUse"><stop offset="0" stop-color="#b95f40"/><stop offset=".28751" stop-color="#b65b3d"/><stop offset=".51291" stop-color="#ae5233"/><stop offset=".71725" stop-color="#a14123"/><stop offset=".90802" stop-color="#8e2a0d"/><stop offset="1" stop-color="#831c00"/></radialGradient><radialGradient id="uuid-30403a34-af4a-4b7b-859c-6ef7323a7d63" cx="238.77287" cy="69.396" fx="238.77287" fy="69.396" r="46.49433" gradientTransform="translate(.41108 .99402)" gradientUnits="userSpaceOnUse"><stop offset=".57049" stop-color="#b04e2d"/><stop offset=".68833" stop-color="#ac4b2b"/><stop offset=".78296" stop-color="#a24224"/><stop offset=".86952" stop-color="#91321a"/><stop offset=".9508" stop-color="#7a1d0b"/><stop offset="1" stop-color="#680d00"/></radialGradient><radialGradient id="uuid-61c6b11b-49e7-4b70-ba72-6a251f32e36c" cx="2031.08641" cy="11862.25321" fx="2031.08641" fy="11862.25321" r="42.22055" gradientTransform="translate(2267.46934 11831.04593) rotate(-180)" gradientUnits="userSpaceOnUse"><stop offset=".23334" stop-color="#e9d8ad"/><stop offset=".40537" stop-color="#e3d2a8"/><stop offset=".6296" stop-color="#d2c49d"/><stop offset=".88164" stop-color="#b8ac8a"/><stop offset="1" stop-color="#a99f80"/></radialGradient><radialGradient id="uuid-0577bcee-f0f0-4311-90a2-ce4762d53ee4" cx="2033.39518" cy="11883.01114" fx="2033.39518" fy="11883.01114" r="46.49177" gradientTransform="translate(2267.46934 11831.04593) rotate(-180)" gradientUnits="userSpaceOnUse"><stop offset=".6" stop-color="#e9d8ad"/><stop offset=".71788" stop-color="#e0d0a6"/><stop offset=".90952" stop-color="#c7ba95"/><stop offset=".97478" stop-color="#beb28f"/></radialGradient></defs><path d="M51.33939,91.19447v37.3765c0,1.8735-1.4512,3.1435-3.1416,3.1435-1.753,0-3.2061-1.27-3.2061-3.1435v-16.4512h-15.9668v16.4512c0,1.8735-1.4502,3.1435-3.1455,3.1435-1.7539,0-3.20409-1.27-3.20409-3.1435v-37.3765c0-1.813,1.45019-3.083,3.20409-3.083,1.6953,0,3.1455,1.27,3.1455,3.083v14.8188h15.9668v-14.8188c0-1.813,1.4531-3.083,3.2061-3.083,1.6904,0,3.1416,1.27,3.1416,3.083Z" fill="#231f20" stroke-width="0"/><path d="M82.97409,109.76187v17.1147c0,1.3911-.7861,2.8428-2.42178,3.3867-2.419.8462-5.92482,1.4512-9.31062,1.4512-7.6201,0-12.6416-2.8423-12.6416-9.7969,0-7.0161,5.7451-9.6762,12.6416-9.6762h5.5v-2.419c0-2.3593-1.7529-4.2339-5.3203-4.2339-2.0557,0-3.75.3033-5.3232,1.0884-1.0254.4849-1.8125.9072-2.7793.9072-1.4512,0-2.9014-1.2089-2.9014-2.9023,0-1.0283.542-1.936,1.4502-2.4795,1.6904-1.0288,5.0801-2.3594,9.30962-2.3594,6.47258,0,11.79678,3.2662,11.79678,9.919ZM71.06009,117.98697c-3.751,0-6.2315.9673-6.2315,4.0512,0,3.2056,2.4805,3.9922,6.34872,3.9922,1.93748,0,3.75188-.2422,5.56438-.7265v-7.3169h-5.6816Z" fill="#231f20" stroke-width="0"/><path d="M97.48879,91.19447v10.4023c1.9951-1.0878,4.7773-1.7539,6.7744-1.7539,7.3184,0,11.3672,4.2945,11.3672,12.0357v16.751c0,1.8149-1.32808,3.0849-3.082,3.0849-1.8174,0-3.1455-1.27-3.1455-3.0849v-17.1138c0-3.9317-2.1163-5.9273-5.8672-5.9273-2.1153,0-4.1719.6661-6.0469,2.1172v20.9239c0,1.8149-1.3301,3.0849-3.084,3.0849-1.8154,0-3.14448-1.27-3.14448-3.0849v-37.4351c0-1.813,1.32908-3.083,3.14448-3.083,1.7539,0,3.084,1.27,3.084,3.083Z" fill="#231f20" stroke-width="0"/><path d="M148.41259,111.75697v16.8726c0,1.8149-1.332,3.0849-3.0859,3.0849-1.8135,0-3.1455-1.27-3.1455-3.0849v-17.1138c0-3.8101-2.0557-5.9273-5.9854-5.9273-2.0556,0-4.0537.3033-5.9287.8467v22.1944c0,1.8149-1.3291,3.0849-3.082,3.0849-1.8154,0-3.1465-1.27-3.1465-3.0849v-23.6451c0-1.6943.9678-3.0234,2.72172-3.5683,2.96478-.9683,6.11028-1.5733,9.43548-1.5733,8.10452,0,12.2168,4.1133,12.2168,11.9141Z" fill="#231f20" stroke-width="0"/><path d="M95.30519,145.00257c1.2705.6655,1.8174,1.5718,1.8174,2.9028,0,1.6328-1.211,2.9029-2.7842,2.9029-.9678,0-1.6318-.3028-2.66108-.7261-2.53912-1.0278-4.35352-1.3897-7.25592-1.3897-3.4482,0-6.7129,1.813-6.7129,5.0796,0,2.9029,1.5703,4.2935,5.0196,5.8653l7.0771,3.2661c4.0498,1.874,8.4648,4.5957,8.4648,11.6118,0,7.3174-5.9248,11.853-13.789,11.853-4.293,0-7.9815-.8467-11.25-2.3589-1.3281-.6045-1.9346-1.6323-1.9346-2.9028,0-1.814,1.21192-3.0234,2.9024-3.0234.8496,0,1.3916.1811,2.7236.7256,2.1172.9067,4.4121,1.6328,7.5586,1.6328,4.3554,0,7.3799-1.9956,7.3799-5.7447,0-3.2656-1.8741-4.7182-5.5039-6.4712l-7.3789-3.4482c-4.2315-1.9951-7.6192-5.1401-7.6192-10.7637,0-6.8339,5.44342-11.249,13.4248-11.249,4.2354,0,7.5615.7861,10.5215,2.2378Z" fill="#231f20" stroke-width="0"/><path d="M124.15579,156.61387c.9678.5445,1.5732,1.5122,1.5732,2.5996,0,1.6338-1.1484,2.8433-2.7832,2.8433-1.208,0-1.875-.4839-3.0244-.9683-1.207-.4829-2.7207-.8461-4.5967-.8461-3.6269,0-5.8662,2.1782-5.8662,6.4101v7.5601c0,4.2334,2.1787,6.4712,5.8662,6.4712,1.876,0,3.4492-.4229,4.6592-.9683,1.02742-.4229,1.7539-.8462,2.8428-.8462,1.6914,0,2.9023,1.1489,2.9023,2.8433,0,1.0883-.6054,2.0551-1.5732,2.5996-2.418,1.27-5.56248,2.0561-8.709,2.0561-7.498,0-12.2168-4.6557-12.2168-12.1557v-7.5601c0-7.8013,5.0225-12.1548,12.2168-12.1548,3.14652,0,6.291.7857,8.709,2.1162Z" fill="#231f20" stroke-width="0"/><path d="M136.91649,145.84877v10.4023c1.9991-1.0888,4.7774-1.7534,6.7754-1.7534,7.31742,0,11.3682,4.293,11.3682,12.0342v16.752c0,1.8159-1.3291,3.0844-3.084,3.0844-1.8135,0-3.1445-1.2685-3.1445-3.0844v-17.1148c0-3.9311-2.1162-5.9267-5.8672-5.9267-2.1153,0-4.1719.665-6.0479,2.1171v20.9244c0,1.8159-1.3281,3.0844-3.082,3.0844-1.8154,0-3.1455-1.2685-3.1455-3.0844v-37.4351c0-1.8135,1.3301-3.084,3.1455-3.084,1.7539,0,3.082,1.2705,3.082,3.084Z" fill="#231f20" stroke-width="0"/><path d="M169.27589,146.39267c0,2.0567-1.6328,3.6895-3.6289,3.6895-1.9971,0-3.6299-1.6328-3.6299-3.6895,0-1.9956,1.6328-3.6279,3.6299-3.6279,1.9961,0,3.6289,1.6323,3.6289,3.6279ZM168.73099,157.58167v25.7022c0,1.8159-1.2705,3.0844-3.084,3.0844s-3.1465-1.2685-3.1465-3.0844v-25.7022c0-1.814,1.333-3.084,3.1465-3.084s3.084,1.27,3.084,3.084Z" fill="#231f20" stroke-width="0"/><path d="M196.61089,156.61387c.9668.5445,1.5732,1.5122,1.5732,2.5996,0,1.6338-1.1484,2.8433-2.7832,2.8433-1.208,0-1.873-.4839-3.0244-.9683-1.207-.4829-2.7217-.8461-4.5957-.8461-3.626,0-5.8662,2.1782-5.8662,6.4101v7.5601c0,4.2334,2.17672,6.4712,5.8662,6.4712,1.874,0,3.4473-.4229,4.6582-.9683,1.0264-.4229,1.7539-.8462,2.8418-.8462,1.6914,0,2.9033,1.1489,2.9033,2.8433,0,1.0883-.6064,2.0551-1.5732,2.5996-2.418,1.27-5.5635,2.0561-8.71,2.0561-7.4971,0-12.2158-4.6557-12.2158-12.1557v-7.5601c0-7.8013,5.0205-12.1548,12.2158-12.1548,3.1465,0,6.292.7857,8.71,2.1162Z" fill="#231f20" stroke-width="0"/><path d="M209.37259,145.84877v19.293l11.1289-9.7378c.7256-.6045,1.4512-.9063,2.2363-.9063,1.6934,0,3.0244,1.27,3.0244,3.0239,0,.7862-.3017,1.5723-1.08788,2.2374l-10.76462,9.0112,11.5508,12.518c.6045.6656.7851,1.3311.7851,2.0572,0,1.5722-1.1494,3.0229-3.0234,3.0229-.9063,0-1.75388-.3628-2.3574-1.0888l-11.4922-13.002v11.0064c0,1.8159-1.3897,3.0844-3.083,3.0844-1.8155,0-3.1465-1.2685-3.1465-3.0844v-37.4351c0-1.8135,1.2705-3.084,3.1465-3.084,1.7529,0,3.083,1.2705,3.083,3.084Z" fill="#231f20" stroke-width="0"/><path d="M254.30909,164.41517v17.1147c0,1.3912-.7871,2.8428-2.418,3.3877-2.4199.8457-5.9267,1.4507-9.3134,1.4507-7.6202,0-12.6397-2.8427-12.6397-9.7968,0-7.0157,5.7451-9.6768,12.6397-9.6768h5.5029v-2.419c0-2.3583-1.7539-4.2333-5.32328-4.2333-2.05462,0-3.747.3027-5.32032,1.0888-1.0283.4834-1.8144.9068-2.7832.9068-1.4511,0-2.9023-1.209-2.9023-2.9029,0-1.0273.5459-1.9345,1.4512-2.479,1.6933-1.0288,5.08-2.3584,9.3134-2.3584,6.4717,0,11.793,3.2656,11.793,9.9175ZM242.39409,172.63977c-3.7471,0-6.2266.9688-6.2266,4.0527,0,3.2051,2.4795,3.9913,6.3486,3.9913,1.9346,0,3.75-.2422,5.5645-.7256v-7.3184h-5.6865Z" fill="#231f20" stroke-width="0"/><path d="M275.59719,154.92057c1.5732.3027,2.4805,1.3916,2.4805,2.9634,0,1.6328-1.211,2.8422-2.9639,2.8422-.9063,0-2.1162-.3628-3.627-.3628-1.93648,0-3.2666,1.3301-3.2666,3.4473v19.4732c0,1.8159-1.331,3.0844-3.08388,3.0844-1.81452,0-3.14652-1.2685-3.14652-3.0844v-19.6548c0-5.6245,3.5693-9.1314,9.0732-9.1314,1.7529,0,3.3867.1807,4.5342.4229Z" fill="#231f20" stroke-width="0"/><path d="M306.14019,145.84877v35.3789c0,1.6328-1.0274,3.0244-2.6006,3.5689-3.0235,1.0273-6.2891,1.5717-9.61528,1.5717-7.499,0-12.21582-3.9912-12.21582-12.0342v-7.8022c0-7.9224,4.71682-12.0342,11.6113-12.0342,1.9346,0,4.5352.604,6.5918,1.7534v-10.4023c0-1.8135,1.3311-3.084,3.085-3.084,1.8125,0,3.1436,1.2705,3.1436,3.084ZM287.93699,166.16907v8.5278c0,3.8086,2.1162,5.9869,5.98732,5.9869,2.05568,0,4.11228-.3033,5.98728-.8467v-17.5386c-1.7548-1.2695-3.749-2.0561-5.98728-2.0561-3.93062,0-5.98732,2.0561-5.98732,5.9267Z" fill="#231f20" stroke-width="0"/><path d="M225.71931,86.87027c-11.39162-33.4439,13.01068-51.1856,1.66888-52.7398-.667-.0913-1.6943-.0376-2.3594.062-13.6191,2.0147-25.43548,12.146-30.0127,25.9571-2.6035,11.3603,13.0537,20.8432,30.70322,26.7207Z" fill="url(#uuid-348798e6-4106-44f1-8e02-a306ab038164)" stroke-width="0"/><path d="M230.16949,91.84977c-4.4629-1.27-8.57618-2.6514-12.3116-4.1343-8.4658-3.2861-15.5468-7.1856-19.8037-11.814-2.5088-2.4961-4.2373-5.0937-5.12888-7.7549-.69532,4.4219-.73632,9.2437.18068,13.7891,4.3076,21.4922,24.8769,35.6826,46.2646,31.7949,5.5254-1.0058,10.3545-3.0757,14.584-6.2563,8.2139-6.1768-1.5039-8.9448-23.7851-15.6245Z" fill="url(#uuid-30403a34-af4a-4b7b-859c-6ef7323a7d63)" stroke-width="0"/><path d="M264.64799,43.90247c11.3896,33.4463-13.01168,51.186-1.6719,52.7417.667.0928,1.6963.0376,2.3594-.0601,13.6191-2.0185,25.4365-12.1484,30.0117-25.9614,2.6074-11.3594-13.0498-20.8408-30.6992-26.7202Z" fill="url(#uuid-61c6b11b-49e7-4b70-ba72-6a251f32e36c)" stroke-width="0"/><path d="M260.13531,38.80777c4.46578,1.2685,8.57708,2.6513,12.31148,4.1328,8.4688,3.2866,15.5469,7.1865,19.8057,11.814,2.5107,2.4975,4.2392,5.0961,5.13082,7.7529.69528-4.4204.73338-9.2417-.18062-13.7842-4.3106-21.4927-24.878-35.6865-46.2666-31.7959-5.5215,1.0039-10.3536,3.0757-14.584,6.2564-8.2139,6.1757,1.5049,8.9448,23.78322,15.624Z" fill="url(#uuid-0577bcee-f0f0-4311-90a2-ce4762d53ee4)" stroke-width="0"/></svg>