<?xml version="1.0" encoding="UTF-8"?>
<svg id="Ebene_1" data-name="Ebene 1" xmlns="http://www.w3.org/2000/svg" viewBox="0 0 4320 1080">
  <defs>
    <style>
      .cls-1 {
        fill: #ffdd35;
      }

      .cls-2 {
        fill: #62a044;
      }

      .cls-3 {
        fill: #00b4e4;
      }
    </style>
  </defs>
  <g id="Logo:_Bunt" data-name="Logo: Bunt">
    <g id="Icon:_Bunt" data-name="Icon: Bunt">
      <path id="Erde" class="cls-2" d="M3951.25,818.97c-54.82-51.93-128.61-84.05-209.99-84.05s-156.4,32.46-211.29,84.87l210.19,210.21,211.1-211.03Z"/>
      <polygon id="Zukunft" class="cls-3" points="3881.31 540.04 3926.88 585.61 4058.41 585.61 3992.65 651.34 4056.12 714.79 4230.21 539.26 4056.17 365.23 3992.6 428.65 4059.62 495.74 3925.58 495.74 3881.31 540.04"/>
      <g id="Regen">
        <path class="cls-3" d="M3833.41,626.28c3.01,18.92-9.83,36.75-28.87,39.81-18.96,2.96-36.72-9.88-39.74-28.8-3.11-19.01,9.81-36.77,28.77-39.81,18.94-3.11,36.73,9.83,39.84,28.8"/>
        <path class="cls-3" d="M3720.46,502.44c3.11,18.94-9.83,36.77-28.8,39.76-18.94,3.13-36.7-9.83-39.76-28.73-3.06-18.99,9.86-36.82,28.75-39.81,18.97-3.11,36.8,9.81,39.81,28.78"/>
        <path class="cls-3" d="M3868.13,432.99c3.04,18.85-9.83,36.68-28.82,39.74-18.96,3.11-36.75-9.83-39.81-28.8-3.08-18.94,9.86-36.78,28.77-39.81,18.99-3.06,36.75,9.88,39.86,28.87"/>
        <path class="cls-3" d="M3720.46,356.09c3.06,19.06-9.83,36.85-28.8,39.84-18.92,3.04-36.75-9.88-39.76-28.73-3.06-19.01,9.86-36.85,28.77-39.81,18.94-3.13,36.77,9.83,39.79,28.7"/>
      </g>
      <g id="Technik">
        <path class="cls-3" d="M3607.78,540.09c0,89.08-33.8,178.17-101.67,246.27-1.73,1.73-3.21,3.21-4.94,4.69l-42.44-42.44c1.73-1.23,3.46-2.96,5.18-4.69,112.28-112.52,112.28-295.38,0-407.66-1.73-1.73-3.21-3.21-4.94-4.93l42.2-42.2c1.73,1.48,3.21,2.96,4.94,4.69,67.86,67.86,101.67,156.94,101.67,246.27Z"/>
        <path class="cls-3" d="M3502.16,540.09c0,64.65-25.17,125.36-71.07,171.25-1.48,1.48-3.21,3.21-4.93,4.69l-42.45-42.44c1.73-1.48,3.46-2.96,5.18-4.69,34.3-34.3,53.3-80.2,53.3-128.81s-19-94.51-53.3-128.81c-1.73-1.73-3.46-3.46-5.18-4.69l42.45-42.44c1.73,1.48,3.21,2.96,4.93,4.69,22.95,22.95,40.71,49.6,52.81,78.47,11.85,29.12,18.26,60.46,18.26,92.78Z"/>
        <path class="cls-3" d="M3356.32,636.33c-1.73,1.73-3.46,3.21-5.18,4.69l-42.44-42.44c1.73-1.48,3.45-2.96,5.18-4.69,29.61-29.61,29.61-77.98,0-107.59-1.73-1.73-3.46-3.21-5.18-4.69l42.44-42.44c1.73,1.48,3.21,2.96,4.93,4.69,53.06,53.05,53.06,139.42.25,192.48Z"/>
        <path class="cls-3" d="M3281.55,571.43l-31.34-31.34,31.34-31.34c8.39,5.43,14.31,14.31,16.04,25.17,2.47,15.05-4.2,29.61-16.04,37.51Z"/>
      </g>
      <path id="Sonne" class="cls-1" d="M3565.09,225.17c49.47,36.48,110.59,58.27,176.74,58.27s125.89-21.14,175.12-56.75l-176.69-176.69-175.17,175.17Z"/>
    </g>
    <g id="senseBox">
      <path class="cls-2" d="M345.95,492.88h-55.43l-9.74-51.68c-15.73-5.99-32.21-8.99-53.18-8.99-37.45,0-53.18,20.97-53.18,43.44,0,20.22,8.99,32.96,35.95,41.94l56.92,17.23c59.17,18.73,90.63,47.94,90.63,100.37s-38.95,101.86-137.07,101.86c-47.19,0-87.63-8.99-124.33-23.97l-6.74-98.87h55.43l15.73,59.17c14.98,7.49,35.95,11.98,59.92,11.98,34.45,0,58.42-14.98,58.42-42.69,0-21.72-13.48-34.45-39.7-43.44l-59.92-18.73c-52.43-16.48-83.14-47.19-83.14-97.37s32.21-103.36,130.32-103.36c41.94,0,89.13,8.99,119.09,20.97v92.13Z"/>
      <path class="cls-2" d="M675.65,641.93l23.22,55.43c-32.96,22.47-80.89,39.7-129.58,39.7-115.34,0-161.78-74.9-161.78-179.01,0-98.12,50.18-178.26,154.29-178.26s140.06,71.9,140.06,145.3c0,17.98-2.25,41.94-5.99,56.17h-213.46c.75,57.67,27.71,92.88,87.63,92.88,38.2,0,74.15-11.98,105.61-32.21ZM632.21,526.59c.75-4.49.75-8.99.75-11.98,0-47.94-29.21-75.65-71.9-75.65-55.43,0-74.9,38.95-77.9,87.63h149.05Z"/>
      <path class="cls-2" d="M752.65,667.4h47.19v-218.71h-45.69v-61.42h107.85v38.95c19.47-20.97,55.43-46.44,117.59-46.44,81.64,0,114.6,45.69,114.6,132.57v155.04h46.44v61.42h-169.27v-61.42h53.18v-148.3c0-45.69-11.23-73.4-68.91-73.4-35.2,0-70.41,17.23-86.88,30.71v190.99h53.18v61.42h-169.27v-61.42Z"/>
      <path class="cls-2" d="M1441.64,492.88h-55.43l-9.74-51.68c-15.73-5.99-32.21-8.99-53.18-8.99-37.45,0-53.18,20.97-53.18,43.44,0,20.22,8.99,32.96,35.95,41.94l56.92,17.23c59.17,18.73,90.63,47.94,90.63,100.37s-38.95,101.86-137.07,101.86c-47.19,0-87.63-8.99-124.33-23.97l-6.74-98.87h55.43l15.73,59.17c14.98,7.49,35.95,11.98,59.92,11.98,34.45,0,58.42-14.98,58.42-42.69,0-21.72-13.48-34.45-39.7-43.44l-59.92-18.73c-52.43-16.48-83.14-47.19-83.14-97.37s32.21-103.36,130.32-103.36c41.94,0,89.13,8.99,119.09,20.97v92.13Z"/>
      <path class="cls-2" d="M1771.35,641.93l23.22,55.43c-32.96,22.47-80.89,39.7-129.58,39.7-115.34,0-161.78-74.9-161.78-179.01,0-98.12,50.18-178.26,154.29-178.26s140.06,71.9,140.06,145.3c0,17.98-2.25,41.94-5.99,56.17h-213.46c.75,57.67,27.71,92.88,87.63,92.88,38.2,0,74.15-11.98,105.61-32.21ZM1727.91,526.59c.75-4.49.75-8.99.75-11.98,0-47.94-29.21-75.65-71.9-75.65-55.43,0-74.9,38.95-77.9,87.63h149.05Z"/>
      <path class="cls-2" d="M1853.22,666.65h53.93v-381.99h-53.93v-62.17h217.96c103.36,0,149.05,51.68,149.05,131.82,0,56.17-31.46,98.12-72.65,107.85,48.68,9.74,96.62,56.92,96.62,124.33,0,107.86-76.4,142.31-173.02,142.31h-217.96v-62.17ZM2056.94,436.71c59.17,0,86.88-28.46,86.88-78.64,0-44.19-21.72-73.4-84.64-73.4h-78.64v152.04h76.4ZM2065.93,666.65c74.9,0,102.61-31.46,102.61-83.14,0-47.19-23.97-85.38-103.36-85.38h-84.64v168.52h85.39Z"/>
      <path class="cls-2" d="M2622.58,557.3c0,105.61-42.69,179.76-161.03,179.76s-157.29-74.15-157.29-178.26,42.69-179.01,160.28-179.01,158.04,73.4,158.04,177.51ZM2548.43,558.79c0-75.65-20.22-113.85-85.39-113.85s-85.38,38.2-85.38,112.35,21.72,114.6,86.13,114.6,84.64-39.7,84.64-113.1Z"/>
      <path class="cls-2" d="M2772.23,667.4h61.42v61.42h-170.77v-61.42h43.44l92.13-114.6-80.14-104.11h-53.18v-61.42h141.56v58.42l59.92,78.64,56.92-75.65h-60.67v-61.42h170.02v61.42h-46.44l-85.39,108.6,90.63,110.1h48.68v61.42h-140.06v-58.42l-65.91-86.13-62.17,83.14Z"/>
    </g>
  </g>
</svg>