<?xml version="1.0" encoding="UTF-8"?>
<svg id="Ebene_1" data-name="Ebene 1" xmlns="http://www.w3.org/2000/svg" viewBox="0 0 464.33 204.09">
  <defs>
    <style>
      .cls-1 {
        fill: #009640;
      }

      .cls-2 {
        fill: #b41412;
      }

      .cls-3 {
        fill: #d7af00;
      }

      .cls-4 {
        fill: #f39200;
      }

      .cls-5 {
        fill: #83d0f5;
      }

      .cls-6 {
        fill: #e30613;
      }

      .cls-7 {
        fill: #009fe3;
      }

      .cls-8 {
        fill: #9d9d9c;
      }

      .cls-9 {
        fill: #003063;
      }

      .cls-10 {
        fill: #e84e0f;
      }

      .cls-11 {
        fill: #65b32e;
      }

      .cls-12 {
        fill: #005c42;
      }

      .cls-13 {
        fill: #afca0b;
      }

      .cls-14 {
        fill: #00737e;
      }

      .cls-15 {
        fill: #fc0;
      }

      .cls-16 {
        fill: #1d1d1b;
      }

      .cls-17 {
        fill: #006ea8;
      }
    </style>
  </defs>
  <path class="cls-6" d="m316.43,159.7h4.9l2.65-10.77h.07l2.65,10.77h4.94l5.17-17.66h-4.74l-1.62,6.36c-.13.46-.25.89-.35,1.29-.1.4-.2.81-.3,1.23-.1.42-.19.86-.28,1.31-.09.45-.19.97-.3,1.54h-.07c-.11-.57-.21-1.09-.31-1.56-.1-.46-.2-.91-.3-1.33-.1-.42-.2-.83-.3-1.24-.1-.41-.22-.84-.35-1.31l-1.62-6.3h-4.14l-1.52,6.2c-.13.49-.25.94-.35,1.36-.1.42-.2.84-.3,1.26-.1.42-.19.87-.28,1.34-.09.47-.19,1-.3,1.57h-.07c-.09-.57-.18-1.09-.28-1.56-.1-.46-.19-.9-.28-1.31-.09-.41-.18-.82-.28-1.23-.1-.41-.2-.84-.32-1.31l-1.52-6.33h-5.37l5.17,17.66Zm-18.06,0h5.33v-10.97c.51-.64,1.15-1.2,1.94-1.69.78-.49,1.71-.73,2.77-.73.18,0,.43.01.75.03.32.02.53.04.65.07l.07-4.74h-.16c-.82,0-1.55.11-2.19.31-.64.21-1.2.48-1.67.8-.48.32-.88.67-1.23,1.06-.34.39-.64.77-.88,1.14h-.03v-2.95h-5.33v17.66Zm-20.77,0h5.33v-11.89c.59-.51,1.2-.93,1.83-1.26.63-.33,1.29-.5,1.99-.5.75,0,1.28.2,1.6.61.32.41.48,1.01.48,1.81v11.22h5.33v-12.89c0-.91-.13-1.68-.38-2.34-.26-.65-.61-1.19-1.07-1.61-.45-.42-1-.72-1.63-.91-.63-.19-1.33-.28-2.08-.28s-1.47.1-2.09.3c-.63.2-1.19.45-1.7.76-.51.31-.94.64-1.32,1-.37.36-.69.72-.95,1.07v-2.76h-5.33v17.66Z"/>
  <rect class="cls-16" x="268.36" y="154.56" width="5.7" height="5.13"/>
  <path class="cls-1" d="m254.21,149.16c.2-1.3.62-2.24,1.26-2.82.64-.57,1.38-.86,2.22-.86,1.99,0,3.11,1.22,3.38,3.68h-6.86Zm11.33,8.25l-2.05-3.18c-.6.55-1.35,1.04-2.27,1.47-.92.43-1.9.65-2.96.65-1.13,0-2.06-.31-2.8-.93-.74-.62-1.18-1.66-1.31-3.11h11.69v-.79c0-2.01-.25-3.65-.76-4.92-.51-1.27-1.15-2.27-1.94-3s-1.66-1.23-2.62-1.51c-.96-.28-1.89-.41-2.8-.41s-1.88.16-2.92.48c-1.04.32-2,.84-2.89,1.56-.89.72-1.63,1.66-2.22,2.83-.59,1.17-.88,2.62-.88,4.34s.26,3.14.77,4.31c.51,1.17,1.19,2.11,2.03,2.83.85.72,1.81,1.24,2.89,1.56,1.09.32,2.2.48,3.35.48,3.05,0,5.61-.88,7.69-2.65m-36.54,2.29h5.33v-11.89c.59-.51,1.2-.93,1.83-1.26.62-.33,1.29-.5,1.99-.5.75,0,1.28.2,1.6.61.32.41.48,1.01.48,1.81v11.22h5.33v-12.89c0-.91-.13-1.68-.38-2.34-.26-.65-.61-1.19-1.07-1.61-.46-.42-1-.72-1.63-.91-.63-.19-1.33-.28-2.08-.28s-1.47.1-2.09.3c-.63.2-1.19.45-1.7.76-.51.31-.95.64-1.32,1-.37.36-.69.72-.96,1.07v-2.76h-5.33v17.66Zm-14.03-4.14c-.54-.27-1.1-.68-1.67-1.23v-6.55c.44-.44.96-.84,1.56-1.2.6-.35,1.24-.53,1.92-.53,1.19,0,2.06.43,2.6,1.3.54.87.81,2.04.81,3.52,0,1.62-.28,2.87-.83,3.76-.55.89-1.39,1.33-2.52,1.33-.71,0-1.33-.13-1.87-.4m6.48,3.84c.84-.38,1.56-.94,2.17-1.71.61-.76,1.08-1.71,1.41-2.85.33-1.14.5-2.47.5-3.99s-.17-2.86-.5-4.01c-.33-1.15-.79-2.1-1.39-2.87-.6-.76-1.32-1.34-2.15-1.72-.84-.39-1.76-.58-2.75-.58-1.3,0-2.39.31-3.26.92-.87.61-1.6,1.33-2.17,2.14v-9.55h-5.33v24.52h5.33v-2.09c.66.75,1.43,1.33,2.29,1.74.86.41,1.89.61,3.08.61,1.02,0,1.94-.19,2.78-.56"/>
  <path class="cls-8" d="m109.71,204.09h13.25c8.76-6.89,16.61-14.64,23.24-24.97h-19.34c-4.99,10.33-10.89,18.09-17.48,24.97"/>
  <path class="cls-14" d="m126.07,204.09h6.91c10.37-6.89,19.65-14.64,27.5-24.97h-9.36c-7.06,10.33-15.39,18.09-24.71,24.97"/>
  <path class="cls-6" d="m131.24,169.65h21.19c5.8-10.33,10.31-22.39,13.24-34.45h-24.16c-2.2,12.06-5.6,24.11-9.96,34.45"/>
  <path class="cls-16" d="m157.93,169.65h9.91c6.87-10.33,12.2-22.39,15.67-34.45h-11.7c-3.11,12.06-7.91,24.11-14.08,34.45"/>
  <path class="cls-1" d="m93.34,169.65h29.16c3.74-10.33,6.65-22.39,8.54-34.45h-33.39c-.89,12.06-2.25,24.11-4,34.45"/>
  <path class="cls-15" d="m141.57,69.75h24.4c-2.83-12.06-7.25-24.11-12.98-34.45h-21.02c4.31,10.33,7.64,22.39,9.76,34.45"/>
  <path class="cls-3" d="m171.71,69.75h12.15c-3.35-12.06-8.57-24.11-15.35-34.45h-10.17c6.09,10.33,10.79,22.39,13.8,34.45"/>
  <path class="cls-2" d="m47.7,69.75h37.77c-.5-12.06-1.28-24.11-2.29-34.45h-33.04c-1.22,10.33-2.16,22.39-2.76,34.45"/>
  <path class="cls-17" d="m97.65,69.75h33.59c-1.82-12.06-4.68-24.11-8.37-34.45h-29.05c1.73,10.33,3.07,22.39,3.92,34.45"/>
  <path class="cls-11" d="m126.93,24.97h19.9c-6.57-9.47-14.36-18.08-23.09-24.97h-13.77c6.56,6.89,12.42,15.5,17.36,24.97"/>
  <path class="cls-12" d="m151.9,24.97h9.32c-7.78-9.47-16.99-18.08-27.31-24.97h-6.67c9.27,6.89,17.55,15.5,24.54,24.97"/>
  <path class="cls-5" d="m91.62,24.97h27.27c-4.24-9.47-9.26-18.08-14.89-24.97h-19.03c2.64,6.89,4.99,15.5,6.98,24.97"/>
  <path class="cls-4" d="m143.29,121.42h24.9c.89-6.03,1.36-12.8,1.36-19.58s-.44-13.14-1.3-19.17h-24.8c.65,6.03.98,12.53.98,19.17s-.35,13.56-1.02,19.58"/>
  <path class="cls-10" d="m174.29,121.42h12.2c1.06-6.03,1.61-12.8,1.61-19.58s-.53-13.14-1.54-19.17h-12c.91,6.03,1.38,12.53,1.38,19.17s-.49,13.56-1.44,19.58"/>
  <path class="cls-7" d="m46.84,121.42h39.03c.16-6.03.24-12.8.24-19.58s-.08-13.14-.23-19.17h-38.98c-.18,6.03-.28,12.53-.28,19.17s.1,13.56.29,19.58"/>
  <path class="cls-9" d="m1.2,121.42h33.35c-.3-6.03-.46-12.8-.46-19.58s.15-13.14.44-19.17H.88c-.58,6.03-.88,12.53-.88,19.17s.31,13.56.91,19.58"/>
  <path class="cls-13" d="m98.51,121.42h34.17c.58-6.03.88-12.8.88-19.58s-.29-13.14-.84-19.17h-34.28c.26,6.03.39,12.53.39,19.17s-.14,13.56-.41,19.58"/>
  <g>
    <path class="cls-8" d="m207.95,62.2l8.54-.14c.22,0,.4.18.54.55s.29.66.43.87c.33.52.89.78,1.66.78s1.39-.18,1.87-.54c.47-.36.71-.83.71-1.4s-.14-.96-.44-1.17-.61-.41-.95-.61c-.34-.2-.85-.35-1.53-.46-.67-.11-1.04-.17-1.11-.19h.03l-.92-.24c-.59-.11-1.09-.23-1.49-.36-2.57-.69-4.43-1.56-5.58-2.6-1.15-1.04-1.72-2.45-1.72-4.22,0-1.28.24-2.43.71-3.46.47-1.02,1.09-1.86,1.86-2.5,2.21-1.86,5.25-2.79,9.14-2.79,3.09,0,5.52.56,7.29,1.68h-.02c1.13.82,1.91,1.62,2.33,2.42.42.79.68,1.77.79,2.93l-.42.42c-2.83.11-5.34.16-7.53.16-.66,0-1.05-.19-1.18-.58-.05-.16-.11-.32-.18-.48-.15-.39-.64-.58-1.45-.58h-.06c-.64,0-1.18.15-1.63.44-.45.3-.68.58-.69.86,0,.28.05.51.18.7.12.18.25.33.4.44.14.11.36.22.65.33.29.11.51.19.65.23.15.04.37.1.69.19l.57.15c.23.06.89.23,1.98.48,1.09.26,2,.51,2.74.74v-.02c2.29.77,3.86,1.74,4.69,2.9.83,1.16,1.25,2.51,1.25,4.05,0,4.1-2.45,6.76-7.35,7.98-1.42.36-2.94.61-4.55.76-1.98,0-3.94-.29-5.88-.87-1.94-.58-3.24-1.53-3.89-2.84-.44-.64-.74-1.22-.89-1.75-.15-.53-.27-1.28-.37-2.24.03.01.08.02.15.02Z"/>
    <path class="cls-9" d="m231.71,56c.26-2.46.69-4.3,1.29-5.54,1.15-2.39,2.87-4.09,5.15-5.09,2.04-.89,4.25-1.34,6.64-1.34,4.01,0,6.93,1.1,8.77,3.3,1.11,1.3,1.75,2.92,1.92,4.86l.15,1.52c-.18.17-1.34.26-3.47.26l-2.57-.03h-.21l-1.41-.03-.39.02h-.32c-.3,0-.53-.44-.69-1.33-.16-.88-.39-1.47-.71-1.75-.32-.29-.69-.43-1.11-.43s-.79.08-1.11.23c-.32.15-.58.33-.78.54-.2.21-.38.51-.52.9-.26.67-.42,1.38-.47,2.12-.05.75-.08,1.59-.08,2.51v.39l-.07,1.63c0,2.97.84,4.49,2.52,4.56.43,0,.73-.08.9-.23.46-.41.87-1.23,1.21-2.47.08-.26.17-.47.27-.63h.61l.74.02h2.62l.79-.02,1.53.02h.94l.95.02h.65c.13.01.22.12.27.34l-.05.53c-.1,1.27-.39,2.42-.89,3.46-.92,1.9-2.36,3.3-4.32,4.22-1.97.92-4.12,1.38-6.47,1.38-4.1,0-7.18-1.21-9.24-3.63-2.06-2.42-3.09-5.85-3.09-10.29Z"/>
    <path class="cls-7" d="m281.31,63.35l-.02,1.92c0,.81.01,2.08.03,3.83-.15.2-1.35.31-3.59.31s-4.24-.03-6.01-.1c-.02-.02-.12-.16-.31-.4v-2.58l.03-4.96c0-.48-.05-.77-.16-.86-.11-.09-.44-.13-.99-.13h-.23c-1.02,0-1.83.05-2.42.15v2.26l-.03,6.25c-.16.17-1.51.26-4.05.26h-.78c-2.2,0-3.8-.03-4.8-.1-.2-.06-.31-.83-.31-2.29l.1-3.57.16-14.47v-.78c0-.16.02-.72.02-1.69s.06-1.58.18-1.83h.08c.71.02,1.23.03,1.57.03h1.81l1.95-.03h.61c1.83,0,2.9.21,3.2.63.15.22.23.54.23.99l-.05,2.02v.76l-.1,3.2c0,.24.02.55.05.94h1l.4.02h1.29c.47,0,.96-.04,1.45-.11v-3.83l.02-1.2v-1.12l-.02-.26v-.82c0-.64.03-1.02.09-1.16.06-.14.21-.21.46-.21l.32.02h1.05l3.49-.1c2.78,0,4.17.22,4.17.66v1.15l.02.39-.02.84v2.5l.08,10.31c0,.17-.01.4-.03.68v.78c0,.34.01.8.03,1.36v.37Z"/>
    <path class="cls-13" d="m307.74,56.35l-.05,4.54c0,1.39-.22,2.62-.67,3.68-.45,1.07-1.04,1.93-1.77,2.58-1.99,1.81-4.94,2.71-8.84,2.71s-6.93-.95-9.09-2.84c-.76-.66-1.41-1.51-1.93-2.56-.52-1.05-.84-2.24-.94-3.56.05-4.5.08-8.66.08-12.49-.05,0-.08-.57-.08-1.7s.05-1.83.14-2.1h.34c1.58-.09,3.74-.13,6.48-.13.19.04.55.07,1.06.08s.86.03,1.06.05l.5.06c.08,2.13.12,5.07.14,8.8l-.1,6.49c0,2.15.62,3.23,1.87,3.23.53,0,.97-.23,1.33-.7.36-.46.55-.99.57-1.57l.06-.16.05-5.44.02-.48c0-2.5-.03-4.91-.1-7.24l-.03-1.18c-.02-.47-.03-.9-.03-1.28s.06-.64.18-.78c4.16,0,7.29.02,9.4.05.08.08.17.14.29.21h-.02l.18.11c-.09,2.04-.13,4.65-.13,7.85v2.78l.02.95Z"/>
    <path class="cls-4" d="m329.37,62.67c-.08.3-.11.62-.11.97v.37c0,.57.04.98.11,1.23,0,1.63,0,2.88-.02,3.76-.07.28-5.38.42-15.94.42-.48,0-1.29-.01-2.41-.03-.17-.32-.26-.86-.26-1.6l.03-1.05v-3.67l.02-3.07v-3.04l.02-4.89c0-.9-.01-1.75-.03-2.55v-.18l-.05-2.33c0-1.37.11-2.26.34-2.67.22.01.51.02.89.02h.78l2.71-.03c3.09,0,4.79.19,5.1.58l-.13,5.64-.05,4.73-.02.19-.07,6.72.65.37c1.95-.12,3.84-.18,5.66-.18s2.75.09,2.77.27Z"/>
    <path class="cls-10" d="m331.13,48.87l-.08-4.25s.05.02.11.05c8.18-.14,14.35-.21,18.5-.23.04.02.08.05.1.1v4.55c0,.44-.01.8-.03,1.08-.05.17-.37.26-.95.26h-.11c-2.61,0-5.32-.04-8.14-.13,0,.1-.01.27-.04.52-.03.25-.05.43-.06.53l-.08.61c-.05.41-.09,1.12-.11,2.13l5.01-.11c.86-.02,1.49-.03,1.87-.03h.26c.66,0,1.09.02,1.29.06.2.04.31.15.31.33l-.02.13v.39l.08,4.15-.02.02v-.02c-3.27.16-5.89.24-7.85.24h-.76v3.91l8.77-.27c.48,0,.79.07.92.21-.01.28-.02.68-.02,1.2l.11,4.39c0,.27-.12.43-.36.47l-5.36-.05c-1.06,0-3.16.04-6.3.11l-2.65.06c-1.87.06-3.26.1-4.17.1l-.05-.03h.02l-.31-.31v-.57l.1-17.27.02-2.34Z"/>
  </g>
  <g>
    <path class="cls-16" d="m215.25,89.27l3.02-.05c5.27,0,8.96.87,11.1,2.62.45.33.95.89,1.49,1.68,1.56,2.27,2.34,4.78,2.34,7.53,0,4.9-1.69,8.52-5.06,10.87-2.01,1.41-4.33,2.13-6.95,2.15l-.06.07h-.4l-4.3-.05c-1.95,0-4.39.05-7.32.15-.21-.39-.31-.85-.31-1.37l.02-.58v-2.52l.03-3.59v-5.91c-.02-1.36-.03-2.37-.03-3.04v-2.65l.02-.37v-4.62c0-.09.59-.16,1.76-.22,1.17-.06,2.11-.09,2.81-.09h1.84Zm6.85,5.59c-.61-.44-1.29-.69-2.04-.74-.26-.01-.61-.02-1.06-.03-.45-.01-.77-.02-.98-.03-.19.29-.32.51-.39.65l-.29.6v.91c0,1.86.04,4.39.13,7.58l.1,4.67c.07.33.28.53.65.6,1.11-.02,1.96-.1,2.57-.23,2.12-.75,3.18-3.33,3.18-7.74,0-3.26-.62-5.34-1.87-6.22Z"/>
    <path class="cls-16" d="m235.41,93.7l-.08-4.25s.05.02.11.05c8.18-.14,14.35-.21,18.5-.23.04.02.08.05.1.1v4.55c0,.44-.01.8-.03,1.08-.05.17-.37.26-.95.26h-.11c-2.61,0-5.32-.04-8.14-.13,0,.1-.01.27-.04.52-.03.25-.05.43-.06.53l-.08.61c-.05.41-.09,1.12-.11,2.13l5.01-.11c.86-.02,1.49-.03,1.87-.03h.26c.66,0,1.09.02,1.29.06.21.04.31.15.31.33l-.02.13v.39l.08,4.15-.02.02v-.02c-3.27.16-5.89.24-7.85.24h-.76v3.91l8.77-.27c.48,0,.79.07.92.21-.01.28-.02.68-.02,1.2l.11,4.39c0,.27-.12.43-.36.47l-5.36-.05c-1.06,0-3.16.04-6.3.11l-2.65.06c-1.87.06-3.26.1-4.17.1l-.05-.03h.02l-.31-.31v-.57l.1-17.27.02-2.34Z"/>
    <path class="cls-16" d="m263.69,89.4l5.19-.05c1.1,0,2.09.02,2.99.06,2.4.07,4.23.63,5.48,1.7,1.25,1.07,1.88,2.57,1.88,4.51,0,1.35-.39,2.5-1.18,3.45s-1.93,1.79-3.44,2.51c2.39.75,3.84,2.58,4.34,5.49.12.64.21,1.36.28,2.18.07.82.13,1.37.17,1.65l.16.82c.17.97.32,1.67.45,2.1l-.06.05c-1.83.12-3.5.18-5.02.18s-2.85-.03-4.01-.08h-.1c-.33,0-.69-1.59-1.07-4.76l-.08-.7c-.04-1.18-.25-1.98-.62-2.39-.37-.41-1.02-.61-1.93-.61l-.21.02h-.86v4.91l.02.52v2.96c-.03.11-.11.17-.24.19-1.18.04-2.86.06-5.02.06s-3.58,0-4.27.02l-.1-.03-.03.02s-.05-.02-.1-.05l.03-1.45-.02-.48.06-6.7v-1.18l.02-1.21.02-4.18.02-.55-.05-3.67.06-5.15c0-.09.31-.13.92-.13l1.03.02h.99l2.05.02,2.23-.03Zm5.98,5.27c-.65-.28-1.51-.42-2.58-.42h-.94c-.12.17-.18,1.08-.18,2.72s.03,2.74.08,3.3c3.37-.08,5.06-1.24,5.06-3.49,0-.96-.48-1.66-1.44-2.12Zm10.37,19.16v.02s-.02,0-.02-.02h.02Zm.08-.05l-.08.05v-.03s.03-.02.08-.02Z"/>
    <path class="cls-16" d="m313.27,91.42l-.05,3.23v.21c-.16,1.08-1.34,2.81-3.54,5.2l-1.24,1.36c-1.39,1.64-2.51,2.98-3.38,4.04l-1.84,2.25h.86l9.37-.13c.16,0,.24.96.24,2.88v1.81l.03,1.05c0,.34-.07.56-.2.65-.13.09-.37.14-.72.14h-.42l-19.37.16c-.3,0-.53-.03-.68-.1-.15-.06-.31-.22-.47-.45,0-2.94-.04-4.77-.11-5.49l.26-.21,2.28-2.76c3.34-4.18,5.93-7.37,7.77-9.58l-4.76.05-1.2.03c-1.17.03-2.35.05-3.54.05-.12-.06-.17-.23-.15-.48.02-.26.01-.46,0-.61v-.31l.02-.13v-.95l-.15-3.7.02-.1s.07.02.15.06h3.17c1.84,0,6.21-.05,13.12-.16l3.5-.05c.37.01.64.08.81.2.17.12.26.38.26.78l-.03.9v.16Z"/>
    <path class="cls-16" d="m338.95,101.18l-.05,4.54c0,1.39-.22,2.62-.67,3.68-.45,1.07-1.04,1.93-1.77,2.58-1.99,1.81-4.94,2.71-8.84,2.71s-6.93-.95-9.1-2.84c-.76-.66-1.41-1.51-1.93-2.56-.52-1.05-.84-2.24-.95-3.56.05-4.5.08-8.66.08-12.49-.05,0-.08-.57-.08-1.7s.05-1.83.15-2.1h.34c1.58-.09,3.74-.13,6.48-.13.19.04.55.07,1.06.08s.86.03,1.06.05l.5.06c.08,2.13.12,5.07.14,8.8l-.1,6.49c0,2.15.62,3.23,1.87,3.23.53,0,.97-.23,1.33-.7.36-.46.55-.99.57-1.57l.06-.16.05-5.44.02-.48c0-2.5-.03-4.91-.1-7.24l-.03-1.18c-.02-.47-.03-.9-.03-1.28s.06-.64.18-.78c4.16,0,7.29.02,9.4.05.08.08.17.14.29.21h-.02l.18.11c-.09,2.04-.13,4.65-.13,7.85v2.78l.02.95Z"/>
    <path class="cls-16" d="m341.92,91.73l-.05-1.39c0-.59.06-.96.18-1.1.29,0,.84-.02,1.66-.02s1.52,0,2.11.02l2.28.03c.42-.03,1.03-.05,1.83-.05s1.3.11,1.52.32c-.05,2.63-.08,5.75-.08,9.37l.57.1c.16-.42.46-1.05.88-1.89.42-.84.67-1.33.73-1.47l.18-.39c.04-.1.24-.51.59-1.25.35-.74.71-1.57,1.07-2.49s.76-1.64,1.18-2.17c.75-.01,1.67-.02,2.75-.02s2.34.02,3.79.06c1.44.04,2.53.06,3.25.06-3.07,5.55-5.25,9.38-6.54,11.52l.37.6c.44.55,1.41,2.12,2.89,4.7,1.49,2.58,2.56,4.42,3.23,5.51l.39.63c.47.79.71,1.23.71,1.34s-.03.2-.1.29h-.1c-.6-.02-1.09-.03-1.46-.03s-.86.01-1.46.03h-7.25c-1.66-3.1-3.38-6.47-5.17-10.1-.09.86-.22,2.9-.39,6.11v.21l.03,3.67c-.13.19-.69.29-1.7.29l-.34-.02h-.87l-4.57.03h-1.49c-.3,0-.52-.11-.65-.34l-.05-.05v-2.46l.03-2.54v-9.13l.05-8Z"/>
    <path class="cls-16" d="m391.63,101.18l-.05,4.54c0,1.39-.22,2.62-.67,3.68-.45,1.07-1.04,1.93-1.77,2.58-1.99,1.81-4.94,2.71-8.84,2.71s-6.93-.95-9.09-2.84c-.76-.66-1.41-1.51-1.93-2.56-.52-1.05-.84-2.24-.95-3.56.05-4.5.08-8.66.08-12.49-.05,0-.08-.57-.08-1.7s.05-1.83.15-2.1h.34c1.58-.09,3.74-.13,6.48-.13.19.04.55.07,1.06.08.51.01.86.03,1.06.05l.5.06c.08,2.13.12,5.07.15,8.8l-.1,6.49c0,2.15.62,3.23,1.87,3.23.53,0,.97-.23,1.33-.7.36-.46.55-.99.57-1.57l.06-.16.05-5.44.02-.48c0-2.5-.03-4.91-.1-7.24l-.03-1.18c-.02-.47-.03-.9-.03-1.28s.06-.64.18-.78c4.16,0,7.29.02,9.4.05.08.08.17.14.29.21h-.02l.18.11c-.09,2.04-.13,4.65-.13,7.85v2.78l.02.95Z"/>
    <path class="cls-16" d="m419.02,102.39l-.02,1.08v5.98l.03,2.84v.81l.02.76c-.07.09-.33.13-.79.13h-.42l-5.07.06c-2.15,0-3.76,0-4.81-.02-.16-.17-.75-1.74-1.76-4.7l-3.09-8.19-.58.08-.02,1.65v4.38l.06,4.38v1.81c0,.49-.11.74-.32.76-1.07-.03-2.08-.05-3.05-.05h-.5l-2.44.06h-.32l-1.16.03-.05-.03c-.36-.33-.53-.58-.53-.73v-.29l.02-.32.08-6.3c0-6.91.06-12.14.19-15.68l.03-1.34c0-.1,3.71-.18,11.13-.26.06.04.16.28.29.71v-.05l.1.32c.8,2.28,1.77,4.9,2.91,7.86,1.14,2.96,1.72,4.47,1.74,4.53l.55-.03.06-13.17c0-.09.79-.13,2.36-.13l4.05.08h1.2c.08,3.57.11,7.89.11,12.97Z"/>
    <path class="cls-16" d="m441.16,90.06l-.02,1.5c0,1.48-.02,2.79-.07,3.94-1.26.11-2.98.16-5.17.16l-3.73.02v.47l-.03,1.42c0,.38.02.74.05,1.1,2.69-.23,4.69-.34,5.98-.34s2.09.1,2.38.29v5.41c0,.36-.07.59-.21.71-.14.12-.36.18-.65.18h-.21l-.87-.03c-1.93.11-4.07.19-6.41.24l.11,6.43-.02.55v1.52c0,.32-.1.5-.29.52l-9.24.08c-.02-.06-.1-.21-.24-.44-.04-.71-.06-1.31-.06-1.81l.1-22.47c0-.14.73-.21,2.2-.21l.4.02h1.1l7.8-.08,5.54.07h.55l.24-.02c.3,0,.5.07.61.2s.15.33.15.57Z"/>
    <path class="cls-16" d="m464.33,95.36c0,.36-.04.53-.11.53l-5.85-.05c-.02,1.04-.03,2.68-.03,4.89s0,3.76.02,4.62l.06,8.56c-.05.15-.16.23-.32.24l-3.41-.05-.02.02-1.07-.02h-2.96c-.8,0-1.39,0-1.79.02l-.27-.24s-.08-.1-.21-.26c0-.95.04-3.05.11-6.32l.18-8.59-.03-.4c-.08-1.07-.15-1.7-.22-1.9-.07-.2-.21-.31-.41-.32-.21-.02-.36-.02-.45-.02l-.65.03-4.01-.07c-.14-.28-.21-.91-.21-1.89l.03-1.42v-.44c-.01-1.72-.03-2.64-.05-2.76.02,0,.06.01.13.03l20.56-.18c.42,0,.68.03.79.09.11.06.16.17.16.33v4.26l.02,1.29Z"/>
  </g>
</svg>